<svg width="48" height="48" viewBox="0 0 48 48" fill="none" xmlns="http://www.w3.org/2000/svg">
<path d="M16.9829 18.5847C18.6393 23.6498 19.2667 32.6851 24.1102 32.6851C24.4784 32.6851 24.8515 32.6491 25.2254 32.5778C20.8229 31.5515 20.3009 22.6145 17.614 17.9858C17.3999 18.1815 17.1895 18.3812 16.9829 18.5847Z" fill="url(#paint0_linear_477_706)"/>
<path d="M17.6143 17.9859C20.3011 22.6141 20.8231 31.5511 25.2256 32.5779C25.579 32.5112 25.9266 32.4173 26.2655 32.297C22.3134 30.3605 21.2214 21.6823 18.17 17.5044C17.9853 17.6584 17.8 17.8189 17.6143 17.9859Z" fill="url(#paint1_linear_477_706)"/>
<path d="M21.485 15.2334C21.1175 15.2334 20.7436 15.2694 20.3686 15.3407C19.3891 15.5255 18.3931 15.9474 17.3896 16.586C17.6634 16.8568 17.9248 17.1662 18.17 17.504C19.1911 16.6569 20.2051 16.031 21.215 15.6545C21.5837 15.5164 21.9638 15.4107 22.3509 15.3388C22.0677 15.268 21.7769 15.2326 21.485 15.2334Z" fill="#14559A"/>
<path d="M29.3504 30.5123C29.7715 30.1761 30.1769 29.8207 30.5655 29.4473C28.8825 24.4062 28.2798 15.2412 23.4026 15.2412C23.0538 15.2412 22.7021 15.2738 22.3511 15.3387C26.7937 16.4438 27.3629 26.1095 29.3504 30.5123Z" fill="url(#paint2_linear_477_706)"/>
<path d="M22.3515 15.3392C22.0681 15.2681 21.777 15.2326 21.4849 15.2334L23.4026 15.2405C23.0542 15.2405 22.7025 15.2728 22.3515 15.3392Z" fill="#3092C4"/>
<path d="M29.2648 31.5828C29.0704 31.3953 28.8869 31.197 28.715 30.9888C27.8945 31.5696 27.077 32.0103 26.2651 32.2971C26.5543 32.4381 26.8569 32.5431 27.1786 32.608C27.4276 32.659 27.686 32.6853 27.9568 32.6853C28.8684 32.6853 29.5891 32.5773 30.2019 32.2833C29.8644 32.1003 29.5546 31.864 29.2648 31.5828Z" fill="#1969BC"/>
<path d="M21.2148 15.6557C25.194 17.737 25.5401 27.1622 28.7152 30.9891C28.9277 30.8391 29.1391 30.6802 29.3493 30.5125C27.3618 26.1096 26.7937 16.4429 22.3518 15.3389C21.9731 15.4094 21.5941 15.515 21.2148 15.6557Z" fill="url(#paint3_linear_477_706)"/>
<path d="M18.1699 17.504C21.2213 21.6819 22.3133 30.3605 26.2654 32.297C27.0777 32.0101 27.8952 31.5699 28.7153 30.9886C25.5402 27.1618 25.194 17.7369 21.2149 15.6553C20.205 16.031 19.191 16.6569 18.1699 17.504Z" fill="url(#paint4_linear_477_706)"/>
<path d="M15.0311 18.4629C14.553 19.544 14.0644 20.9657 13.4741 22.8208C14.6482 21.1659 15.819 19.7405 16.983 18.5852C16.836 18.125 16.663 17.6735 16.4647 17.2329C15.9648 17.6164 15.4862 18.027 15.0311 18.4629Z" fill="url(#paint5_linear_477_706)"/>
<path d="M16.8891 16.9204C16.7488 17.0209 16.6075 17.1237 16.4653 17.2324C16.651 17.6374 16.8227 18.0919 16.9828 18.585C17.1899 18.3818 17.4004 18.1821 17.6143 17.9862C17.4002 17.6129 17.1578 17.2566 16.8891 16.9204Z" fill="#2B74B1"/>
<path d="M17.39 16.5859C17.2235 16.6919 17.0564 16.8033 16.8887 16.9201C17.1493 17.2407 17.3885 17.5988 17.6147 17.9866C17.8002 17.8183 17.9854 17.6574 18.1704 17.5039C17.9252 17.1664 17.6642 16.8567 17.39 16.5859Z" fill="#125A9E"/>
<path d="M44.5315 14.8476C42.2811 23.5266 37.5805 30.4978 33.64 32.2551H33.6321L33.4195 32.3462L33.3936 32.3563L33.3333 32.3796L33.3063 32.3908L33.2076 32.4257L33.1671 32.44L33.118 32.4561L33.0708 32.4726L33.0288 32.4868L32.9448 32.5123L32.9088 32.5217L32.8521 32.5371L32.8135 32.5476L32.7516 32.5637L32.6763 32.5802C32.8544 32.6458 33.04 32.6792 33.2399 32.6792C36.9768 32.6792 40.7448 25.9825 46.9791 14.8457H44.5311L44.5315 14.8476Z" fill="url(#paint6_linear_477_706)"/>
<path d="M12.6624 15.586L12.6695 15.58L12.6781 15.5743H12.683L12.7434 15.5511L12.7554 15.5451L12.7711 15.5387L12.836 15.5155H12.8394L12.983 15.4652L13.0044 15.4596L13.0659 15.4412L13.094 15.4322L13.1559 15.4138L13.1795 15.4075L13.385 15.3542L13.4131 15.3478L13.4731 15.3362L13.5024 15.3272L13.5628 15.316H13.577L13.7019 15.2927H13.7266L13.7844 15.2826L13.817 15.277L13.8721 15.2687L13.9025 15.2627L14.0368 15.2507C13.9045 15.2381 13.7717 15.2313 13.6389 15.2305C9.43026 15.2305 3.63201 23.0387 1.02051 33.151H1.52413C2.30493 31.7552 3.06278 30.3468 3.79738 28.9262C5.62701 21.7637 9.35263 16.879 12.6624 15.5848" fill="url(#paint7_linear_477_706)"/>
<path d="M15.0312 18.4625C15.4868 18.0271 15.9653 17.6164 16.4649 17.2322C16.3632 17.0059 16.2492 16.7855 16.1232 16.5718C15.7385 17.039 15.3868 17.6555 15.0312 18.4625Z" fill="#0D82CA"/>
<path d="M15.377 15.6451C15.6519 15.8753 15.8982 16.1926 16.1232 16.5724C16.1937 16.4857 16.2662 16.4046 16.3407 16.3291C16.0385 16.0433 15.6958 15.8036 15.3237 15.6177L15.3687 15.6391L15.377 15.6451Z" fill="#0D82CA"/>
<path d="M3.79785 28.9268C7.63523 21.5322 9.45323 16.8522 12.6629 15.5854C9.35348 16.8807 5.6271 21.7651 3.79785 28.9268Z" fill="url(#paint8_linear_477_706)"/>
<path d="M16.3401 16.3291C16.2654 16.4056 16.1942 16.4855 16.1226 16.5725C16.2433 16.7742 16.3554 16.994 16.4649 17.2325C16.6067 17.1237 16.7484 17.0214 16.8883 16.9205C16.7199 16.7105 16.5367 16.5129 16.3401 16.3291Z" fill="#127BCA"/>
<path d="M5.53992 33.1183L5.47017 33.1265H5.45705L5.3978 33.1325H5.38805L5.24705 33.1419H5.23242C9.11592 33.0331 10.8915 31.0888 11.7724 28.268C12.4418 26.1301 12.9919 24.3286 13.4738 22.8174C11.847 25.1071 10.2128 27.8364 8.56992 30.8945C7.77792 32.3683 6.57305 32.984 5.53992 33.1153" fill="url(#paint9_linear_477_706)"/>
<path d="M5.53993 33.1167C6.57305 32.9851 7.77793 32.3701 8.56993 30.8956C10.2128 27.8389 11.8478 25.1089 13.4731 22.8188C14.0644 20.9629 14.5523 19.5424 15.0308 18.4609C11.7912 21.5446 8.53918 26.6719 5.53955 33.1148" fill="url(#paint10_linear_477_706)"/>
<path d="M3.79755 28.9272C3.06295 30.3479 2.30497 31.7563 1.52393 33.152H2.98793C3.17325 31.7291 3.44349 30.3186 3.79718 28.928" fill="#05A1E6"/>
<path d="M13.9024 15.266L13.8713 15.272L13.8166 15.2799L13.7843 15.2855L13.7266 15.2956L13.7018 15.3016L13.5769 15.3234H13.5627L13.5019 15.3354L13.4716 15.3436L13.4127 15.3552L13.3849 15.362L13.1791 15.4152L13.1554 15.422L13.0932 15.4404L13.0651 15.4482L13.0039 15.4666L12.9814 15.4726L12.8386 15.5229L12.7737 15.5454L12.7467 15.5566L12.6863 15.5791L12.6661 15.5889C9.45681 16.8552 7.63881 21.5352 3.80144 28.9299C3.44687 30.3203 3.17662 31.7309 2.99219 33.1539H3.19731L4.60544 33.1479H5.25156L5.39219 33.1385H5.40119L5.46044 33.1325H5.47431L5.54406 33.1242C8.54406 26.681 11.7961 21.554 15.0353 18.4704C15.3916 17.6634 15.7429 17.0469 16.1269 16.5804C15.9019 16.2005 15.6559 15.8825 15.3814 15.6519L15.3736 15.6459L15.3278 15.6237L15.2824 15.6009L15.2386 15.5795L15.1864 15.5577L15.1459 15.5401L15.0608 15.5045L15.0244 15.491L14.9611 15.4655L14.9269 15.4542L14.8388 15.4239H14.8317L14.7297 15.395L14.7068 15.3879L14.6209 15.3639L14.6011 15.3582C14.5305 15.34 14.4594 15.3244 14.3877 15.3114L14.3656 15.3054L14.2729 15.2904L14.2546 15.2847L14.1451 15.2701H14.1259L14.0412 15.2607L13.9069 15.2731" fill="url(#paint11_linear_477_706)"/>
<path d="M35.7418 19.6524C35.003 22.0176 34.4056 23.9687 33.8848 25.5741C35.9109 22.7859 37.9066 19.2789 39.8068 15.2319C37.5894 15.9283 36.4074 17.5221 35.7418 19.6524Z" fill="url(#paint12_linear_477_706)"/>
<path d="M33.9488 32.1078C33.8456 32.1603 33.7418 32.2102 33.6401 32.2555C37.5806 30.4979 42.2816 23.5267 44.5316 14.8477H44.0756C38.9051 24.0843 37.2424 30.2677 33.9488 32.1078Z" fill="url(#paint13_linear_477_706)"/>
<path d="M31.3755 31.332C32.2331 30.2853 32.931 28.5063 33.8846 25.5742C32.7847 27.0851 31.6777 28.3837 30.5696 29.4427L30.564 29.4521C30.8058 30.1762 31.071 30.8156 31.3732 31.3316" fill="#079AE1"/>
<path d="M31.3755 31.332C31.0838 31.6883 30.7744 31.9594 30.4309 32.1604C30.3559 32.2044 30.2796 32.2453 30.2021 32.283C30.5748 32.4855 30.983 32.6142 31.4044 32.6622L31.6009 32.6794H31.6125L31.707 32.6854H32.0276L32.064 32.6794L32.1349 32.6734H32.1694L32.2463 32.6652H32.2526L32.2763 32.6595L32.3584 32.6468H32.3824L32.4746 32.6314H32.4896L32.6738 32.5924C32.1649 32.4064 31.7393 31.9673 31.3729 31.3422" fill="#1969BC"/>
<path d="M24.1108 32.6856C24.4791 32.6856 24.8518 32.6496 25.2257 32.5776C25.5792 32.512 25.927 32.4184 26.2656 32.2975C26.5547 32.4385 26.8577 32.5435 27.1787 32.6091C27.4272 32.6601 27.6868 32.6857 27.9576 32.686L24.1108 32.6856ZM27.9576 32.686C28.8685 32.686 29.59 32.5776 30.2023 32.2832C30.575 32.4858 30.9832 32.6146 31.4046 32.6627L31.6011 32.6796H31.6127L31.7072 32.6856H31.8205L27.9576 32.686Z" fill="#1E5CB3"/>
<path d="M31.8203 32.6852H32.0307L32.0671 32.6792L32.1387 32.6732H32.1732L32.2497 32.6649H32.2561L32.2793 32.6589L32.3614 32.6465L32.3866 32.6409L32.4792 32.6259H32.4938L32.6779 32.5869C32.8561 32.6525 33.0417 32.6859 33.2416 32.6859L31.8211 32.6919L31.8203 32.6852Z" fill="#1D60B5"/>
<path d="M30.5667 29.4523V29.4463C30.1782 29.8197 29.7727 30.175 29.3517 30.5113C29.1446 30.6762 28.9329 30.8351 28.7168 30.9879C28.8953 31.2009 29.0764 31.4004 29.2673 31.5823C29.5568 31.8632 29.8662 32.0998 30.204 32.2824C30.2813 32.2444 30.3574 32.2035 30.4324 32.1598C30.7767 31.9588 31.0853 31.6873 31.3774 31.3314C31.0752 30.8154 30.81 30.1757 30.5685 29.4519" fill="#175FAB"/>
<path d="M42.6317 14.8477H40.3363L39.9725 14.8653L39.8034 15.2275C37.9029 19.2749 35.9079 22.7819 33.8818 25.57C32.9293 28.5018 32.2303 30.2812 31.373 31.3274C31.7394 31.9529 32.1658 32.3924 32.6728 32.5788L32.7125 32.5702H32.7208L32.7489 32.5642L32.8127 32.5484L32.8505 32.5375L32.9072 32.5229L32.9424 32.5128L33.0272 32.4873L33.0692 32.473L33.1164 32.4558L33.1652 32.4404L33.2049 32.4254L33.3039 32.3905L33.3313 32.3804L33.392 32.3568L33.4175 32.3474L33.6305 32.2563H33.638C33.7397 32.2117 33.8432 32.161 33.9459 32.1085C37.2403 30.268 38.9034 24.085 44.0739 14.8488H42.6298L42.6317 14.8477Z" fill="url(#paint14_linear_477_706)"/>
<path d="M14.0376 15.2539L14.0612 15.2599L14.1212 15.2663H14.1415L14.251 15.2805L14.2693 15.2865L14.3616 15.3019L14.3848 15.3075L14.5975 15.3548L14.617 15.3608L14.7025 15.3848L14.7261 15.3919L14.8277 15.4208L14.8356 15.4268L14.9245 15.4571L14.9582 15.468L15.022 15.4939L15.058 15.5066L15.1427 15.5419L15.184 15.5595L15.235 15.5816L15.28 15.603L15.3246 15.6263C15.6917 15.8063 16.0292 16.0466 16.342 16.338C16.4572 16.2173 16.5775 16.108 16.7027 16.0103C16.0191 15.5254 15.244 15.249 14.3511 15.249C14.2476 15.249 14.1441 15.255 14.0391 15.2629" fill="#7DCBEC"/>
<path d="M16.3403 16.3292C16.532 16.5073 16.7153 16.7061 16.8886 16.9206C17.0566 16.804 17.2231 16.6915 17.39 16.5865C17.1773 16.372 16.9466 16.1763 16.7003 16.0015C16.5756 16.099 16.4556 16.2082 16.3403 16.3292Z" fill="#5EC5ED"/>
<path d="M13.9377 15.2782L14.2499 15.2649C15.1434 15.2649 15.9178 15.5413 16.6011 16.0259C17.3224 15.4561 18.1949 15.2574 19.4064 15.2574H13.54L13.9377 15.2782Z" fill="url(#paint15_linear_477_706)"/>
<path d="M19.4069 15.2574C18.1953 15.2574 17.3247 15.4561 16.6016 16.0259C16.8413 16.195 17.0711 16.39 17.2906 16.6108C18.2958 15.9729 19.2896 15.5488 20.2702 15.3652C20.645 15.2945 21.0166 15.2592 21.3851 15.2592L19.4069 15.2574Z" fill="url(#paint16_linear_477_706)"/>
<path d="M33.8847 25.5756C34.4063 23.9691 35.0022 22.0187 35.7424 19.6529C36.4088 17.5214 37.5893 15.9276 39.8056 15.2324L39.9765 14.8701C36.363 15.0865 34.674 16.9247 33.8247 19.6469C32.3382 24.3992 31.4378 27.4799 30.5708 29.443C31.6778 28.3844 32.7848 27.085 33.8847 25.5756Z" fill="url(#paint17_linear_477_706)"/>
<defs>
<linearGradient id="paint0_linear_477_706" x1="21.1863" y1="15.114" x2="21.1863" y2="37.0689" gradientUnits="userSpaceOnUse">
<stop stop-color="#0994DC"/>
<stop offset="0.35" stop-color="#66CEF5"/>
<stop offset="0.846" stop-color="#127BCA"/>
<stop offset="1" stop-color="#127BCA"/>
</linearGradient>
<linearGradient id="paint1_linear_477_706" x1="22.0131" y1="14.5859" x2="22.0131" y2="37.0428" gradientUnits="userSpaceOnUse">
<stop stop-color="#0E76BC"/>
<stop offset="0.36" stop-color="#36AEE8"/>
<stop offset="0.846" stop-color="#00ADEF"/>
<stop offset="1" stop-color="#00ADEF"/>
</linearGradient>
<linearGradient id="paint2_linear_477_706" x1="26.4568" y1="32.152" x2="26.4568" y2="14.2835" gradientUnits="userSpaceOnUse">
<stop stop-color="#1C63B7"/>
<stop offset="0.5" stop-color="#33BDF2"/>
<stop offset="1" stop-color="#33BDF2" stop-opacity="0.42"/>
</linearGradient>
<linearGradient id="paint3_linear_477_706" x1="25.2493" y1="12.2399" x2="25.2493" y2="35.6156" gradientUnits="userSpaceOnUse">
<stop stop-color="#166AB8"/>
<stop offset="0.4" stop-color="#36AEE8"/>
<stop offset="0.846" stop-color="#0798DD"/>
<stop offset="1" stop-color="#0798DD"/>
</linearGradient>
<linearGradient id="paint4_linear_477_706" x1="23.5271" y1="12.4219" x2="23.5271" y2="37.279" gradientUnits="userSpaceOnUse">
<stop stop-color="#124379"/>
<stop offset="0.39" stop-color="#1487CB"/>
<stop offset="0.78" stop-color="#165197"/>
<stop offset="1" stop-color="#165197"/>
</linearGradient>
<linearGradient id="paint5_linear_477_706" x1="13.2856" y1="19.7612" x2="16.7941" y2="19.7612" gradientUnits="userSpaceOnUse">
<stop stop-color="#33BDF2" stop-opacity="0.698"/>
<stop offset="1" stop-color="#1DACD8"/>
</linearGradient>
<linearGradient id="paint6_linear_477_706" x1="39.856" y1="31.6437" x2="39.856" y2="14.2374" gradientUnits="userSpaceOnUse">
<stop stop-color="#136AB4"/>
<stop offset="0.6" stop-color="#59CAF5" stop-opacity="0.549"/>
<stop offset="1" stop-color="#59CAF5" stop-opacity="0.235"/>
</linearGradient>
<linearGradient id="paint7_linear_477_706" x1="0.83405" y1="23.9235" x2="13.849" y2="23.9235" gradientUnits="userSpaceOnUse">
<stop stop-color="#05A1E6" stop-opacity="0.247"/>
<stop offset="1" stop-color="#05A1E6"/>
</linearGradient>
<linearGradient id="paint8_linear_477_706" x1="8.2999" y1="32.1366" x2="8.2999" y2="14.3138" gradientUnits="userSpaceOnUse">
<stop stop-color="#318ED5"/>
<stop offset="1" stop-color="#38A7E4"/>
</linearGradient>
<linearGradient id="paint9_linear_477_706" x1="9.28435" y1="32.2509" x2="9.28435" y2="14.8817" gradientUnits="userSpaceOnUse">
<stop stop-color="#05A1E6"/>
<stop offset="1" stop-color="#05A1E6" stop-opacity="0.549"/>
</linearGradient>
<linearGradient id="paint10_linear_477_706" x1="10.3495" y1="33.1395" x2="10.3495" y2="18.4624" gradientUnits="userSpaceOnUse">
<stop stop-color="#1959A6"/>
<stop offset="0.5" stop-color="#05A1E6"/>
<stop offset="0.918" stop-color="#7EC5EA"/>
<stop offset="1" stop-color="#7EC5EA"/>
</linearGradient>
<linearGradient id="paint11_linear_477_706" x1="10.7899" y1="32.1679" x2="7.99096" y2="16.2945" gradientUnits="userSpaceOnUse">
<stop stop-color="#165096"/>
<stop offset="1" stop-color="#0D82CA"/>
</linearGradient>
<linearGradient id="paint12_linear_477_706" x1="36.755" y1="23.1633" x2="36.755" y2="14.8679" gradientUnits="userSpaceOnUse">
<stop stop-color="#05A1E6"/>
<stop offset="0.874" stop-color="#0495D6"/>
<stop offset="1" stop-color="#0495D6"/>
</linearGradient>
<linearGradient id="paint13_linear_477_706" x1="40.7984" y1="14.1337" x2="37.4254" y2="33.2625" gradientUnits="userSpaceOnUse">
<stop stop-color="#38A7E4" stop-opacity="0.329"/>
<stop offset="0.962" stop-color="#0E88D3"/>
<stop offset="1" stop-color="#0E88D3"/>
</linearGradient>
<linearGradient id="paint14_linear_477_706" x1="37.6146" y1="14.8164" x2="37.6146" y2="32.9136" gradientUnits="userSpaceOnUse">
<stop stop-color="#168CD4"/>
<stop offset="0.5" stop-color="#1C87CC"/>
<stop offset="1" stop-color="#154B8D"/>
</linearGradient>
<linearGradient id="paint15_linear_477_706" x1="13.1387" y1="13.0506" x2="34.1809" y2="21.7787" gradientUnits="userSpaceOnUse">
<stop stop-color="#97D6EE"/>
<stop offset="0.703" stop-color="#55C1EA"/>
<stop offset="1" stop-color="#55C1EA"/>
</linearGradient>
<linearGradient id="paint16_linear_477_706" x1="18.8598" y1="17.9902" x2="35.4796" y2="10.4564" gradientUnits="userSpaceOnUse">
<stop stop-color="#7ACCEC"/>
<stop offset="1" stop-color="#3FB7ED"/>
</linearGradient>
<linearGradient id="paint17_linear_477_706" x1="35.1456" y1="15.8003" x2="35.1456" y2="33.5013" gradientUnits="userSpaceOnUse">
<stop stop-color="#1DA7E7"/>
<stop offset="1" stop-color="#37ABE7" stop-opacity="0"/>
</linearGradient>
</defs>
</svg>
