<svg width="38" height="38" viewBox="0 0 38 38" fill="none" xmlns="http://www.w3.org/2000/svg">
<path d="M11.4902 0V1.31113H13.357V11.6797C13.2398 11.8586 4.01053 25.9765 0.232396 33.8665C-0.13257 34.6289 -0.0464817 35.5255 0.342847 36.3364C0.537302 36.7416 0.812394 37.1231 1.23952 37.4387C1.66623 37.7544 2.30041 38 3.01064 38H34.9894C35.6991 38 36.3337 37.7544 36.7605 37.4387C37.1872 37.123 37.4627 36.7415 37.6571 36.3364C38.0465 35.5255 38.1326 34.6289 37.7676 33.8665C33.9886 25.9757 24.7591 11.8586 24.643 11.6797L24.656 9.82902C24.6556 9.7957 24.6523 9.76237 24.6447 9.72934L24.656 1.31173H26.5393V0.000598648L11.4902 0ZM22.774 1.31107L22.7648 9.17414L15.2386 9.18847V1.33064L22.774 1.31107Z" fill="#3A0099"/>
<path d="M14.7036 24.1839L11.8314 26.5771L14.7036 28.9704C14.7988 29.0484 14.8777 29.1446 14.9356 29.2533C14.9935 29.362 15.0294 29.481 15.041 29.6036C15.0527 29.7262 15.04 29.8499 15.0036 29.9676C14.9672 30.0853 14.9079 30.1946 14.8291 30.2892C14.7503 30.3838 14.6535 30.4619 14.5443 30.5189C14.4352 30.576 14.3158 30.6109 14.1931 30.6215C14.0704 30.6322 13.9469 30.6185 13.8295 30.5812C13.7121 30.5439 13.6033 30.4837 13.5093 30.4041L9.77716 27.294C9.67205 27.2065 9.58748 27.0968 9.52944 26.973C9.4714 26.8491 9.44131 26.7139 9.44131 26.5771C9.44131 26.4403 9.4714 26.3052 9.52944 26.1813C9.58748 26.0574 9.67205 25.9478 9.77716 25.8603L13.5093 22.7501C13.6997 22.5941 13.944 22.5196 14.1891 22.5429C14.4342 22.5663 14.6601 22.6855 14.8176 22.8746C14.9752 23.0638 15.0516 23.3075 15.0302 23.5527C15.0089 23.798 14.8915 24.0248 14.7036 24.1839ZM28.3881 25.8603L24.656 22.7501C24.562 22.6706 24.4532 22.6104 24.3358 22.5731C24.2184 22.5357 24.0948 22.522 23.9721 22.5327C23.8494 22.5434 23.7301 22.5783 23.6209 22.6353C23.5118 22.6924 23.415 22.7705 23.3362 22.8651C23.2574 22.9597 23.1981 23.069 23.1617 23.1867C23.1253 23.3043 23.1126 23.428 23.1243 23.5506C23.1359 23.6732 23.1717 23.7923 23.2297 23.901C23.2876 24.0097 23.3664 24.1058 23.4617 24.1839L26.3339 26.5771L23.4617 28.9704C23.3664 29.0484 23.2876 29.1446 23.2297 29.2533C23.1717 29.362 23.1359 29.481 23.1243 29.6036C23.1126 29.7262 23.1253 29.8499 23.1617 29.9676C23.1981 30.0853 23.2574 30.1946 23.3362 30.2892C23.415 30.3838 23.5118 30.4619 23.6209 30.5189C23.7301 30.576 23.8494 30.6109 23.9721 30.6215C24.0948 30.6322 24.2184 30.6185 24.3358 30.5812C24.4532 30.5439 24.562 30.4837 24.656 30.4041L28.3881 27.294C28.4932 27.2065 28.5778 27.0968 28.6358 26.973C28.6939 26.8491 28.724 26.7139 28.724 26.5771C28.724 26.4403 28.6939 26.3052 28.6358 26.1813C28.5778 26.0574 28.4932 25.9478 28.3881 25.8603ZM21.8895 18.8578C21.7743 18.8159 21.652 18.7971 21.5296 18.8025C21.4072 18.8079 21.287 18.8374 21.176 18.8892C21.0649 18.9411 20.9652 19.0143 20.8824 19.1047C20.7997 19.1951 20.7355 19.3009 20.6937 19.4161L15.7175 33.1006C15.6331 33.3331 15.6446 33.5896 15.7492 33.8137C15.8539 34.0378 16.0433 34.2112 16.2758 34.2957C16.3778 34.3334 16.4858 34.3526 16.5945 34.3524C16.7861 34.3525 16.973 34.2935 17.13 34.1836C17.2869 34.0737 17.4061 33.9182 17.4716 33.7382L22.4478 20.0537C22.4897 19.9385 22.5085 19.8162 22.5031 19.6938C22.4977 19.5713 22.4682 19.4511 22.4164 19.3401C22.3645 19.229 22.2913 19.1293 22.2009 19.0465C22.1105 18.9638 22.0047 18.8997 21.8895 18.8578Z" fill="white"/>
</svg>
