<svg width="28" height="28" viewBox="0 0 28 28" fill="none" xmlns="http://www.w3.org/2000/svg">
<g id="heroicons-mini/code-bracket">
<g id="Vector">
<path fill-rule="evenodd" clip-rule="evenodd" d="M8.79245 7.30751C9.2025 7.71756 9.2025 8.38239 8.79245 8.79244L3.58491 14L8.79245 19.2075C9.2025 19.6176 9.2025 20.2824 8.79245 20.6924C8.3824 21.1025 7.71758 21.1025 7.30753 20.6924L1.35753 14.7424C0.947475 14.3324 0.947475 13.6676 1.35753 13.2575L7.30753 7.30751C7.71758 6.89746 8.3824 6.89746 8.79245 7.30751ZM19.2075 7.30751C19.6176 6.89746 20.2824 6.89746 20.6925 7.30751L26.6425 13.2575C27.0525 13.6676 27.0525 14.3324 26.6425 14.7424L20.6925 20.6924C20.2824 21.1025 19.6176 21.1025 19.2075 20.6924C18.7975 20.2824 18.7975 19.6176 19.2075 19.2075L24.4151 14L19.2075 8.79244C18.7975 8.38239 18.7975 7.71756 19.2075 7.30751Z" fill="#0F172A"/>
<path fill-rule="evenodd" clip-rule="evenodd" d="M15.9284 2.81524C16.4999 2.91377 16.8833 3.45691 16.7847 4.02838L13.2847 24.3284C13.1862 24.8998 12.6431 25.2832 12.0716 25.1847C11.5001 25.0862 11.1167 24.543 11.2153 23.9716L14.7153 3.67157C14.8138 3.10011 15.3569 2.71671 15.9284 2.81524Z" fill="#0F172A"/>
</g>
</g>
</svg>
