<svg width="48" height="48" viewBox="0 0 48 48" fill="none" xmlns="http://www.w3.org/2000/svg">
<path d="M43.275 11.5127L25.1625 1.0877C24.8625 0.900195 24.45 0.825195 24 0.825195C23.55 0.825195 23.1375 0.937695 22.8375 1.0877L4.8375 11.5502C4.2 11.9252 3.75 12.8627 3.75 13.5752V34.4627C3.75 34.8752 3.825 35.3627 4.125 35.7752L44.175 12.5252C43.95 12.0752 43.6125 11.7377 43.275 11.5127Z" fill="#9B4F96"/>
<path d="M4.0127 35.7373C4.2002 36.0373 4.4627 36.2998 4.7252 36.4498L22.8002 46.9123C23.1002 47.0998 23.5127 47.1748 23.9627 47.1748C24.4127 47.1748 24.8252 47.0623 25.1252 46.9123L43.1252 36.4498C43.7627 36.0748 44.2127 35.1373 44.2127 34.4248V13.5373C44.2127 13.1998 44.1752 12.8248 43.9877 12.4873L4.0127 35.7373Z" fill="#68217A"/>
<path d="M31.9875 28.5375C30.4125 31.3125 27.4125 33.1875 24 33.1875C18.9375 33.1875 14.8125 29.0625 14.8125 24C14.8125 18.9375 18.9375 14.8125 24 14.8125C27.4125 14.8125 30.4125 16.6875 31.9875 19.5L36.8625 16.6875C34.3125 12.225 29.5125 9.1875 24 9.1875C15.825 9.1875 9.1875 15.825 9.1875 24C9.1875 32.175 15.825 38.8125 24 38.8125C29.475 38.8125 34.275 35.8125 36.825 31.3875L31.9875 28.5375ZM36.375 24.825L36.7125 23.2125H35.1375V21.45H37.05L37.5 19.125H39.3375L38.8875 21.4125H40.3125L40.7625 19.125H42.5625L42.1125 21.4125H43.0125V23.175H41.775L41.4375 24.7875H43.0125V26.55H41.1L40.65 28.8H38.8125L39.2625 26.55H37.8375L37.3875 28.8H35.5875L36.0375 26.55H35.1375V24.7875H36.375V24.825ZM38.175 24.825H39.6L39.9375 23.2125H38.5125L38.175 24.825Z" fill="white"/>
</svg>
