<svg width="48" height="48" viewBox="0 0 48 48" fill="none" xmlns="http://www.w3.org/2000/svg">
<path fill-rule="evenodd" clip-rule="evenodd" d="M27.6751 19.0498H31.9126V23.3623H34.0501C35.0251 23.3623 36.0376 23.1748 36.9751 22.8748C37.4251 22.7248 37.9501 22.4998 38.4001 22.2373C37.8001 21.4498 37.5001 20.4748 37.4251 19.4998C37.3126 18.1873 37.5751 16.4623 38.4751 15.4498L38.9251 14.9248L39.4501 15.3373C40.8001 16.4248 41.8876 17.8873 42.1126 19.6123C43.7251 19.1248 45.6001 19.2373 47.0251 20.0623L47.5876 20.3998L47.2876 20.9998C46.0876 23.3248 43.5751 24.0748 41.1376 23.9248C37.4626 33.0373 29.5126 37.3498 19.8376 37.3498C14.8501 37.3498 10.2751 35.4748 7.65007 31.0498L7.61257 30.9748L7.23757 30.1873C6.33757 28.2373 6.07507 26.0998 6.26257 23.9623L6.33757 23.3248H9.93757V19.0498H14.1751V14.8498H22.6126V10.6123H27.6751V19.0498Z" fill="#3A4D54"/>
<path d="M41.4002 20.6624C41.7002 18.4499 40.0502 16.7249 39.0002 15.8999C37.8377 17.2499 37.6502 20.8499 39.4877 22.3499C38.4377 23.2499 36.3002 24.1124 34.0502 24.1124H6.97523C6.75023 26.4374 7.16273 28.5749 8.10023 30.4124L8.40023 30.9749C8.58773 31.3124 8.81273 31.6124 9.03773 31.9499C10.1627 32.0249 11.1752 32.0624 12.1127 32.0249C13.9502 31.9874 15.4502 31.7624 16.6127 31.3874C16.8002 31.3124 16.9502 31.4249 17.0252 31.5749C17.1002 31.7624 16.9877 31.9124 16.8377 31.9874C16.6877 32.0249 16.5377 32.0999 16.3502 32.1374C15.4502 32.3999 14.4752 32.5499 13.2377 32.6249H13.0127C12.5252 32.6624 12.0002 32.6624 11.4377 32.6624C10.8377 32.6624 10.2752 32.6624 9.60023 32.6249C11.8502 35.1749 15.3752 36.6749 19.8002 36.6749C29.1752 36.6749 37.1252 32.5124 40.6127 23.2124C43.1252 23.4749 45.5252 22.8374 46.6127 20.6999C44.9252 19.6874 42.6752 20.0249 41.4002 20.6624Z" fill="#00AADA"/>
<path d="M41.4001 20.6624C41.7001 18.4499 40.0501 16.7249 39.0001 15.8999C37.8376 17.2499 37.6501 20.8499 39.4876 22.3499C38.4376 23.2499 36.3001 24.1124 34.0501 24.1124H8.55014C8.43764 27.6749 9.75014 30.3749 12.1126 31.9874C13.9501 31.9499 15.4501 31.7249 16.6126 31.3499C16.8001 31.2749 16.9501 31.3874 17.0251 31.5374C17.1001 31.7249 16.9876 31.8749 16.8376 31.9499C16.6876 31.9874 16.5376 32.0624 16.3501 32.0999C15.4501 32.3624 14.4001 32.5499 13.1626 32.6249L13.1251 32.5874C16.3126 34.2374 20.9251 34.1999 26.2501 32.1749C32.1751 29.8874 37.7251 25.5374 41.5876 20.5874C41.5126 20.6249 41.4376 20.6249 41.4001 20.6624Z" fill="#28B8EB"/>
<path d="M7.0127 26.9248C7.1627 28.1623 7.5377 29.3248 8.1002 30.4123L8.40019 30.9748C8.58769 31.3123 8.8127 31.6123 9.0377 31.9498C10.1627 32.0248 11.1752 32.0623 12.1127 32.0248C13.9502 31.9873 15.4502 31.7623 16.6127 31.3873C16.8002 31.3123 16.9502 31.4248 17.0252 31.5748C17.1002 31.7623 16.9877 31.9123 16.8377 31.9873C16.6877 32.0248 16.5377 32.0998 16.3502 32.1373C15.4502 32.3998 14.4002 32.5873 13.1627 32.6623H13.0127C12.5252 32.6998 12.0002 32.6998 11.4752 32.6998C10.8752 32.6998 10.2752 32.6998 9.6377 32.6623C11.8877 35.2123 15.4502 36.7123 19.8752 36.7123C27.9002 36.7123 34.8752 33.6748 38.9252 26.9623H7.0127V26.9248Z" fill="#028BB8"/>
<path d="M8.8125 26.9248C9.3 29.0998 10.425 30.8248 12.1125 31.9873C13.95 31.9498 15.45 31.7248 16.6125 31.3498C16.8 31.2748 16.95 31.3873 17.025 31.5373C17.1 31.7248 16.9875 31.8748 16.8375 31.9498C16.6875 31.9873 16.5375 32.0623 16.35 32.0998C15.45 32.3623 14.4 32.5498 13.125 32.6248C16.3125 34.2748 20.925 34.2373 26.2125 32.2123C29.4 30.9748 32.5125 29.1373 35.2875 26.9248H8.8125Z" fill="#019BC6"/>
<path fill-rule="evenodd" clip-rule="evenodd" d="M10.6499 19.7625H14.3249V23.4375H10.6499V19.7625ZM10.9499 20.0625H11.2499V23.1H10.9499V20.0625ZM11.4749 20.0625H11.7749V23.1H11.4749V20.0625ZM12.0374 20.0625H12.3374V23.1H12.0374V20.0625ZM12.5999 20.0625H12.8999V23.1H12.5999V20.0625ZM13.1624 20.0625H13.4624V23.1H13.1624V20.0625ZM13.7249 20.0625H14.0249V23.1H13.7249V20.0625ZM14.8499 15.5625H18.5249V19.2375H14.8499V15.5625ZM15.1874 15.8625H15.4874V18.9H15.1874V15.8625ZM15.7124 15.8625H16.0124V18.9H15.7124V15.8625ZM16.2749 15.8625H16.5749V18.9H16.2749V15.8625ZM16.8374 15.8625H17.1374V18.9H16.8374V15.8625ZM17.3624 15.8625H17.6624V18.9H17.3624V15.8625ZM17.9249 15.8625H18.2249V18.9H17.9249V15.8625Z" fill="#00ACD3"/>
<path fill-rule="evenodd" clip-rule="evenodd" d="M14.8501 19.7627H18.5251V23.4377H14.8501V19.7627ZM15.1876 20.0627H15.4876V23.1002H15.1876V20.0627ZM15.7126 20.0627H16.0126V23.1002H15.7126V20.0627ZM16.2751 20.0627H16.5751V23.1002H16.2751V20.0627ZM16.8376 20.0627H17.1376V23.1002H16.8376V20.0627ZM17.3626 20.0627H17.6626V23.1002H17.3626V20.0627ZM17.9251 20.0627H18.2251V23.1002H17.9251V20.0627Z" fill="#23C2EE"/>
<path fill-rule="evenodd" clip-rule="evenodd" d="M19.0874 19.7627H22.7624V23.4377H19.0874V19.7627ZM19.3874 20.0627H19.6874V23.1002H19.3874V20.0627ZM19.9499 20.0627H20.2499V23.1002H19.9499V20.0627ZM20.5124 20.0627H20.8124V23.1002H20.5124V20.0627ZM21.0374 20.0627H21.3374V23.1002H21.0374V20.0627ZM21.5999 20.0627H21.8999V23.1002H21.5999V20.0627ZM22.1624 20.0627H22.4624V23.1002H22.1624V20.0627Z" fill="#00ACD3"/>
<path fill-rule="evenodd" clip-rule="evenodd" d="M19.0874 15.5625H22.7624V19.2375H19.0874V15.5625ZM19.3874 15.8625H19.6874V18.9H19.3874V15.8625ZM19.9499 15.8625H20.2499V18.9H19.9499V15.8625ZM20.5124 15.8625H20.8124V18.9H20.5124V15.8625ZM21.0374 15.8625H21.3374V18.9H21.0374V15.8625ZM21.5999 15.8625H21.8999V18.9H21.5999V15.8625ZM22.1624 15.8625H22.4624V18.9H22.1624V15.8625ZM23.3249 19.7625H26.9999V23.4375H23.3249V19.7625ZM23.6249 20.0625H23.9249V23.1H23.6249V20.0625ZM24.1874 20.0625H24.4874V23.1H24.1874V20.0625ZM24.7124 20.0625H25.0124V23.1H24.7124V20.0625ZM25.2749 20.0625H25.5749V23.1H25.2749V20.0625ZM25.8374 20.0625H26.1374V23.1H25.8374V20.0625ZM26.3999 20.0625H26.6999V23.1H26.3999V20.0625Z" fill="#23C2EE"/>
<path fill-rule="evenodd" clip-rule="evenodd" d="M23.3252 15.5625H27.0002V19.2375H23.3252V15.5625ZM23.6252 15.8625H23.9252V18.9H23.6252V15.8625ZM24.1877 15.8625H24.4877V18.9H24.1877V15.8625ZM24.7127 15.8625H25.0127V18.9H24.7127V15.8625ZM25.2752 15.8625H25.5752V18.9H25.2752V15.8625ZM25.8377 15.8625H26.1377V18.9H25.8377V15.8625ZM26.4002 15.8625H26.7002V18.9H26.4002V15.8625Z" fill="#00ACD3"/>
<path fill-rule="evenodd" clip-rule="evenodd" d="M23.3252 11.3252H27.0002V15.0002H23.3252V11.3252ZM23.6252 11.6252H23.9252V14.6627H23.6252V11.6252ZM24.1877 11.6252H24.4877V14.6627H24.1877V11.6252ZM24.7127 11.6252H25.0127V14.6627H24.7127V11.6252ZM25.2752 11.6252H25.5752V14.6627H25.2752V11.6252ZM25.8377 11.6252H26.1377V14.6627H25.8377V11.6252ZM26.4002 11.6252H26.7002V14.6627H26.4002V11.6252Z" fill="#23C2EE"/>
<path fill-rule="evenodd" clip-rule="evenodd" d="M27.5625 19.7627H31.2375V23.4377H27.5625V19.7627ZM27.8625 20.0627H28.1625V23.1002H27.8625V20.0627ZM28.3875 20.0627H28.6875V23.1002H28.3875V20.0627ZM28.95 20.0627H29.25V23.1002H28.95V20.0627ZM29.5125 20.0627H29.8125V23.1002H29.5125V20.0627ZM30.075 20.0627H30.375V23.1002H30.075V20.0627ZM30.6375 20.0627H30.9375V23.1002H30.6375V20.0627Z" fill="#00ACD3"/>
<path fill-rule="evenodd" clip-rule="evenodd" d="M18.3001 29.3623C18.8626 29.3623 19.3126 29.8123 19.3126 30.3748C19.3126 30.9373 18.8626 31.3873 18.3001 31.3873C17.7376 31.3873 17.2876 30.9373 17.2876 30.3748C17.2876 29.8123 17.7376 29.3623 18.3001 29.3623Z" fill="#D4EEF1"/>
<path fill-rule="evenodd" clip-rule="evenodd" d="M18.3001 29.6626C18.3751 29.6626 18.4876 29.6626 18.5626 29.7001C18.4876 29.7376 18.4126 29.8501 18.4126 29.9626C18.4126 30.1126 18.5626 30.2626 18.7126 30.2626C18.8251 30.2626 18.9376 30.1876 18.9751 30.1126C19.0126 30.1876 19.0126 30.3001 19.0126 30.3751C19.0126 30.7876 18.6751 31.0876 18.3001 31.0876C17.8876 31.0876 17.5876 30.7501 17.5876 30.3751C17.5876 30.0001 17.8876 29.6626 18.3001 29.6626ZM0.412598 27.3001H47.4376C46.4251 27.0376 44.2126 26.7001 44.5501 25.3501C42.6751 27.4876 38.2126 26.8501 37.0501 25.8001C35.7751 27.6376 28.4251 26.9251 27.9376 25.5001C26.3626 27.3751 21.4501 27.3751 19.8751 25.5001C19.3501 26.9251 12.0001 27.6376 10.7626 25.8001C9.6376 26.8501 5.1376 27.4876 3.2626 25.3501C3.6751 26.6626 1.4251 27.0376 0.412598 27.3001Z" fill="#3A4D54"/>
<path d="M20.9999 36.6751C18.4874 35.4751 17.1374 33.8626 16.3499 32.1001C15.4124 32.3626 14.2874 32.5501 13.0124 32.6251C12.5249 32.6626 11.9999 32.6626 11.4749 32.6626C10.8374 32.6626 10.1999 32.6626 9.5249 32.6251C11.7749 34.8751 14.6249 36.6376 19.8374 36.6751H20.9999Z" fill="#BFDBE0"/>
<path d="M17.2877 33.7126C16.9502 33.2251 16.6127 32.6626 16.3502 32.1001C15.4127 32.3626 14.2877 32.5501 13.0127 32.6251C13.8752 33.0751 15.1502 33.5251 17.2877 33.7126Z" fill="#D4EEF1"/>
</svg>
