<svg width="48" height="48" viewBox="0 0 48 48" fill="none" xmlns="http://www.w3.org/2000/svg">
<path d="M36.75 0H11.25C5.0368 0 0 5.0368 0 11.25V36.75C0 42.9632 5.0368 48 11.25 48H36.75C42.9632 48 48 42.9632 48 36.75V11.25C48 5.0368 42.9632 0 36.75 0Z" fill="#512BD4"/>
<path d="M4.50975 31.6768C4.09037 31.6768 3.73394 31.5397 3.44044 31.2654C3.14681 30.9841 3 30.6499 3 30.2629C3 29.869 3.14681 29.5313 3.44044 29.2498C3.73394 28.9686 4.09037 28.8279 4.50975 28.8278C4.93613 28.8278 5.29612 28.9684 5.58975 29.2498C5.89025 29.5312 6.0405 29.8689 6.0405 30.2629C6.0405 30.6499 5.89025 30.9841 5.58975 31.2654C5.29612 31.5397 4.93613 31.6768 4.50975 31.6768ZM21.2751 31.4447H18.5492L11.3672 20.3226C11.1882 20.0463 11.0372 19.7528 10.9164 19.4466H10.8534C10.9093 19.7703 10.9373 20.4633 10.9373 21.5254V31.4447H8.52581V16.3125H11.43L18.3709 27.171C18.6645 27.6213 18.8533 27.9308 18.9371 28.0997H18.9789C18.9091 27.6987 18.8741 27.0197 18.8741 26.0629V16.3125H21.2751V31.4447ZM33.0184 31.4447H24.5783V16.3125H32.6829V18.4442H27.0737V22.7284H32.2427V24.8494H27.0737V29.3237H33.0184V31.4447ZM45.0133 18.4442H40.6937V31.4447H38.1982V18.4442H33.8891V16.3125H45.0133V18.4442Z" fill="white"/>
</svg>
