<svg width="48" height="48" viewBox="0 0 48 48" fill="none" xmlns="http://www.w3.org/2000/svg">
<path d="M15.1988 29.1824V19.0274H15.7501V20.6249C15.8148 20.5538 15.8749 20.4787 15.9301 20.3999C16.1553 19.9323 16.5092 19.5387 16.9502 19.265C17.3912 18.9914 17.9011 18.8491 18.4201 18.8549C19.6763 18.8174 20.6963 19.2824 21.2963 20.3999C21.6781 21.0941 21.8882 21.8696 21.9091 22.6616C21.9299 23.4536 21.761 24.2391 21.4163 24.9524C20.8576 26.2049 19.4776 26.8274 18.0001 26.5987C17.5403 26.5595 17.0976 26.4058 16.7125 26.1517C16.3273 25.8975 16.0119 25.551 15.7951 25.1437V29.1824H15.1988ZM15.7501 22.6199C15.7988 23.1149 15.8176 23.4674 15.8738 23.8124C16.0913 25.1699 16.8938 25.9762 18.1538 26.1224C18.7455 26.2197 19.3525 26.1087 19.8715 25.8086C20.3905 25.5084 20.7894 25.0375 21.0001 24.4762C21.2422 23.8988 21.3587 23.2765 21.3419 22.6507C21.3251 22.0248 21.1754 21.4097 20.9026 20.8462C20.6777 20.3431 20.2951 19.9268 19.8128 19.6603C19.3304 19.3937 18.7745 19.2914 18.2288 19.3687C17.7165 19.4058 17.2285 19.6016 16.8327 19.9289C16.4368 20.2562 16.1528 20.6987 16.0201 21.1949C15.9023 21.6642 15.8121 22.1401 15.7501 22.6199ZM33.1538 23.9999C33.0703 24.7149 32.7299 25.3752 32.1961 25.8581C31.6622 26.3409 30.9711 26.6134 30.2513 26.6249C27.9413 26.7412 26.8576 25.2074 26.6851 23.4374C26.5649 22.4762 26.721 21.5007 27.1351 20.6249C27.4232 20.0241 27.8949 19.5306 28.4821 19.2158C29.0693 18.9009 29.7415 18.7811 30.4013 18.8737C31.0286 18.9268 31.6233 19.176 32.1011 19.5859C32.579 19.9957 32.9158 20.5455 33.0638 21.1574C33.1813 21.7147 33.2676 22.2781 33.3226 22.8449H27.2513C27.1388 24.4499 28.0013 25.7399 29.2238 26.0512C30.7463 26.4262 32.0476 25.7662 32.5201 24.3187C32.6251 23.9474 32.8163 23.8949 33.1538 23.9999ZM27.2513 22.3312H32.6776C32.6438 20.6212 31.5788 19.3837 30.1351 19.3649C28.5001 19.3387 27.3226 20.5312 27.2513 22.3312ZM34.2713 24.0374H34.8038C34.8235 24.4292 34.9508 24.8081 35.1718 25.1322C35.3927 25.4564 35.6988 25.7134 36.0563 25.8749C36.5053 26.077 36.994 26.1751 37.4861 26.1621C37.9783 26.1492 38.4612 26.0253 38.8988 25.7999C39.1373 25.6924 39.3371 25.5143 39.4712 25.2897C39.6054 25.065 39.6673 24.8046 39.6488 24.5437C39.6625 24.292 39.5938 24.0427 39.4531 23.8336C39.3123 23.6244 39.1072 23.4669 38.8688 23.3849C38.2838 23.1674 37.6613 23.0474 37.0651 22.8562C36.4446 22.6798 35.8379 22.458 35.2501 22.1924C34.2901 21.7237 34.2301 19.8974 35.3176 19.3199C35.8744 19.0057 36.5011 18.8359 37.1404 18.8261C37.7797 18.8163 38.4113 18.9667 38.9776 19.2637C39.3206 19.4532 39.5977 19.7429 39.7719 20.0939C39.9461 20.445 40.0091 20.8409 39.9526 21.2287H39.4951C39.4951 21.2062 39.4538 21.1874 39.4538 21.1649C39.3976 19.7062 38.1751 19.2562 36.8626 19.3837C36.4708 19.4322 36.0903 19.5476 35.7376 19.7249C35.5257 19.8218 35.3492 19.9821 35.2323 20.1836C35.1154 20.3851 35.064 20.6179 35.0851 20.8499C35.0857 21.082 35.1582 21.3082 35.2924 21.4976C35.4267 21.6869 35.6162 21.8301 35.8351 21.9074C36.4126 22.1174 37.0163 22.2524 37.6088 22.4174C38.0851 22.5487 38.5801 22.6349 39.0413 22.7924C39.3669 22.8991 39.6524 23.1022 39.8599 23.3748C40.0675 23.6473 40.1874 23.9765 40.2038 24.3187C40.2595 24.6936 40.1956 25.0766 40.0213 25.4132C39.8469 25.7497 39.571 26.0228 39.2326 26.1937C37.9801 26.9024 35.9176 26.7149 34.9988 25.8187C34.766 25.5845 34.5818 25.3065 34.4569 25.0008C34.3321 24.6951 34.269 24.3677 34.2713 24.0374ZM46.9538 21.2287H46.4551C46.4551 21.1612 46.4288 21.1012 46.4213 21.0449C46.4132 20.6711 46.2769 20.3113 46.0353 20.026C45.7936 19.7406 45.4612 19.547 45.0938 19.4774C44.4006 19.2785 43.661 19.3141 42.9901 19.5787C42.7249 19.6547 42.4914 19.8145 42.3244 20.0341C42.1575 20.2538 42.0661 20.5215 42.0638 20.7974C42.0545 21.0684 42.139 21.3342 42.3029 21.5501C42.4669 21.766 42.7003 21.9187 42.9638 21.9824C43.7138 22.2149 44.4826 22.3574 45.2438 22.5674C45.4905 22.6266 45.7334 22.7005 45.9713 22.7887C46.3265 22.9158 46.6352 23.147 46.8569 23.4523C47.0785 23.7576 47.203 24.1226 47.2139 24.4997C47.2249 24.8768 47.1218 25.2485 46.9182 25.5661C46.7145 25.8837 46.4198 26.1325 46.0726 26.2799C45.5434 26.5202 44.9698 26.6474 44.3886 26.6532C43.8075 26.659 43.2315 26.5433 42.6976 26.3137C42.2585 26.1243 41.888 25.805 41.6359 25.3987C41.3839 24.9924 41.2623 24.5186 41.2876 24.0412H41.7751C41.8653 24.4763 42.0602 24.8828 42.3429 25.2257C42.6256 25.5685 42.9876 25.8372 43.3976 26.0086C43.8076 26.18 44.2531 26.2488 44.6957 26.2092C45.1383 26.1696 45.5646 26.0227 45.9376 25.7812C46.1648 25.6631 46.3534 25.4824 46.481 25.2604C46.6086 25.0384 46.6699 24.7844 46.6576 24.5287C46.6689 24.2768 46.5977 24.0282 46.4549 23.8204C46.3122 23.6126 46.1055 23.4571 45.8663 23.3774C45.2813 23.1599 44.6588 23.0437 44.0626 22.8524C43.4386 22.6785 42.8283 22.4592 42.2363 22.1962C41.2988 21.7349 41.2238 19.9237 42.2926 19.3462C42.8563 19.0188 43.4953 18.8429 44.1471 18.8357C44.799 18.8284 45.4417 18.9901 46.0126 19.3049C46.3391 19.4998 46.6019 19.7854 46.769 20.127C46.9361 20.4685 47.0003 20.8513 46.9538 21.2287ZM14.2876 26.4412C14.0912 26.5155 13.8745 26.5154 13.6782 26.4407C13.482 26.3661 13.3199 26.2222 13.2226 26.0362C12.6113 25.1212 11.9363 24.2474 11.2876 23.3549L11.0063 22.9799C10.2338 24.0149 9.46133 25.0087 8.75633 26.0399C8.66447 26.2177 8.51113 26.356 8.32486 26.4292C8.1386 26.5023 7.9321 26.5052 7.74383 26.4374L10.6426 22.5487L7.94633 19.0349C8.14041 18.9648 8.35274 18.9639 8.54745 19.0322C8.74216 19.1005 8.90733 19.2339 9.01508 19.4099C9.64133 20.3249 10.3351 21.1987 11.0251 22.1249C11.7188 21.2062 12.4051 20.3287 13.0463 19.4212C13.1387 19.2463 13.2921 19.1114 13.4774 19.0423C13.6627 18.9731 13.867 18.9745 14.0513 19.0462L13.0051 20.4337C12.5363 21.0524 12.0751 21.6749 11.5876 22.2787C11.5483 22.3138 11.5169 22.3569 11.4954 22.405C11.4738 22.4532 11.4627 22.5053 11.4627 22.558C11.4627 22.6108 11.4738 22.6629 11.4954 22.711C11.5169 22.7592 11.5483 22.8022 11.5876 22.8374C12.4838 24.0262 13.3726 25.2187 14.2876 26.4412ZM26.5951 18.9974V19.5224C26.2158 19.4975 25.8355 19.5525 25.4788 19.6837C25.122 19.8148 24.7968 20.0194 24.524 20.284C24.2512 20.5487 24.0369 20.8677 23.895 21.2203C23.7531 21.5729 23.6867 21.9513 23.7001 22.3312V26.4562H23.1638V19.0274H23.6888V20.5499C24.3376 19.4399 25.3388 19.0274 26.5951 18.9974ZM0.798828 22.4999C0.877578 22.1249 0.926328 21.7162 1.03508 21.3337C1.68383 19.0274 4.32758 18.0674 6.14633 19.4962C7.21133 20.3324 7.47758 21.5174 7.42508 22.8524H1.42508C1.32758 25.2374 3.04883 26.6774 5.25008 25.9424C5.60715 25.8147 5.9268 25.6001 6.18017 25.3179C6.43353 25.0357 6.61264 24.6949 6.70133 24.3262C6.81758 23.9512 7.00508 23.8874 7.36133 23.9962C7.30265 24.4527 7.14123 24.89 6.88922 25.2751C6.63721 25.6603 6.30115 25.9833 5.90633 26.2199C5.25398 26.5767 4.50553 26.718 3.76802 26.6237C3.0305 26.5294 2.34169 26.2043 1.80008 25.6949C1.26426 25.0925 0.94028 24.3312 0.877578 23.5274C0.877578 23.3999 0.828828 23.2724 0.802578 23.1524C0.800078 22.9299 0.798828 22.7124 0.798828 22.4999ZM1.43258 22.3387H6.85883C6.82508 20.6099 5.73383 19.3837 4.27883 19.3724C2.65883 19.3499 1.50008 20.5499 1.42883 22.3312L1.43258 22.3387Z" fill="black"/>
</svg>
