<svg width="48" height="48" viewBox="0 0 48 48" fill="none" xmlns="http://www.w3.org/2000/svg">
<path d="M41.0899 20.59L35.5839 17.424L35.5859 10.824L41.0919 13.988L41.0899 20.59ZM41.0879 27.77L35.5839 24.604V18.3L41.0899 21.464L41.0879 27.77ZM41.1399 35.03L35.5679 31.83L35.5699 25.524L41.1419 28.726L41.1399 35.03ZM26.8359 22.018L34.8319 17.422V11.12L26.8379 15.716L26.8359 22.018ZM21.8859 31.984L34.7999 24.562V18.256L21.8859 25.68V31.984ZM13.1999 44.27L34.8459 31.828V25.524L13.2019 37.964L13.1999 44.27ZM19.1799 48L13.6399 44.814L35.2079 32.412L40.7479 35.598L19.1799 48ZM6.90991 27.556L12.4159 30.72L12.4139 37.44L6.90791 34.276L6.90991 27.556ZM6.91191 20.376L12.4159 23.54V29.846L6.90791 26.68L6.91191 20.376ZM6.85991 13.152L12.4319 16.356L12.4299 22.662L6.85791 19.458L6.85991 13.152ZM21.1619 26.124L13.1679 30.72V37.024L21.1619 32.428V26.124ZM26.1139 16.158L13.1979 23.58V29.886L26.1119 22.462L26.1139 16.158ZM34.8299 3.854L13.1539 16.314V22.618L34.8299 10.158V3.854ZM29.0679 0L34.6079 3.186L12.7919 15.73L7.25191 12.544L29.0679 0Z" fill="black"/>
</svg>
