<svg width="48" height="48" viewBox="0 0 48 48" fill="none" xmlns="http://www.w3.org/2000/svg">
<path d="M10.0507 0C15.6015 0 20.1015 4.4985 20.1015 10.0481C20.1015 15.5025 15.7536 19.9387 10.3341 20.0893C10.3341 20.5507 10.3545 21.4226 10.6155 21.9493C10.9779 22.6793 13.1514 24.0388 15.2828 24.0388H16.0485C16.5298 20.613 19.4717 17.9766 23.031 17.9766C26.5759 17.9766 29.5091 20.5914 30.0081 23.9972H33.9699C34.4689 20.5914 37.4019 17.9766 40.9468 17.9766C44.8421 17.9766 48 21.1335 48 25.0279C48 28.9222 44.8421 32.079 40.9468 32.079C37.4019 32.079 34.4687 29.4637 33.9699 26.0584H30.0083C29.5095 29.4637 26.5761 32.079 23.031 32.079C19.4929 32.079 16.5634 29.4741 16.0562 26.0777L15.2096 26.103C13.8156 26.0925 12.3428 25.7201 11.16 24.9165C10.8375 24.6973 10.5197 24.4671 10.1884 24.249V24.7067C10.1865 24.8548 10.1597 27.0799 10.1576 29.5504V30.0735C10.1586 31.6937 10.1713 33.3632 10.2096 34.581C10.2932 37.2521 12.4659 39.4082 14.8637 39.9128C15.1755 39.9784 15.7112 39.9866 16.0489 39.9574C16.5309 36.5329 19.4726 33.8974 23.031 33.8974C26.9261 33.8974 30.084 37.0545 30.084 40.9487C30.084 44.8431 26.9261 48 23.031 48C19.5118 48 16.5954 45.423 16.0648 42.0536H15.4547C10.8729 41.8035 8.02444 37.6012 8.07413 34.1931C8.13675 29.9036 8.0895 25.6123 8.08894 21.3219V19.9035C3.47738 18.9911 0 14.9261 0 10.0483C0 4.4985 4.49981 0 10.0507 0ZM23.031 35.9587C20.2746 35.9587 18.0397 38.1928 18.0397 40.9487C18.0397 43.7046 20.2746 45.9388 23.031 45.9388C25.7874 45.9388 28.0222 43.7048 28.0222 40.9487C28.0222 38.1928 25.7876 35.9587 23.031 35.9587ZM23.031 20.0376C20.2746 20.0376 18.0397 22.2716 18.0397 25.0277C18.0397 27.7834 20.2746 30.0176 23.031 30.0176C25.7874 30.0176 28.0222 27.7834 28.0222 25.0277C28.0222 22.2716 25.7876 20.0376 23.031 20.0376ZM40.9468 20.0376C38.1902 20.0376 35.9556 22.2716 35.9556 25.0277C35.9556 27.7834 38.1902 30.0176 40.9468 30.0176C43.7034 30.0176 45.9382 27.7834 45.9382 25.0277C45.9382 22.2716 43.7036 20.0376 40.947 20.0376M43.7897 22.9266C43.9779 23.1143 44.0863 23.3675 44.0923 23.6332C44.0982 23.899 44.0012 24.1568 43.8216 24.3527L43.7916 24.3842L40.7334 27.4489C40.5466 27.636 40.295 27.7442 40.0306 27.7511C39.7662 27.7581 39.5093 27.6631 39.3129 27.486L39.2807 27.4554L37.7835 25.9817C37.6871 25.8867 37.6103 25.7737 37.5575 25.6491C37.5047 25.5244 37.477 25.3906 37.476 25.2553C37.4749 25.12 37.5006 24.9857 37.5514 24.8603C37.6022 24.7349 37.6773 24.6207 37.7722 24.5243C37.9588 24.3349 38.2113 24.2249 38.477 24.2172C38.7427 24.2095 39.0012 24.3047 39.1984 24.483L39.2299 24.513L39.9971 25.2681L42.3319 22.9286C42.525 22.7352 42.787 22.6263 43.0604 22.6259C43.3338 22.6256 43.5961 22.7336 43.7897 22.9266ZM25.7916 22.9118C25.9797 23.0995 26.0881 23.3527 26.0941 23.6184C26.1 23.8842 26.003 24.1419 25.8234 24.3379L25.7934 24.3694L22.7353 27.4339C22.5485 27.621 22.2968 27.7292 22.0325 27.7361C21.7681 27.7431 21.5112 27.6481 21.3148 27.471L21.2826 27.4404L19.7854 25.9667C19.5956 25.777 19.4873 25.5208 19.4834 25.2525C19.4795 24.9842 19.5804 24.7249 19.7646 24.5298C19.9488 24.3347 20.2018 24.2192 20.4699 24.2076C20.738 24.1961 21 24.2896 21.2003 24.4682L21.2318 24.4982L21.9992 25.2533L24.3337 22.9136C24.5269 22.7202 24.7889 22.6113 25.0623 22.6109C25.3356 22.6106 25.5979 22.7188 25.7916 22.9118ZM10.0507 2.06119C5.6385 2.06119 2.06175 5.63681 2.06175 10.0483C2.06175 14.4592 5.6385 18.0353 10.0507 18.0353C14.463 18.0353 18.0397 14.4592 18.0397 10.0483C18.0397 5.637 14.463 2.06119 10.0507 2.06119ZM9.21956 5.27437C10.8995 6.28376 12.5579 7.32842 14.1937 8.40769C15.564 9.31144 15.5606 10.9508 14.175 11.8566C12.5114 12.945 10.8197 13.9899 9.10163 14.9901C7.70381 15.8038 6.13913 14.8682 6.10125 13.2381C6.07688 12.1877 6.09675 11.1362 6.09525 10.0849C6.09412 9.06225 6.07406 8.03906 6.09881 7.01681C6.14044 5.28281 7.73681 4.37944 9.21937 5.27437M8.11125 6.93787V7.66313L8.11106 8.727L8.11088 9.42263V10.4505C8.11088 11.2436 8.11125 12.0244 8.11275 12.8049C8.11331 13.1724 8.30456 13.1574 8.55206 13.0043C9.97806 12.1204 11.4048 11.2374 12.8321 10.3554C13.068 10.2099 13.0747 10.0579 12.8434 9.912C11.3145 8.94844 9.78375 7.98825 8.11125 6.93787Z" fill="#4A7EBF"/>
<path d="M24.9802 41.9776C25.1156 41.9776 25.2496 41.9509 25.3747 41.8992C25.4998 41.8474 25.6134 41.7714 25.7092 41.6757C25.8049 41.58 25.8809 41.4664 25.9327 41.3413C25.9845 41.2162 26.0112 41.0822 26.0112 40.9468C26.0112 40.8114 25.9845 40.6774 25.9327 40.5523C25.8809 40.4272 25.805 40.3136 25.7093 40.2178C25.6136 40.1221 25.5 40.0462 25.3749 39.9943C25.2498 39.9425 25.1158 39.9158 24.9804 39.9158C24.707 39.9158 24.4448 40.0244 24.2515 40.2177C24.0582 40.4111 23.9496 40.6732 23.9496 40.9466C23.9496 41.22 24.0582 41.4822 24.2515 41.6755C24.4448 41.8688 24.707 41.9774 24.9804 41.9774M21.0337 41.9776C21.3071 41.9776 21.5693 41.869 21.7626 41.6756C21.956 41.4823 22.0646 41.2201 22.0646 40.9467C22.0646 40.6733 21.956 40.4111 21.7626 40.2178C21.5693 40.0244 21.3071 39.9158 21.0337 39.9158C20.7603 39.9158 20.4981 40.0244 20.3048 40.2177C20.1115 40.4111 20.0029 40.6732 20.0029 40.9466C20.0029 41.22 20.1115 41.4822 20.3048 41.6755C20.4981 41.8688 20.7603 41.9774 21.0337 41.9774M40.9471 45.9389C38.1905 45.9389 35.9559 43.7048 35.9559 40.9488C35.9559 38.1929 38.1905 35.9587 40.9471 35.9587C43.7036 35.9587 45.9384 38.1929 45.9384 40.9488C45.9384 43.7046 43.7036 45.9389 40.9471 45.9389ZM40.9471 33.8976C37.4023 33.8976 34.469 36.5127 33.9701 39.9183H32.8164C32.313 39.9183 31.9044 40.3797 31.9044 40.9488C31.9044 41.5178 32.313 41.9795 32.8164 41.9795H33.9701C34.4688 45.385 37.4023 48.0001 40.947 48.0001C44.8425 48.0001 48.0001 44.843 48.0001 40.9488C48.0001 37.0544 44.8423 33.8975 40.9471 33.8975" fill="#85B3DF"/>
</svg>
