<svg width="48" height="17" viewBox="0 0 48 17" fill="none" xmlns="http://www.w3.org/2000/svg">
<path d="M7.03097 0.882184H10.2609V11.6559C10.2847 12.5645 10.0548 13.4617 9.597 14.2469C9.15185 14.9773 8.50829 15.5662 7.74131 15.9449C6.88379 16.3598 5.94005 16.5651 4.98769 16.5442C4.11844 16.5564 3.25624 16.3868 2.45644 16.0462C1.72275 15.7318 1.0989 15.2067 0.663937 14.5374C0.221312 13.8636 0 13.0137 0 11.9879H3.25153C3.26156 12.6004 3.43903 13.0784 3.78431 13.417C3.96639 13.59 4.18157 13.7242 4.41692 13.8118C4.65226 13.8994 4.90289 13.9384 5.15372 13.9266C6.39522 13.9266 7.02097 13.1697 7.03097 11.6559V0.882184ZM17.4279 16.5591C16.2561 16.5591 15.2442 16.309 14.3922 15.8088C13.5454 15.315 12.8598 14.5863 12.4187 13.7108C11.939 12.7395 11.701 11.6667 11.7249 10.5837C11.7001 9.49582 11.9381 8.41798 12.4187 7.44168C12.8604 6.56667 13.5457 5.83808 14.3921 5.34375C15.3181 4.825 16.3669 4.56579 17.4279 4.59347C18.4895 4.56595 19.5388 4.82514 20.4654 5.34375C21.3116 5.8379 21.9965 6.56658 22.4373 7.44168C22.9185 8.41784 23.157 9.49568 23.1327 10.5837C23.1562 11.6669 22.9176 12.7397 22.4373 13.7108C21.9969 14.5863 21.3119 15.315 20.4654 15.8088C19.6123 16.31 18.5998 16.5601 17.4279 16.5591ZM21.1027 0.882184V2.625H13.7548V0.882184H21.1027ZM17.4512 14.0693C17.8055 14.0838 18.1573 14.0035 18.4701 13.8366C18.783 13.6697 19.0457 13.4223 19.231 13.12L19.2588 13.0734C19.6682 12.4096 19.8728 11.5725 19.8728 10.5622C19.8728 9.58559 19.68 8.76928 19.2944 8.11322L19.2537 8.0459C19.0721 7.73069 18.8076 7.47122 18.489 7.29566C18.1703 7.1201 17.8097 7.03514 17.4462 7.05C17.0891 7.03484 16.7345 7.11484 16.4185 7.28183C16.1025 7.44882 15.8366 7.69679 15.6479 8.00034L15.6204 8.0459C15.2077 8.70984 15.0013 9.54859 15.0013 10.5622C15.0013 11.5419 15.1942 12.3568 15.5798 13.0068L15.6204 13.0734C15.8008 13.3811 16.0594 13.6354 16.37 13.8106C16.6806 13.9858 17.032 14.0756 17.3886 14.0708L17.4512 14.0693ZM30.9221 4.74459V7.15959H28.7412V12.7796C28.7412 13.2223 28.8419 13.5211 29.0433 13.676C29.2565 13.8298 29.5129 13.9122 29.7758 13.9113L29.8283 13.91C29.9798 13.9102 30.131 13.8963 30.2798 13.8685L30.6267 13.8054L31.1247 16.1972L31.0008 16.2333C30.853 16.2749 30.6705 16.3221 30.4458 16.3732C30.1348 16.4398 29.8188 16.4802 29.5011 16.4938L29.3819 16.4976C28.2145 16.5496 27.2778 16.2974 26.5718 15.7408C25.8818 15.1968 25.5338 14.3739 25.5277 13.272L25.5278 7.1595H23.9427V4.7445H25.5278V1.96762H28.7412V4.7445L30.9221 4.74459ZM35.8518 16.5524C34.7453 16.5524 33.8274 16.263 33.0982 15.6843C32.3689 15.1055 32.0043 14.243 32.0044 13.0968C32.0044 12.2325 32.208 11.5536 32.6152 11.0602C33.0377 10.5559 33.5932 10.1804 34.2186 9.97622C34.9085 9.74201 35.624 9.59155 36.3498 9.52809C37.0753 9.47055 37.7961 9.36466 38.5075 9.21112C38.9413 9.1005 39.1576 8.85925 39.1565 8.48737V8.44096C39.1808 8.02284 39.0163 7.61597 38.7083 7.33218C38.4074 7.07218 37.9836 6.94162 37.4369 6.9405C36.9481 6.91499 36.4641 7.04707 36.056 7.31728C35.7277 7.55031 35.4883 7.88799 35.3771 8.27493L32.4044 8.03428C32.6026 7.01276 33.1946 6.11016 34.0525 5.52131C34.9312 4.90387 36.0643 4.59459 37.4519 4.59347C38.2741 4.58706 39.0909 4.72529 39.8652 5.00184C40.5778 5.24684 41.2071 5.68741 41.6811 6.27318C42.1414 6.84975 42.3715 7.59778 42.3715 8.51728V16.3333H39.3241V14.7266H39.2345C38.9429 15.274 38.5051 15.7297 37.9698 16.0429C37.4087 16.3826 36.7027 16.5524 35.8518 16.5524ZM36.7714 14.3332C37.4073 14.3579 38.0285 14.1382 38.5075 13.7192C38.7177 13.5359 38.8867 13.3103 39.0037 13.0572C39.1207 12.8041 39.183 12.5292 39.1865 12.2504L39.1864 10.9622C39.0055 11.0693 38.8081 11.1456 38.6021 11.1879C38.3226 11.2561 38.0401 11.3114 37.7556 11.3539L37.4665 11.3983C37.2813 11.4275 37.1105 11.4551 36.9523 11.4784C36.4682 11.5311 36.0026 11.694 35.5913 11.9547C35.4234 12.0676 35.2877 12.2221 35.1972 12.403C35.1068 12.5839 35.0647 12.7852 35.0751 12.9872C35.065 13.1799 35.1034 13.3721 35.187 13.5461C35.2705 13.7201 35.3964 13.8703 35.5531 13.983C35.8927 14.2114 36.2925 14.3337 36.7018 14.3342L36.7714 14.3332ZM46.3142 3.25087L46.2572 3.25068C45.8022 3.25816 45.3625 3.08581 45.0338 2.77106C44.871 2.62724 44.7409 2.4501 44.6524 2.25164C44.5639 2.05318 44.5191 1.83803 44.521 1.62075C44.5191 1.40397 44.564 1.18934 44.6525 0.991437C44.7409 0.793539 44.871 0.617024 45.0338 0.473902C45.7298 -0.157316 46.7911 -0.157316 47.4871 0.473902C47.6499 0.617024 47.78 0.793539 47.8685 0.991437C47.957 1.18934 48.0018 1.40397 47.9999 1.62075C48.0017 1.82914 47.9606 2.03567 47.879 2.22746C47.7974 2.41924 47.6772 2.59216 47.5259 2.73543L47.4871 2.77106C47.1707 3.0732 46.7517 3.24458 46.3143 3.25087M44.6489 16.3333V4.74459H47.8623V16.3333H44.6489Z" fill="black"/>
</svg>
