<svg width="48" height="48" viewBox="0 0 48 48" fill="none" xmlns="http://www.w3.org/2000/svg">
<path d="M0.527832 0.527832H47.4718V47.4722H0.527832V0.527832Z" fill="#F0DB4F"/>
<path d="M43.6301 36.2758C43.2862 34.1342 41.8897 32.3353 37.7531 30.658C36.3161 29.9976 34.7141 29.5247 34.2367 28.4357C34.0672 27.802 34.0447 27.445 34.152 27.0613C34.4598 25.8163 35.946 25.4282 37.1238 25.7852C37.8825 26.0395 38.6006 26.6241 39.0337 27.5567C41.0595 26.245 41.0553 26.2536 42.4698 25.3521C41.952 24.5492 41.6756 24.1787 41.3366 23.8352C40.1182 22.4743 38.4581 21.7735 35.8031 21.8271L34.4201 22.006C33.0948 22.3408 31.8318 23.0365 31.0912 23.9691C28.869 26.4906 29.5027 30.9036 32.2068 32.7197C34.8708 34.7192 38.7843 35.1741 39.2842 37.0438C39.7706 39.3328 37.602 40.0738 35.4465 39.8106C33.858 39.4802 32.9745 38.6728 32.0193 37.2047C30.2613 38.2221 30.2613 38.2221 28.4538 39.2616C28.8825 40.1987 29.3328 40.6228 30.0513 41.4347C33.4518 44.884 41.9613 44.7145 43.4876 39.4937C43.5495 39.3145 43.9605 38.119 43.6301 36.2758ZM26.0482 22.1035H21.6573L21.6393 33.4555C21.6393 35.8697 21.7642 38.083 21.3716 38.7613C20.7292 40.0956 19.0646 39.9302 18.306 39.6715C17.5338 39.292 17.1412 38.7523 16.6863 37.9896C16.5615 37.7706 16.4677 37.6011 16.4362 37.588L12.8662 39.7742C13.4598 40.9926 14.3343 42.0501 15.4545 42.7371C17.1277 43.7413 19.3766 44.0492 21.7286 43.5092C23.2593 43.0633 24.5801 42.1397 25.2716 40.7338C26.2713 38.8907 26.0568 36.6598 26.0478 34.1923C26.0703 30.1667 26.0482 26.1418 26.0482 22.1035Z" fill="#323330"/>
</svg>
