<svg width="48" height="48" viewBox="0 0 48 48" fill="none" xmlns="http://www.w3.org/2000/svg">
<path d="M16.5 31.5L10.5 28.2V21.45L16.5 18.15L22.5 21.45V28.2L16.5 31.5ZM13.5 26.4L16.5 28.05L19.5 26.4V23.1L16.5 21.45L13.5 23.1V26.4ZM9 45L3 41.7V34.95L9 31.5L15 34.8V41.55L9 45ZM6 39.9L9 41.55L12 39.9V36.6L9 34.95L6 36.6V39.9ZM24 45L18 41.7V34.95L24 31.65L30 34.95V41.7L24 45ZM21 39.9L24 41.55L27 39.9V36.6L24 34.95L21 36.6V39.9ZM39 45L33 41.7V34.95L39 31.65L45 34.95V41.7L39 45ZM36 39.9L39 41.55L42 39.9V36.6L39 34.95L36 36.6V39.9ZM36.9 17.4L33 21.3V14.1L37.5 11.55V4.8L31.5 1.5L25.5 4.8V11.55L30 14.1V21.15L26.1 17.25L24 19.5L31.5 27L39 19.5L36.9 17.4ZM28.5 6.6L31.5 4.95L34.5 6.6V9.9L31.5 11.55L28.5 9.9V6.6Z" fill="black"/>
</svg>
