<svg width="48" height="48" viewBox="0 0 48 48" fill="none" xmlns="http://www.w3.org/2000/svg">
<path fill-rule="evenodd" clip-rule="evenodd" d="M33.0142 16.0547C33.6161 17.7958 34.0496 19.5733 34.1921 21.4157C34.3691 23.7013 34.2881 25.9708 33.8062 28.2189C33.7931 28.2808 33.7653 28.3389 33.7447 28.3989C33.5936 28.3993 33.4394 28.3806 33.2917 28.4034C32.0433 28.5996 30.7961 28.8028 29.5488 29.0049C28.2596 29.2138 26.9684 29.4144 25.6814 29.6376C25.2254 29.7163 24.6611 29.6222 24.4769 30.2529C24.4717 30.2702 24.4192 30.2732 24.3888 30.2829L24.4511 26.5138L24.3877 17.4193L24.9884 17.3162C25.9709 17.1553 26.9534 16.9922 27.9367 16.8358C29.1101 16.6494 30.2846 16.4683 31.4587 16.2864C31.9766 16.2058 32.4952 16.1319 33.0142 16.0547Z" fill="#439934"/>
<path fill-rule="evenodd" clip-rule="evenodd" d="M23.1485 41.2704C22.5148 40.7255 21.8589 40.2047 21.2514 39.6317C17.9825 36.5484 15.5915 32.9195 14.414 28.5444C14.0897 27.3403 13.8733 26.1167 13.8039 24.8724C13.7552 24.0016 13.6847 23.123 13.7462 22.2568C13.91 19.9528 14.243 17.6709 14.9188 15.4517L14.9559 15.3999C15.0215 15.4873 15.116 15.5645 15.1494 15.6632C15.8089 17.6057 16.4642 19.5495 17.1152 21.4948C19.1619 27.6073 21.206 33.7213 23.2562 39.8323C23.2963 39.9515 23.4002 40.0494 23.4748 40.157L23.1485 41.2704Z" fill="#45A538"/>
<path fill-rule="evenodd" clip-rule="evenodd" d="M33.0144 16.0545C32.4954 16.1318 31.9764 16.2056 31.4585 16.2855C30.2844 16.4674 29.1099 16.6485 27.9365 16.8349C26.9533 16.9913 25.9708 17.1544 24.9883 17.3153L24.3875 17.4184L24.383 17.0265C24.3631 16.7044 24.329 16.3826 24.3252 16.0605C24.2994 14.0063 24.2832 11.952 24.2577 9.89775C24.242 8.61188 24.2184 7.32638 24.1921 6.04088C24.176 5.24213 24.1588 4.443 24.1228 3.64538C24.1033 3.21675 24.0342 2.79038 24.0061 2.36175C23.9904 2.11538 24.0121 1.86713 24.017 1.61963C24.3234 2.21325 24.623 2.81138 24.938 3.4005C25.4356 4.332 26.2284 5.01825 26.942 5.76713C29.7631 8.72663 31.766 12.1676 33.0144 16.0545Z" fill="#46A037"/>
<path fill-rule="evenodd" clip-rule="evenodd" d="M24.3885 30.2822C24.4189 30.2724 24.4718 30.2694 24.4767 30.2522C24.6608 29.6214 25.2252 29.7155 25.6812 29.6368C26.9682 29.414 28.2593 29.213 29.5485 29.0042C30.7958 28.802 32.043 28.5988 33.2914 28.4027C33.4392 28.3794 33.5933 28.3985 33.7444 28.3982C33.5112 29.2307 33.3274 30.0812 33.0315 30.8908C32.6955 31.8092 32.289 32.7054 31.8574 33.584C31.2117 34.8948 30.4119 36.1238 29.475 37.2452C28.7554 38.1107 27.9533 38.9105 27.1493 39.7007C26.7049 40.1375 26.181 40.4934 25.6935 40.886L25.5672 40.7998L25.1119 40.4105L24.6409 39.3782C24.3192 38.1739 24.1437 36.9352 24.1182 35.6889L24.1268 35.4785L24.1909 34.5688C24.2123 34.2583 24.2408 33.9482 24.2539 33.6369C24.3023 32.5187 24.3443 31.4004 24.3885 30.2822Z" fill="#409433"/>
<path fill-rule="evenodd" clip-rule="evenodd" d="M24.3884 30.2824C24.3441 31.4006 24.3021 32.5189 24.2545 33.6375C24.2414 33.9487 24.2129 34.2589 24.1915 34.5694L23.9046 34.6777C23.2675 32.802 22.63 30.9461 22.0064 29.0854C20.9751 26.007 19.9562 22.9237 18.9265 19.8446C18.0948 17.3593 17.2573 14.8759 16.414 12.3945C16.3746 12.2782 16.2614 12.1875 16.1826 12.0847L18.0186 8.70898C18.0816 8.81848 18.1649 8.92086 18.2046 9.03861C19.0549 11.5519 19.9009 14.0667 20.7426 16.5829C21.8361 19.8566 22.9229 23.133 24.0156 26.4071C24.0591 26.538 24.1311 26.6587 24.1997 26.8054L24.451 26.5129L24.3884 30.2824Z" fill="#4FAA41"/>
<path fill-rule="evenodd" clip-rule="evenodd" d="M16.1831 12.085C16.2618 12.1877 16.3747 12.2785 16.4144 12.3947C17.2577 14.8761 18.0952 17.3595 18.9269 19.8448C19.9567 22.924 20.9756 26.0072 22.0068 29.0856C22.6301 30.946 23.2676 32.8022 23.9051 34.678L24.1919 34.5696L24.1278 35.4793L24.0697 35.689C23.9699 36.685 23.8859 37.6832 23.7644 38.677C23.7033 39.175 23.5736 39.664 23.4749 40.1571C23.4007 40.0495 23.2964 39.9516 23.2563 39.8323C21.2062 33.721 19.1621 27.6073 17.1153 21.4948C16.4642 19.5496 15.8089 17.6057 15.1496 15.6632C15.1162 15.5646 15.0221 15.4873 14.9561 15.4L16.1831 12.085Z" fill="#4AA73C"/>
<path fill-rule="evenodd" clip-rule="evenodd" d="M24.4509 26.5134L24.1997 26.8059C24.1311 26.6593 24.0591 26.5382 24.0156 26.4077C22.9232 23.1335 21.8361 19.8572 20.7426 16.5834C19.9009 14.0672 19.0549 11.5524 18.2046 9.03916C18.1652 8.92141 18.0819 8.81866 18.0186 8.70953L20.2892 5.72266C20.3608 5.81828 20.4628 5.90341 20.4999 6.01103C21.1299 7.85653 21.7553 9.70378 22.3761 11.5528C22.9562 13.2793 23.5277 15.0084 24.1146 16.7327C24.1539 16.8482 24.2908 16.9299 24.3823 17.0274L24.3868 17.4193C24.4086 20.4503 24.4299 23.4817 24.4509 26.5134Z" fill="#57AE47"/>
<path fill-rule="evenodd" clip-rule="evenodd" d="M24.3827 17.0264C24.2912 16.9289 24.1543 16.8471 24.1149 16.7316C23.5281 15.0074 22.9566 13.2783 22.3764 11.5518C21.7557 9.70302 21.1303 7.85577 20.5003 6.01002C20.4632 5.9024 20.3612 5.81727 20.2896 5.72164C21.0279 4.99865 21.7434 4.24977 22.5114 3.56014C23.1943 2.94739 23.7433 2.29039 23.7684 1.32214C23.7696 1.28202 23.7906 1.24189 23.8228 1.12939L24.0174 1.61914C24.0126 1.86702 23.9904 2.11489 24.0066 2.36127C24.0347 2.78989 24.1037 3.21627 24.1232 3.64489C24.1592 4.44252 24.1764 5.24164 24.1926 6.04039C24.2184 7.32589 24.2421 8.6114 24.2582 9.89727C24.2833 11.9515 24.2998 14.0058 24.3257 16.06C24.3287 16.3829 24.3624 16.7043 24.3827 17.0264Z" fill="#60B24F"/>
<path fill-rule="evenodd" clip-rule="evenodd" d="M23.4742 40.1569C23.5728 39.6638 23.7026 39.1744 23.7637 38.6768C23.8856 37.6834 23.9692 36.6848 24.0689 35.6888L24.0937 35.6851L24.1184 35.6892C24.144 36.9355 24.3195 38.1741 24.6412 39.3784C24.5752 39.4654 24.4818 39.5431 24.4469 39.6413C24.1743 40.4101 23.9174 41.1848 23.6433 41.9536C23.6058 42.0586 23.5016 42.1403 23.4281 42.2326L23.1479 41.2703L23.4742 40.1569Z" fill="#A9AA88"/>
<path fill-rule="evenodd" clip-rule="evenodd" d="M23.4287 42.233C23.5022 42.1408 23.6068 42.059 23.644 41.954C23.9181 41.1853 24.1753 40.4109 24.4476 39.6418C24.4825 39.5435 24.5755 39.4659 24.6418 39.3789L25.1125 40.4117C25.0195 40.5437 24.8912 40.6625 24.8395 40.8095L23.938 43.4567C23.9008 43.5628 23.7741 43.6378 23.6893 43.7274L23.4287 42.233Z" fill="#B6B598"/>
<path fill-rule="evenodd" clip-rule="evenodd" d="M23.689 43.7269C23.7741 43.6376 23.9005 43.5623 23.9376 43.4561L24.8391 40.809C24.8905 40.6624 25.0191 40.5431 25.1121 40.4111L25.5677 40.8C25.3476 41.0175 25.2253 41.2688 25.2988 41.5864L25.1605 42.0394C25.0975 42.117 25.0063 42.1845 24.9752 42.2734C24.6606 43.1745 24.3602 44.0805 24.0433 44.9816C24.0032 45.096 23.8918 45.1856 23.8131 45.2861C23.7721 44.7664 23.7307 44.2466 23.689 43.7269Z" fill="#C2C1A7"/>
<path fill-rule="evenodd" clip-rule="evenodd" d="M23.8135 45.2863C23.8919 45.1854 24.0033 45.0958 24.0438 44.9818C24.3607 44.081 24.661 43.175 24.9757 42.2735C25.0068 42.185 25.0975 42.1172 25.1609 42.0396L24.97 44.1189C24.919 44.1778 24.8452 44.2292 24.8208 44.2978C24.6052 44.903 24.4019 45.5128 24.1855 46.1181C24.1409 46.2429 24.0554 46.3532 23.9887 46.4698C23.9294 46.3922 23.8233 46.3172 23.8184 46.2362C23.7993 45.9208 23.8124 45.6032 23.8135 45.2863Z" fill="#CECDB7"/>
<path fill-rule="evenodd" clip-rule="evenodd" d="M23.9883 46.4695C24.055 46.3525 24.1405 46.2423 24.1852 46.1178C24.4019 45.5129 24.6048 44.9032 24.8204 44.2975C24.8448 44.2289 24.919 44.1779 24.9697 44.1187L24.9742 45.4837L24.5174 46.6552L23.9883 46.4695Z" fill="#DBDAC7"/>
<path fill-rule="evenodd" clip-rule="evenodd" d="M24.5176 46.6554L24.9743 45.4839L25.0685 46.8699L24.5176 46.6554Z" fill="#EBE9DC"/>
<path fill-rule="evenodd" clip-rule="evenodd" d="M25.2988 41.5867C25.2253 41.269 25.3472 41.0174 25.5677 40.8003L25.694 40.8865L25.2988 41.5867Z" fill="#CECDB7"/>
<path fill-rule="evenodd" clip-rule="evenodd" d="M24.1183 35.6895L24.0936 35.6854L24.0688 35.6891L24.127 35.4795L24.1183 35.6895Z" fill="#4FAA41"/>
</svg>
