<svg width="48" height="48" viewBox="0 0 48 48" fill="none" xmlns="http://www.w3.org/2000/svg">
<g clip-path="url(#clip0_483_922)">
<path d="M23.974 28.2759L17.71 38.1219L7.324 21.2679L7.3 38.9119H0V9.08789H7.382L17.876 26.7539L17.886 18.7579L23.974 28.2759ZM25.176 16.7539C25.224 16.6579 25.176 9.18589 25.192 9.08789H17.892C17.896 9.20589 17.882 16.6399 17.886 16.7539H25.176ZM36.444 25.0219C35.5919 25.0055 34.7557 25.2537 34.0504 25.7322C33.3452 26.2107 32.8056 26.896 32.506 27.6939C33.0024 26.9512 33.7372 26.3999 34.5892 26.1312C35.4412 25.8625 36.3593 25.8924 37.192 26.2159C37.984 26.5379 39.026 27.0599 39.852 26.7819C39.4645 26.239 38.9533 25.7962 38.3606 25.4901C37.768 25.1841 37.111 25.0236 36.444 25.0219ZM43.224 27.1439C42.474 26.8839 41.624 26.5899 41.006 25.7819C40.886 25.6219 40.774 25.4419 40.654 25.2519C40.3862 24.7582 40.024 24.3219 39.588 23.9679C39 23.5359 38.228 23.3239 37.228 23.3239C36.245 23.3241 35.2843 23.6162 34.4675 24.1631C33.6507 24.71 33.0147 25.4871 32.64 26.3959C33.115 25.7347 33.7552 25.2098 34.4967 24.8736C35.2382 24.5375 36.055 24.4019 36.8653 24.4805C37.6756 24.5591 38.4512 24.849 39.1143 25.3213C39.7774 25.7936 40.3049 26.4317 40.644 27.1719C40.8129 27.4492 41.0671 27.6642 41.3686 27.7847C41.6701 27.9051 42.0026 27.9245 42.316 27.8399C43.302 27.6299 43.236 28.5599 44.722 28.8759V28.6099C44.716 27.7179 44.232 27.5099 43.224 27.1439ZM47.272 29.6759C47.49 29.5433 47.669 29.3555 47.7908 29.1314C47.9127 28.9072 47.9732 28.6549 47.966 28.3999C47.946 22.4859 43.146 17.4259 37.226 17.4259C35.4464 17.4244 33.6945 17.8657 32.1279 18.7099C30.5613 19.5541 29.2294 20.7747 28.252 22.2619C28.232 22.2099 25.208 17.4819 25.176 17.4259H17.886L24.812 28.2719L18.054 38.9119H25.134L28.214 34.1799L31.35 38.9119H38.432L32.012 28.8079C31.9057 28.611 31.8481 28.3916 31.844 28.1679C31.8437 27.4612 31.9827 26.7614 32.253 26.1084C32.5232 25.4555 32.9195 24.8622 33.4191 24.3624C33.9187 23.8626 34.5118 23.4661 35.1647 23.1956C35.8176 22.9251 36.5173 22.7859 37.224 22.7859H37.226C40.202 22.7859 40.698 24.5659 41.34 25.4019C42.608 27.0539 45.14 26.3299 45.14 28.4839C45.1445 28.731 45.2138 28.9725 45.3407 29.1845C45.4677 29.3965 45.648 29.5715 45.8637 29.6921C46.0794 29.8127 46.3229 29.8746 46.57 29.8718C46.8171 29.869 47.0591 29.8014 47.272 29.6759ZM47.972 29.9419C47.626 30.6859 46.852 30.6179 46.462 31.2199C46.11 31.7619 46.69 32.0439 46.69 32.0439C46.69 32.0439 47.364 32.3559 47.766 31.4219C47.974 30.9599 48.046 30.4459 47.972 29.9419Z" fill="black"/>
</g>
<defs>
<clipPath id="clip0_483_922">
<rect width="48" height="48" fill="white"/>
</clipPath>
</defs>
</svg>
