<svg width="28" height="28" viewBox="0 0 28 28" fill="none" xmlns="http://www.w3.org/2000/svg">
<g id="heroicons-outline/film">
<path id="Vector" d="M3.9375 22.75H24.0625M3.9375 22.75C3.21263 22.75 2.625 22.1624 2.625 21.4375M3.9375 22.75H5.6875C6.41237 22.75 7 22.1624 7 21.4375M2.625 21.4375V6.5625M2.625 21.4375V19.6875C2.625 18.9626 3.21263 18.375 3.9375 18.375M25.375 21.4375V6.5625M25.375 21.4375C25.375 22.1624 24.7874 22.75 24.0625 22.75M25.375 21.4375V19.6875C25.375 18.9626 24.7874 18.375 24.0625 18.375M24.0625 22.75H22.3125C21.5876 22.75 21 22.1624 21 21.4375M24.0625 5.25H3.9375M24.0625 5.25C24.7874 5.25 25.375 5.83763 25.375 6.5625M24.0625 5.25H22.3125C21.5876 5.25 21 5.83763 21 6.5625M25.375 6.5625V8.3125C25.375 9.03737 24.7874 9.625 24.0625 9.625M3.9375 5.25C3.21263 5.25 2.625 5.83763 2.625 6.5625M3.9375 5.25H5.6875C6.41237 5.25 7 5.83763 7 6.5625M2.625 6.5625V8.3125C2.625 9.03737 3.21263 9.625 3.9375 9.625M3.9375 9.625H5.6875M3.9375 9.625C3.21263 9.625 2.625 10.2126 2.625 10.9375V12.6875C2.625 13.4124 3.21263 14 3.9375 14M5.6875 9.625C6.41237 9.625 7 9.03737 7 8.3125V6.5625M5.6875 9.625C6.41237 9.625 7 10.2126 7 10.9375V12.6875M7 6.5625V12.6875M7 6.5625C7 5.83763 7.58763 5.25 8.3125 5.25H19.6875C20.4124 5.25 21 5.83763 21 6.5625M22.3125 9.625H24.0625M22.3125 9.625C21.5876 9.625 21 9.03737 21 8.3125V6.5625M22.3125 9.625C21.5876 9.625 21 10.2126 21 10.9375V12.6875M24.0625 9.625C24.7874 9.625 25.375 10.2126 25.375 10.9375V12.6875C25.375 13.4124 24.7874 14 24.0625 14M21 6.5625V12.6875M8.3125 14H19.6875M8.3125 14C7.58763 14 7 13.4124 7 12.6875M8.3125 14C7.58763 14 7 14.5876 7 15.3125M7 12.6875C7 13.4124 6.41237 14 5.6875 14M21 12.6875C21 13.4124 20.4124 14 19.6875 14M21 12.6875C21 13.4124 21.5876 14 22.3125 14M19.6875 14C20.4124 14 21 14.5876 21 15.3125M7 21.4375V15.3125M7 21.4375C7 22.1624 7.58763 22.75 8.3125 22.75H19.6875C20.4124 22.75 21 22.1624 21 21.4375M7 21.4375V19.6875C7 18.9626 6.41237 18.375 5.6875 18.375M21 21.4375V15.3125M21 21.4375V19.6875C21 18.9626 21.5876 18.375 22.3125 18.375M21 15.3125V17.0625C21 17.7874 21.5876 18.375 22.3125 18.375M21 15.3125C21 14.5876 21.5876 14 22.3125 14M7 15.3125V17.0625C7 17.7874 6.41237 18.375 5.6875 18.375M7 15.3125C7 14.5876 6.41237 14 5.6875 14M3.9375 14H5.6875M3.9375 14C3.21263 14 2.625 14.5876 2.625 15.3125V17.0625C2.625 17.7874 3.21263 18.375 3.9375 18.375M22.3125 14H24.0625M24.0625 14C24.7874 14 25.375 14.5876 25.375 15.3125V17.0625C25.375 17.7874 24.7874 18.375 24.0625 18.375M3.9375 18.375H5.6875M22.3125 18.375H24.0625" stroke="#0F172A" stroke-width="1.5" stroke-linecap="round" stroke-linejoin="round"/>
</g>
</svg>
