<svg width="48" height="48" viewBox="0 0 48 48" fill="none" xmlns="http://www.w3.org/2000/svg">
<path d="M32.5428 16.9531L27.2417 18.6841L22.6301 20.7195L21.3399 21.06C21.0112 21.3726 20.6668 21.6892 20.2941 22.0098C19.8854 22.3624 19.5047 22.6828 19.2124 22.9152C18.8877 23.1717 18.4069 23.6525 18.1626 23.9569C17.7979 24.4136 17.5095 24.8986 17.3853 25.2712C17.1649 25.9444 17.273 26.6255 17.6978 27.2545C18.2427 28.0559 19.3285 28.8732 20.5947 29.4301C21.2397 29.7146 22.3255 30.0793 23.143 30.2835C24.5011 30.6281 27.1297 31.0009 28.5759 31.0569C28.8684 31.0691 29.2611 31.0691 29.2771 31.0569C29.3092 31.0368 29.5336 30.6082 29.794 30.0753C30.6836 28.2603 31.3247 26.5573 31.6734 25.103C31.8816 24.2216 32.0458 23.0475 32.1539 21.6571C32.1821 21.2685 32.1941 19.9663 32.1702 19.5255C32.1338 18.8044 32.0697 18.2193 31.9697 17.6464C31.9536 17.5622 31.9496 17.4861 31.9577 17.482C31.9737 17.47 32.0218 17.4542 32.6749 17.2657L32.5428 16.9531ZM31.3328 17.6624C31.3807 17.6624 31.509 18.8923 31.541 19.6696C31.5491 19.834 31.5451 19.9422 31.537 19.9422C31.5049 19.9422 30.8599 19.5616 30.3992 19.2732C29.9984 19.0208 29.2371 18.5158 29.117 18.4196C29.0768 18.3916 29.0809 18.3876 29.4094 18.2755C29.9663 18.087 31.2888 17.6624 31.3328 17.6624ZM28.6321 18.552C28.6683 18.552 28.7604 18.6039 28.9808 18.7401C29.806 19.257 30.9281 19.8821 31.4089 20.0905C31.5571 20.1547 31.5731 20.1305 31.2323 20.3629C30.5033 20.8597 29.5937 21.3486 28.4799 21.8414C28.3596 21.8964 28.238 21.9485 28.1152 21.9976C28.1073 21.9976 28.1315 21.8976 28.1633 21.7772C28.4318 20.7795 28.584 19.7701 28.5922 18.9605C28.5962 18.5599 28.5962 18.5599 28.6321 18.5479C28.624 18.552 28.6281 18.552 28.6321 18.552ZM28.0752 18.7643C28.0992 18.7882 28.0834 19.6856 28.0511 19.9302C27.9796 20.5209 27.8563 21.1041 27.6825 21.6731C27.6385 21.8213 27.5983 21.9457 27.5904 21.9536C27.5742 21.9735 27.0254 21.4367 26.8452 21.2283C26.5326 20.8678 26.2883 20.5072 26.1079 20.1547C26.0157 19.9742 25.8716 19.6217 25.8836 19.6097C25.9477 19.5655 28.0592 18.7482 28.0752 18.7643ZM25.4548 19.794C25.4588 19.794 25.4629 19.794 25.4669 19.7981C25.4749 19.806 25.5029 19.8701 25.527 19.9422C25.6551 20.2908 25.9437 20.8037 26.1921 21.1323C26.4644 21.4929 26.8212 21.8775 27.1175 22.1298C27.2137 22.2099 27.3018 22.286 27.3138 22.2982C27.3381 22.3222 27.3461 22.3181 26.6928 22.5665C25.9358 22.8551 25.1101 23.1435 24.1646 23.4481C23.9387 23.521 23.713 23.5944 23.4876 23.6685C23.4514 23.6805 23.4634 23.6604 23.5677 23.496C24.0365 22.763 24.7495 21.3245 25.1503 20.3069C25.2185 20.1303 25.2865 19.9541 25.2985 19.9142C25.3147 19.8579 25.3346 19.8381 25.3868 19.8098C25.4148 19.8019 25.4428 19.794 25.4548 19.794ZM24.6535 20.1265C24.6657 20.1346 24.4611 20.5632 24.2608 20.9559C23.8722 21.7131 23.4474 22.4585 22.8785 23.3639C22.7823 23.5202 22.6902 23.6645 22.6782 23.6805C22.6581 23.7085 22.6502 23.7006 22.5861 23.5764C22.4499 23.3079 22.3376 22.9633 22.2776 22.6469C22.2173 22.3343 22.2295 21.7892 22.2975 21.4527C22.3496 21.2043 22.3456 21.2084 22.4659 21.1483C22.9786 20.8877 24.6373 20.1104 24.6535 20.1265ZM31.5652 20.4069V20.5754C31.5652 21.4688 31.469 22.6948 31.3287 23.5884C31.3046 23.7446 31.2845 23.8727 31.2806 23.8768C31.2806 23.8768 31.1644 23.8449 31.0282 23.8047C30.3897 23.6018 29.7724 23.3374 29.185 23.0152C28.7963 22.8032 28.2315 22.4545 28.2474 22.4385C28.2514 22.4344 28.4199 22.3463 28.6161 22.242C29.4015 21.8335 30.1547 21.3927 30.808 20.9559C31.0521 20.7915 31.4209 20.5273 31.501 20.455L31.5652 20.4069ZM21.6283 21.593C21.6444 21.593 21.6405 21.625 21.6162 21.7693C21.5961 21.9116 21.5815 22.0546 21.5723 22.198C21.5403 22.7829 21.6365 23.2158 21.9248 23.8086C22.005 23.973 22.0691 24.1091 22.0651 24.113C22.0371 24.1374 19.3847 24.9146 18.5512 25.143C18.3028 25.211 18.0865 25.2712 18.0702 25.2751C18.0424 25.2832 18.0384 25.2791 18.0503 25.211C18.1425 24.622 18.5912 23.8528 19.2163 23.2038C19.6329 22.7709 19.9656 22.5184 20.5344 22.1939C20.9432 21.9615 21.5723 21.6131 21.6202 21.597C21.6202 21.593 21.6243 21.593 21.6283 21.593ZM27.879 22.7108C27.8831 22.7068 27.9791 22.7589 28.0951 22.8271C28.9526 23.3239 30.1468 23.7846 31.1644 24.0211L31.2565 24.0412L31.1282 24.1132C30.5955 24.4095 28.8444 25.1389 27.0536 25.808C26.793 25.9042 26.5367 26.0004 26.4884 26.0203C26.4405 26.0404 26.3962 26.0524 26.3962 26.0485C26.3962 26.0445 26.4685 25.9042 26.5606 25.7319C27.0615 24.7943 27.5662 23.6525 27.8228 22.8592C27.8548 22.7829 27.8747 22.7149 27.879 22.7108ZM27.2417 22.9192C27.2458 22.9233 27.2137 23.0073 27.1737 23.1035C26.8251 23.949 26.3682 24.8706 25.7835 25.9042C25.6352 26.1687 25.511 26.3812 25.5069 26.3812C25.5029 26.3812 25.3827 26.3089 25.2384 26.2208C24.3889 25.6999 23.6357 25.0587 23.143 24.4377L23.0707 24.3496L23.4354 24.2494C24.7416 23.8928 25.8513 23.5082 26.9533 23.0355C27.1096 22.9714 27.2379 22.9192 27.2417 22.9192ZM31.2005 24.3013C31.2045 24.3937 31.0002 25.2191 30.8319 25.816C30.6917 26.3168 30.5713 26.7095 30.3509 27.4026C30.2549 27.7072 30.1707 27.9597 30.1666 27.9597C30.1626 27.9597 30.1386 27.9557 30.1147 27.9475C28.9246 27.7312 27.8589 27.4308 26.8573 27.0302C26.5767 26.918 26.176 26.7375 26.1519 26.7177C26.144 26.7095 26.3845 26.5973 26.6889 26.4652C28.512 25.6676 30.4031 24.7622 31.0523 24.3736C31.1282 24.3255 31.1883 24.3013 31.2005 24.3013ZM22.061 24.6141C22.0691 24.6222 21.5604 25.3553 20.847 26.353C20.5986 26.7016 20.3102 27.1102 20.202 27.2626C20.0768 27.439 19.9552 27.618 19.8373 27.7994L19.6689 28.0598L19.4886 27.9076C19.2764 27.7312 18.9078 27.3547 18.7436 27.1465C18.399 26.7177 18.1666 26.2649 18.0745 25.8523C18.0302 25.6599 18.0302 25.5637 18.0704 25.5517C18.1305 25.5355 19.2002 25.2832 20.202 25.0508C20.6806 24.9406 21.1586 24.8285 21.6363 24.7143C21.8688 24.6581 22.0572 24.6141 22.061 24.6141ZM22.5739 24.8103L22.7021 24.9546C23.2791 25.5998 23.8681 26.0765 24.5815 26.4932C24.7095 26.5654 24.8057 26.6294 24.7976 26.6334C24.7696 26.6537 22.3216 27.523 21.1875 27.9157C20.7998 28.053 20.4112 28.1878 20.0218 28.3202C20.0177 28.3202 19.9816 28.2962 19.9414 28.2682L19.8694 28.216L19.9857 28.0478C20.3621 27.5029 20.835 26.906 21.865 25.6637L22.5739 24.8103ZM25.7714 27.0982C25.7754 27.0941 25.9516 27.1583 26.1679 27.2384C26.6889 27.4349 27.1015 27.5591 27.6545 27.6991C28.3356 27.8716 29.3214 28.0399 29.9024 28.088C29.9905 28.0959 30.0384 28.104 30.0226 28.116C29.9943 28.132 29.4056 28.3283 28.9727 28.4647C28.2835 28.6808 26.1801 29.302 24.4652 29.7948C24.1486 29.8869 23.8762 29.9632 23.8602 29.9671C23.8202 29.9752 23.6877 29.9389 23.6877 29.923C23.6877 29.9149 23.7841 29.7907 23.9002 29.6545C24.4771 28.9653 25.0501 28.1961 25.527 27.4667C25.6591 27.2664 25.7714 27.1022 25.7714 27.0982ZM25.0661 27.1185C25.0702 27.1223 24.7856 27.5792 24.2888 28.3644C24.0765 28.6968 23.8401 29.0735 23.7559 29.2058C23.6757 29.3339 23.5556 29.5344 23.4876 29.6464L23.3713 29.8508L23.3112 29.8348C23.1671 29.7948 22.1532 29.4382 21.8849 29.33C21.5665 29.2033 21.2549 29.0601 20.9513 28.9012C20.6306 28.7289 20.23 28.4726 20.2621 28.4644C20.2702 28.4604 20.819 28.3122 21.48 28.132C23.2351 27.6551 24.2086 27.3787 24.8457 27.1784C24.962 27.1422 25.0621 27.1144 25.0661 27.1185ZM30.0546 28.2883H30.0587C30.0745 28.3283 29.4255 30.1313 29.189 30.7003C29.1371 30.8284 29.117 30.8607 29.089 30.8566C29.0208 30.8526 28.0793 30.7202 27.5062 30.6362C26.5087 30.484 24.8337 30.1913 24.4132 30.0954L24.317 30.0751L24.9137 29.9391C26.1961 29.6505 26.8131 29.4942 27.4382 29.3018C28.2453 29.0548 29.0339 28.7509 29.7981 28.3924C29.9223 28.3362 30.0264 28.2921 30.0546 28.2883Z" fill="url(#paint0_linear_477_813)"/>
<path d="M27.0774 4.5964C26.9893 4.58442 25.5669 5.09728 24.6493 5.46989C23.4113 5.97483 22.4497 6.45562 21.8567 6.87228C21.6363 7.02855 21.3597 7.30497 21.3159 7.41314C21.2996 7.45676 21.2913 7.50296 21.2915 7.54952L21.8287 8.05832L23.1067 8.46706L26.1479 9.01198L29.6256 9.60886L29.6618 9.30849C29.6496 9.30849 29.6417 9.30443 29.6297 9.30443L29.1731 9.23218L29.0807 9.06799C28.6079 8.23468 28.0871 7.20085 27.7827 6.50372C27.5462 5.96286 27.322 5.33777 27.1976 4.88905C27.1296 4.61649 27.1214 4.60046 27.0776 4.5966L27.0774 4.5964ZM27.0133 4.80077H27.0173C27.0214 4.80483 27.0374 4.91706 27.0535 5.04918C27.1214 5.61033 27.2457 6.1512 27.4421 6.7361C27.5903 7.17691 27.5903 7.15276 27.418 7.1006C27.0094 6.98857 25.1782 6.67197 23.8521 6.48769C23.6396 6.45968 23.4594 6.43167 23.4594 6.42761C23.4432 6.41158 24.4169 5.90279 24.8456 5.70247C25.3945 5.45 26.901 4.82086 27.0131 4.80077H27.0133ZM23.1507 6.59586L23.307 6.64782C24.1566 6.93641 26.292 7.34515 27.4701 7.44135C27.6022 7.45332 27.7145 7.4653 27.7183 7.4653C27.7224 7.46936 27.6104 7.52943 27.4661 7.59762C26.8972 7.88196 26.2721 8.23062 25.8392 8.49913C25.7111 8.57909 25.5949 8.64322 25.5788 8.64322C25.5628 8.64322 25.4788 8.62719 25.3907 8.61521L25.2304 8.59126L24.8297 8.19856C24.3424 7.72406 23.8522 7.25253 23.3592 6.784L23.1507 6.59586ZM22.9904 6.72007L23.5554 7.42532C23.8639 7.81397 24.1764 8.1945 24.2446 8.27872C24.3128 8.36274 24.3688 8.43093 24.365 8.43499C24.3487 8.44697 23.5475 8.2907 23.1229 8.1945C22.686 8.09444 22.5058 8.04634 22.2373 7.96212L22.0168 7.89007V7.83385C22.0209 7.56535 22.3615 7.16473 22.9384 6.75619L22.9904 6.72007ZM27.7906 7.68164C27.8068 7.68164 27.8267 7.71777 27.8748 7.82574C28.0108 8.12631 28.4358 8.93587 28.5399 9.09215C28.5719 9.1441 28.6279 9.14816 28.0629 9.05602C26.7048 8.83562 26.268 8.76357 26.268 8.75565C26.268 8.75159 26.308 8.72339 26.3602 8.69538C26.7809 8.463 27.2057 8.16649 27.5823 7.84989C27.6745 7.77378 27.7585 7.70173 27.7745 7.68956C27.7786 7.68164 27.7865 7.67758 27.7906 7.68164Z" fill="url(#paint1_linear_477_813)"/>
<path d="M21.3439 7.35693C21.3439 7.35693 21.2558 7.49738 21.3399 7.70581C21.3922 7.83387 21.5444 7.99014 21.7165 8.15047C21.7165 8.15047 23.4996 9.88934 23.716 10.1378C24.7015 11.2757 25.1304 12.3976 25.1703 13.9443C25.1945 14.9379 25.0059 15.8114 24.5373 16.8252C23.704 18.6442 21.9451 20.6516 19.2324 22.8792L19.6292 22.7472C19.8855 22.5546 20.234 22.3505 21.0515 21.9015C22.9387 20.8679 25.0622 19.9183 27.6666 18.9405C31.4169 17.5302 37.5834 15.8794 41.0932 15.3426L41.4577 15.2864L41.4017 15.1983C41.081 14.7015 40.8608 14.393 40.5962 14.0644C39.827 13.1108 38.8934 12.3375 37.7516 11.6964C36.1808 10.8191 34.1492 10.1337 31.5771 9.6249C31.0924 9.5287 30.0265 9.34442 29.1611 9.2123C27.7166 8.99007 26.2742 8.75498 24.8338 8.50705C24.365 8.42689 23.6638 8.30674 23.1991 8.20669C22.9586 8.15453 22.4979 8.04636 22.1372 7.92215C21.8489 7.80992 21.4322 7.69748 21.3439 7.35693ZM22.3777 8.3589C22.3818 8.35484 22.4457 8.37879 22.53 8.407C22.6822 8.45895 22.8786 8.51903 23.111 8.58316C23.2869 8.63153 23.4632 8.67828 23.6399 8.7234C23.8804 8.78347 24.0807 8.83969 24.0845 8.83969C24.1128 8.86769 24.5174 10.1617 24.6536 10.6585C24.7056 10.8471 24.7458 11.0072 24.7417 11.0072C24.7376 11.0113 24.6936 10.9431 24.6416 10.8509C24.1728 10.0255 23.4315 9.18815 22.574 8.51497C22.462 8.435 22.3777 8.36296 22.3777 8.3589ZM24.349 8.90382C24.3693 8.90382 24.4574 8.91579 24.5653 8.93974C25.2466 9.09195 26.4686 9.32453 27.25 9.45665C27.3821 9.47675 27.4864 9.5007 27.4864 9.50881C27.4864 9.51693 27.4383 9.54474 27.378 9.5768C27.2461 9.64499 26.713 9.96139 26.5368 10.0817C26.0919 10.378 25.6913 10.6987 25.4029 10.9873C25.3314 11.0587 25.2592 11.1295 25.1864 11.1996C25.1864 11.1996 25.1624 11.1314 25.1423 11.0474C24.9982 10.4903 24.6977 9.66488 24.4251 9.08404C24.3811 8.9919 24.3449 8.90767 24.3449 8.89976C24.3449 8.90788 24.3449 8.90382 24.349 8.90382ZM27.8188 9.56483C27.843 9.57294 27.883 9.70892 27.9629 10.0095C28.1133 10.6091 28.1782 11.227 28.1555 11.8448C28.1474 12.013 28.1393 12.1693 28.1314 12.1894L28.1192 12.2294L27.911 12.1612C27.4823 12.0252 26.7852 11.8206 26.1881 11.6524C25.8476 11.5602 25.5712 11.476 25.5712 11.4681C25.5712 11.4439 26.068 10.9471 26.2803 10.7588C26.6849 10.4022 27.7827 9.55285 27.8188 9.56483ZM28.0952 9.60481C28.1074 9.59283 29.7542 9.87737 30.5035 10.0217C31.0603 10.1298 31.8697 10.2981 31.9178 10.318C31.9418 10.3261 31.8577 10.3742 31.589 10.4945C30.5315 10.9713 29.7462 11.3997 28.9649 11.9209C28.7605 12.0568 28.5882 12.1693 28.5842 12.1693C28.5801 12.1693 28.576 12.053 28.576 11.9128C28.576 11.1517 28.4238 10.3823 28.1433 9.73307C28.1153 9.66894 28.0912 9.60887 28.0952 9.60481ZM32.3546 10.4464C32.3667 10.4584 32.3144 10.7829 32.2663 10.9751C32.1222 11.5722 31.7335 12.4579 31.2568 13.2912C31.1726 13.4393 31.0965 13.5595 31.0884 13.5636C31.0802 13.5676 30.9723 13.5075 30.8481 13.4353C30.3833 13.1629 29.8544 12.9064 29.2772 12.6661C29.1171 12.5979 28.9769 12.5419 28.9728 12.5338C28.9448 12.5098 30.2349 11.6564 30.916 11.2477C31.4569 10.9191 32.3385 10.4302 32.3546 10.4464ZM32.659 10.4943C32.6951 10.4943 33.4243 10.6949 33.8048 10.8069C34.7465 11.0874 35.8283 11.4841 36.5335 11.8046L36.8258 11.9369L36.6216 11.985C34.8987 12.3816 33.4243 12.8384 32.0018 13.4154C31.8857 13.4635 31.7814 13.5035 31.7735 13.5035C31.7654 13.5035 31.8056 13.4113 31.8577 13.2991C32.2864 12.3897 32.5628 11.4401 32.631 10.6305C32.635 10.5544 32.647 10.4943 32.659 10.4943ZM25.3989 12.1612C25.4108 12.1492 25.9677 12.2815 26.2683 12.3655C26.7249 12.4938 27.6946 12.8181 27.6946 12.8425C27.6946 12.8465 27.5865 12.9385 27.4584 13.0507C26.9334 13.4874 26.4286 13.9481 25.8234 14.5332C25.6432 14.7056 25.491 14.8458 25.4831 14.8458C25.4752 14.8458 25.4709 14.8216 25.475 14.7896C25.5671 14.1164 25.5472 13.2512 25.4189 12.3737C25.4068 12.2614 25.395 12.1652 25.3989 12.1612ZM37.1026 12.1733C37.1105 12.1813 36.846 12.5979 36.6778 12.8344C36.4373 13.179 36.0848 13.6358 35.2874 14.6374C34.9361 15.0783 34.5862 15.5204 34.2377 15.9636C34.0774 16.1639 33.9451 16.3322 33.941 16.3322C33.937 16.3322 33.8852 16.2601 33.829 16.1719C33.3803 15.4989 32.8433 14.9099 32.2062 14.381C32.1091 14.2989 32.0103 14.2187 31.9099 14.1405C31.8657 14.1085 31.8295 14.0764 31.8295 14.0723C31.8295 14.0604 32.5106 13.7679 33.0275 13.5595C33.9331 13.1909 35.167 12.7501 36.0927 12.4656C36.5777 12.3134 37.0945 12.1652 37.1026 12.1733ZM37.4111 12.2533C37.4269 12.2492 37.5231 12.2975 37.6394 12.3655C38.6131 12.9224 39.5666 13.6397 40.3199 14.3768C40.5322 14.5854 41.0571 15.1303 41.0491 15.1342C41.0491 15.1342 40.8647 15.1504 40.6485 15.1662C38.9616 15.2945 36.802 15.6511 34.7264 16.1518C34.636 16.1734 34.5452 16.1935 34.4541 16.212C34.446 16.212 34.6022 16.0558 34.7987 15.8674C36.0168 14.6934 36.5737 13.9522 37.2306 12.63C37.3228 12.4337 37.4031 12.2655 37.4111 12.2533C37.407 12.2533 37.407 12.2533 37.4111 12.2533ZM28.488 13.167C28.5442 13.179 29.0649 13.4233 29.4577 13.6196C29.8183 13.8 30.3592 14.0884 30.3872 14.1125C30.3912 14.1166 30.1988 14.2166 29.9626 14.3329C29.2563 14.6842 28.5652 15.0651 27.8911 15.4747C27.6987 15.591 27.5384 15.6872 27.5345 15.6872C27.5183 15.6872 27.5223 15.671 27.6305 15.4747C27.9911 14.8178 28.2797 14.0324 28.4439 13.267C28.4599 13.207 28.476 13.167 28.488 13.167ZM27.9672 13.263C27.9792 13.2752 27.843 13.7679 27.7588 14.0362C27.5944 14.5452 27.3179 15.1823 27.0496 15.6631C26.9855 15.7753 26.8893 15.9395 26.8372 16.0316L26.7371 16.192L26.5126 15.9756C26.2523 15.7231 26.0398 15.5669 25.7674 15.4266C25.6592 15.3706 25.5752 15.3225 25.5752 15.3146C25.5752 15.2825 26.2604 14.6615 26.7852 14.2126C27.1617 13.8881 27.9552 13.251 27.9672 13.263ZM31.1525 14.5732L31.3489 14.7015C31.7975 14.9939 32.3264 15.3826 32.731 15.7231C32.9596 15.9115 33.4002 16.3082 33.4884 16.4042L33.5363 16.4564L33.212 16.5485C31.3769 17.0573 29.9585 17.5101 28.3037 18.1194C28.1194 18.1874 27.9631 18.2434 27.9512 18.2434C27.927 18.2434 27.9069 18.2635 28.3197 17.8827C29.3775 16.9092 30.3151 15.8354 31.0122 14.7898L31.1525 14.5732ZM30.3151 14.7817C30.3232 14.7898 29.7743 15.563 29.4457 15.9996C29.053 16.5205 28.3558 17.3938 27.8748 17.9629C27.6747 18.1993 27.5024 18.3956 27.4943 18.3996C27.4821 18.4037 27.4783 18.3436 27.4783 18.2515C27.4783 17.7664 27.3541 17.2497 27.1377 16.8089C27.0456 16.6246 27.0296 16.5806 27.0496 16.5605C27.1258 16.4925 28.2917 15.8273 29.0288 15.4307C29.5258 15.1662 30.3029 14.7735 30.3151 14.7817ZM25.2505 16.0237C25.2627 16.0237 25.3548 16.0718 25.4589 16.1278C25.7028 16.2607 25.9336 16.4163 26.1481 16.5926C26.1561 16.6007 26.0519 16.6849 25.9158 16.785C25.4773 17.1014 25.0458 17.4274 24.6216 17.7626C24.2688 18.0431 24.2571 18.0512 24.2968 17.9911C24.5615 17.5864 24.6936 17.3579 24.8338 17.0657C24.9628 16.7935 25.0752 16.5138 25.1705 16.2281C25.2024 16.1118 25.2426 16.0237 25.2505 16.0237ZM26.6009 17.0815C26.6208 17.0774 26.645 17.1136 26.7531 17.2739C26.9815 17.6142 27.1578 18.0711 27.2019 18.4398L27.21 18.52L26.661 18.7323C25.6793 19.1128 24.7738 19.4895 24.1607 19.77C23.9886 19.8501 23.6878 19.9944 23.4917 20.0906C23.2953 20.1907 23.1349 20.2668 23.1349 20.2629C23.1349 20.2591 23.2592 20.1667 23.4116 20.0545C24.6096 19.1851 25.6473 18.2314 26.4246 17.2777C26.5088 17.1777 26.5849 17.0855 26.593 17.0815H26.6009ZM25.9799 17.2337C25.9959 17.2499 25.5391 17.7666 25.2266 18.083C24.4533 18.8725 23.688 19.4895 22.7384 20.0906C22.6182 20.1667 22.5101 20.2347 22.4979 20.2428C22.4699 20.2589 22.506 20.2187 22.9227 19.7659C23.167 19.5036 23.3983 19.2295 23.6157 18.9446C23.7679 18.7483 23.7962 18.7203 24.0166 18.564C24.6055 18.1393 25.9639 17.2177 25.9799 17.2337Z" fill="url(#paint2_radial_477_813)"/>
<path d="M8.62953 33.8244C8.55528 33.8244 8.48141 33.8316 8.40828 33.8316C6.91541 33.9111 5.90853 34.568 5.31978 35.8513C4.81616 37.0115 4.87128 38.5281 5.32541 39.6958C5.85341 40.8366 6.70691 41.4388 8.13153 41.666C8.43266 41.7156 8.63478 41.8809 9.21903 42.5623L9.93716 43.4042H11.2399L10.3737 42.5304C9.89478 42.0519 9.50741 41.6349 9.50741 41.5982C9.50741 41.5618 9.69041 41.4815 9.91241 41.414C10.6433 41.1928 11.25 40.628 11.6749 39.7625C12.0184 39.0677 12.0679 38.8528 12.1174 37.9881C12.246 35.4144 10.8889 33.8053 8.62916 33.8237L8.62953 33.8244ZM9.77141 40.5549C9.13766 40.8617 8.21741 40.9232 7.61666 40.7027C6.99566 40.4747 6.39416 39.8297 6.12378 39.0995C5.82341 38.3008 5.86616 36.8278 6.21003 36.1644C6.76241 35.1081 7.49366 34.6224 8.56128 34.6224C10.146 34.6224 11.0475 35.5925 11.1649 37.4162C11.2579 38.9387 10.7483 40.0809 9.77216 40.5545L9.77141 40.5549ZM32.2752 36.023C31.7288 36.023 31.3107 36.2443 31.0287 36.6801L30.8074 37.0251V36.1277H29.862V41.5074H30.807V39.7877C30.807 38.2153 30.8269 38.0315 31.0467 37.6014C31.3493 37.0112 31.8705 36.7172 32.3742 36.8578L32.7117 36.9564V36.0242H32.2755L32.2752 36.023ZM26.7192 35.9735C26.5248 35.9755 26.3312 35.9981 26.1417 36.041C24.8764 36.3722 24.1632 37.5834 24.2067 38.8295C24.2067 39.8732 24.4099 40.3952 24.9132 40.9423C25.9448 41.7887 26.8782 41.8562 28.137 41.402C28.3515 41.3105 28.5855 41.2048 28.5855 41.2048V40.3584L28.137 40.5909C27.1182 41.0345 26.3505 41.0345 25.7355 40.5122C25.3437 40.1128 25.1708 39.6339 25.0917 39.0872H28.9047V38.3623C28.9047 36.8833 28.0144 35.9495 26.7184 35.9735H26.7192ZM25.1772 38.3323C25.1772 38.3323 25.3182 37.4098 25.8409 37.0483C26.0812 36.8775 26.3685 36.7854 26.6633 36.7847C26.9464 36.7847 27.2284 36.8762 27.4617 37.0547C27.9405 37.4229 28.0204 38.3259 28.0204 38.3259H25.1775L25.1772 38.3323ZM2.37828 37.3626C1.35303 36.7412 0.898159 36.2934 0.954034 35.765C1.11303 34.304 2.91828 34.5062 3.91841 35.0589L3.92553 34.0761C3.92553 34.0761 3.37278 33.8364 2.58041 33.8237C1.36503 33.8057 0.579034 34.2039 0.211159 35.015C-0.329966 36.2124 0.148909 37.115 1.87991 38.1223C2.85153 38.6874 3.28091 39.1783 3.28091 39.7134C3.28091 40.8189 1.94816 41.2052 0.573034 40.5114C0.290284 40.3704 0.0506588 40.2527 0.0375338 40.2527C-0.0119662 40.5662 0.0135338 41.3162 0.0135338 41.3162C0.0135338 41.3162 0.436159 41.4935 1.06991 41.6162C2.64116 41.9293 4.07178 41.192 4.20678 39.995C4.32453 38.8712 3.91803 38.2813 2.37828 37.3614V37.3626ZM40.6452 35.9612C40.4485 35.9638 40.2526 35.9866 40.0605 36.0291C38.7968 36.3602 38.0847 37.5714 38.133 38.8179C38.133 39.86 38.3355 40.3768 38.8388 40.9232C39.8704 41.7707 40.8038 41.8382 42.0687 41.3837C42.2182 41.3196 42.3674 41.2545 42.516 41.1883V40.3404L42.0683 40.574C41.0472 41.0165 40.2795 41.0166 39.6668 40.4938C39.2727 40.0952 39.1017 39.6219 39.0218 39.0692H42.8288V38.3439C42.8288 36.8724 41.9385 35.9376 40.6429 35.9627L40.6452 35.9612ZM39.1028 38.3199C39.1028 38.3199 39.2453 37.3989 39.7669 37.0299C40.0069 36.8591 40.294 36.7669 40.5885 36.7659C40.8705 36.7659 41.154 36.8574 41.3873 37.0359C41.8662 37.4046 41.9464 38.3135 41.9464 38.3135H39.1039L39.1028 38.3199ZM21.7688 37.3742C20.7435 36.7547 20.2898 36.3054 20.3449 35.7767C20.5039 34.3153 22.3095 34.5182 23.3093 35.0706L23.3168 34.088C23.3168 34.088 22.7637 33.8481 21.9717 33.8368C20.7559 33.8188 19.9703 34.2174 19.6017 35.0285C19.0613 36.2255 19.5465 37.1285 21.2715 38.1354C22.242 38.7002 22.6714 39.1847 22.6714 39.7198C22.6714 40.8253 21.339 41.2175 19.9639 40.5174C19.6823 40.3768 19.4427 40.2605 19.4288 40.2605C19.3797 40.5737 19.4048 41.324 19.4048 41.324C19.4048 41.324 19.8225 41.4951 20.454 41.6241C22.0272 41.9379 23.4578 41.201 23.5928 40.0041C23.7094 38.8858 23.304 38.2967 21.7688 37.3753V37.3742ZM46.2012 36.0103C45.6548 36.0103 45.2318 36.2315 44.9547 36.668L44.7334 37.0115V36.116H43.788V41.4943H44.733V39.7749C44.733 38.2029 44.7518 38.0184 44.9723 37.5887C45.2753 36.9995 45.7965 36.7048 46.2998 36.8466L46.638 36.9448V36.0103H46.2012ZM14.2482 37.3434V33.9167H13.2949V41.5063H17.3044V40.61H14.2482V37.3434ZM36.297 38.4114L35.5114 40.4563L34.7554 38.3998L33.9882 36.1213H33.012C33.6524 37.9277 34.3237 39.723 35.0258 41.5063C35.3269 41.513 35.628 41.5063 35.9288 41.5063L36.99 38.8416L38.0708 36.122H37.1382C37.1382 36.122 36.7257 37.202 36.2963 38.4118L36.297 38.4114ZM16.4457 31.8485C16.599 31.8485 16.7273 31.7994 16.8327 31.6937C16.884 31.6447 16.9247 31.5857 16.9522 31.5202C16.9796 31.4548 16.9932 31.3844 16.992 31.3134C16.992 31.1597 16.9373 31.0318 16.8327 30.9332C16.7824 30.8844 16.7228 30.8461 16.6575 30.8207C16.5922 30.7952 16.5225 30.7831 16.4524 30.7851C16.2975 30.7851 16.1697 30.8345 16.0654 30.9388C15.9597 31.043 15.9117 31.1713 15.9117 31.319C15.9117 31.4739 15.9612 31.6022 16.0654 31.6993C16.164 31.7979 16.2919 31.8471 16.4457 31.8471V31.8485ZM16.1074 30.9752C16.1989 30.884 16.3103 30.8413 16.4524 30.8413C16.5863 30.8413 16.6977 30.884 16.7907 30.9752C16.8822 31.067 16.9317 31.1784 16.9317 31.3134C16.9326 31.3772 16.9205 31.4406 16.8963 31.4996C16.8721 31.5586 16.8361 31.6122 16.7907 31.6569C16.6977 31.7484 16.5863 31.7919 16.4524 31.7919C16.3167 31.7919 16.206 31.7499 16.1149 31.6569C16.0694 31.6122 16.0335 31.5586 16.0093 31.4996C15.985 31.4406 15.973 31.3772 15.9739 31.3134C15.9739 31.1784 16.0155 31.067 16.1074 30.9752ZM16.3347 31.3629H16.3969C16.4408 31.3629 16.4835 31.4049 16.5203 31.4852L16.5942 31.6513H16.7104L16.6189 31.4668C16.5814 31.3929 16.545 31.3502 16.5019 31.3382C16.5563 31.3254 16.5994 31.307 16.6302 31.2707C16.645 31.2539 16.6564 31.2343 16.6636 31.213C16.6708 31.1918 16.6737 31.1693 16.6722 31.1469C16.6737 31.1226 16.6695 31.0982 16.66 31.0758C16.6505 31.0533 16.6359 31.0334 16.6174 31.0175C16.575 30.9823 16.5075 30.9635 16.4202 30.9635H16.2248V31.6513H16.323V31.3626L16.3347 31.3629ZM16.3347 31.043H16.4209C16.4828 31.043 16.5263 31.0558 16.5507 31.0742C16.5735 31.0922 16.5803 31.1162 16.5803 31.1597C16.5803 31.2396 16.5308 31.2767 16.4393 31.2767H16.3339V31.043H16.3347ZM0.585784 31.3018C0.585784 31.0618 0.578659 30.8837 0.573034 30.7791H0.578659C0.603034 30.9028 0.633784 30.9951 0.658534 31.0566L1.57353 33.1014H1.72728L2.64228 31.0382C2.66741 30.9819 2.69178 30.8972 2.72216 30.7794H2.72928C2.71341 30.9535 2.70516 31.1281 2.70453 31.3029V33.1074H3.01803V30.4247H2.62503L1.78353 32.2914C1.75253 32.3652 1.70953 32.4754 1.65453 32.6222H1.64178C1.60915 32.5131 1.56828 32.4067 1.51953 32.3038L0.696784 30.4187H0.279409V33.1018H0.580534V31.3029L0.585784 31.3018ZM3.70428 31.3063H3.97503V32.9773H3.70428V31.3063ZM3.83966 30.6935C3.86572 30.6945 3.89169 30.6899 3.9159 30.6803C3.94012 30.6706 3.96204 30.6559 3.98028 30.6373C3.99965 30.6193 4.01516 30.5976 4.02586 30.5734C4.03656 30.5492 4.04223 30.5231 4.04253 30.4967C4.04365 30.4701 4.03873 30.4436 4.02815 30.4192C4.01756 30.3947 4.00158 30.373 3.98141 30.3557C3.96256 30.3373 3.94026 30.3229 3.9158 30.3133C3.89134 30.3036 3.8652 30.2989 3.83891 30.2994C3.81285 30.2985 3.78688 30.303 3.76266 30.3127C3.73845 30.3224 3.71652 30.337 3.69828 30.3557C3.67911 30.3739 3.66376 30.3957 3.65314 30.4199C3.64251 30.4441 3.63682 30.4702 3.63641 30.4967C3.63641 30.5578 3.65516 30.6005 3.69828 30.6373C3.73612 30.6735 3.78652 30.6937 3.83891 30.6935H3.83966ZM5.90291 33.0141V32.7197C5.75478 32.8303 5.59541 32.885 5.43078 32.885C5.23391 32.885 5.07378 32.8175 4.95716 32.6882C4.84091 32.5599 4.77866 32.3818 4.77866 32.1598C4.77866 31.9273 4.84091 31.7428 4.96916 31.6022C5.09241 31.4672 5.25203 31.3996 5.44803 31.3993C5.60778 31.3993 5.76116 31.4488 5.90291 31.5474V31.2339C5.77391 31.1664 5.62691 31.1353 5.46041 31.1353C5.15366 31.1353 4.91403 31.2339 4.73516 31.424C4.55778 31.6142 4.46628 31.8725 4.46628 32.1845C4.46628 32.462 4.54578 32.6953 4.71153 32.8734C4.88403 33.0564 5.10453 33.1494 5.37453 33.1494C5.58378 33.1434 5.75478 33.0999 5.90291 33.0141ZM6.67653 32.1231C6.67653 31.9029 6.72603 31.7248 6.81753 31.6018C6.90328 31.4916 7.00766 31.4363 7.13066 31.4361C7.23491 31.4361 7.30916 31.4548 7.36316 31.4979V31.178C7.32116 31.1597 7.25966 31.1537 7.18016 31.1537C7.06953 31.1537 6.97128 31.1912 6.88428 31.2594C6.79278 31.3318 6.71966 31.4424 6.67653 31.583H6.66941V31.1908H6.36341V33.1063H6.67016V32.1234L6.67653 32.1231ZM8.43903 33.1442C8.72778 33.1442 8.96028 33.0512 9.13278 32.8667C9.30453 32.6832 9.39041 32.4377 9.39041 32.1302C9.39041 31.817 9.31166 31.5774 9.15116 31.3993C8.99178 31.2212 8.77091 31.1349 8.48216 31.1349C8.19341 31.1349 7.96091 31.2212 7.78841 31.3873C7.60391 31.5703 7.50678 31.8291 7.50678 32.1606C7.50678 32.4493 7.58553 32.6885 7.75203 32.8667C7.92378 33.0512 8.15103 33.1434 8.43941 33.1434L8.43903 33.1442ZM8.00253 31.5838C8.11953 31.4605 8.27303 31.3991 8.46303 31.3993C8.66028 31.3993 8.80803 31.4604 8.91791 31.5838C9.02853 31.7128 9.08366 31.8962 9.08366 32.1425C9.08366 32.3758 9.03416 32.5599 8.92991 32.6829C8.82603 32.8119 8.67228 32.8802 8.46941 32.8802C8.27253 32.8802 8.11953 32.8119 8.00253 32.6829C7.88628 32.5535 7.83078 32.3758 7.83078 32.1422C7.81878 31.9097 7.88028 31.7199 8.00253 31.5838ZM10.7348 32.9773C10.8518 32.8731 10.9137 32.7448 10.9137 32.5843C10.915 32.5195 10.9032 32.4551 10.879 32.3949C10.8547 32.3348 10.8186 32.2802 10.7727 32.2344C10.698 32.1605 10.5829 32.0934 10.4157 32.0259C10.2679 31.964 10.1764 31.9093 10.1269 31.8662C10.1006 31.8407 10.08 31.8099 10.0663 31.776C10.0526 31.742 10.0462 31.7055 10.0474 31.6689C10.0474 31.5894 10.0785 31.5283 10.1393 31.4788C10.2012 31.4297 10.2799 31.4057 10.3857 31.4057C10.5507 31.4057 10.6928 31.4492 10.8218 31.5418V31.2343C10.6937 31.1717 10.5526 31.1405 10.41 31.1432C10.2132 31.1432 10.0467 31.1975 9.92441 31.3022C9.86373 31.3491 9.8149 31.4096 9.78182 31.4789C9.74874 31.5481 9.73233 31.6241 9.73391 31.7008C9.73391 31.8414 9.77628 31.9584 9.85653 32.0443C9.92403 32.1174 10.0395 32.1924 10.2004 32.2592C10.3542 32.3267 10.458 32.3878 10.5135 32.4373C10.5393 32.4602 10.5598 32.4884 10.5736 32.52C10.5873 32.5516 10.5939 32.5858 10.593 32.6203C10.593 32.7992 10.4704 32.8914 10.2312 32.8914C10.0469 32.8917 9.88091 32.8307 9.73316 32.7084V33.0392C9.86703 33.1198 10.0275 33.1562 10.2053 33.1562C10.4325 33.1442 10.6107 33.0887 10.7333 32.9781L10.7348 32.9773ZM12.1965 31.1353C11.9078 31.1353 11.6753 31.2212 11.5028 31.3873C11.3198 31.5707 11.2215 31.8291 11.2215 32.1606C11.2215 32.4493 11.301 32.6885 11.4664 32.8667C11.6389 33.0512 11.8658 33.1438 12.1545 33.1438C12.45 33.1438 12.6754 33.0508 12.8479 32.8663C13.0204 32.6825 13.1067 32.4369 13.1067 32.1294C13.1067 31.8163 13.026 31.577 12.8667 31.3985C12.7009 31.2204 12.4797 31.1346 12.198 31.1346L12.1965 31.1353ZM12.7924 32.1422C12.7924 32.3758 12.7429 32.5599 12.6387 32.6829C12.5344 32.8119 12.381 32.8802 12.1782 32.8802C11.9809 32.8802 11.8283 32.8119 11.7113 32.6829C11.595 32.5535 11.5395 32.3758 11.5395 32.1422C11.5395 31.8958 11.6007 31.7057 11.724 31.5774C11.8403 31.4547 11.9938 31.3932 12.1845 31.3929C12.3747 31.3929 12.5277 31.4548 12.6383 31.5774C12.7365 31.7124 12.7924 31.8965 12.7924 32.1422ZM13.6219 33.1007H13.9283V31.4424H14.3768V31.1844H13.9283V30.8889C13.9283 30.6197 14.0322 30.4847 14.2478 30.4847C14.3202 30.4847 14.3944 30.503 14.4492 30.5338V30.2574C14.3944 30.2327 14.3202 30.2271 14.2279 30.2271C14.0629 30.2271 13.9279 30.2765 13.8169 30.3808C13.6879 30.503 13.6197 30.662 13.6197 30.8777V31.1916H13.2957V31.4495H13.6197V33.1014L13.6219 33.1007ZM14.8804 32.5779C14.8804 32.9529 15.0454 33.1434 15.3837 33.1434C15.5063 33.1434 15.5985 33.1239 15.6724 33.0797V32.8172C15.6152 32.8589 15.5459 32.8806 15.4752 32.8791C15.3709 32.8791 15.2978 32.8543 15.255 32.7988C15.2112 32.7437 15.1864 32.651 15.1864 32.5228V31.4417H15.6724V31.184H15.1864V30.6193C15.081 30.6557 14.9775 30.6868 14.8793 30.7176V31.1837H14.5485V31.4417H14.8793V32.5775L14.8804 32.5779ZM47.8354 36.1089C47.7851 36.0602 47.7255 36.022 47.6602 35.9966C47.5949 35.9712 47.5252 35.9592 47.4552 35.9612C47.3003 35.9612 47.172 36.0107 47.0678 36.116C46.9635 36.2195 46.914 36.3485 46.914 36.4963C46.914 36.65 46.9635 36.7775 47.067 36.8765C47.1708 36.975 47.2999 37.0243 47.4544 37.0243C47.607 37.0243 47.7357 36.9752 47.8418 36.8705C47.9453 36.7655 48 36.6437 48 36.4907C47.9944 36.3358 47.9389 36.2075 47.8347 36.1093L47.8354 36.1089ZM47.7863 36.8342C47.7421 36.8785 47.6893 36.9133 47.6311 36.9364C47.5729 36.9595 47.5106 36.9704 47.448 36.9684C47.3142 36.9684 47.2032 36.9257 47.1102 36.8342C47.0647 36.7891 47.0287 36.7353 47.0045 36.676C46.9803 36.6168 46.9683 36.5532 46.9692 36.4892C46.9692 36.3553 47.0115 36.2443 47.1042 36.1513C47.1957 36.0598 47.3067 36.0174 47.448 36.0174C47.5819 36.0174 47.6933 36.0598 47.7863 36.1513C47.8774 36.2443 47.9269 36.3553 47.9269 36.4888C47.9269 36.6317 47.8845 36.7412 47.7863 36.8342ZM47.5103 36.521C47.5587 36.5111 47.6032 36.4877 47.6389 36.4535C47.6687 36.4195 47.684 36.375 47.6813 36.3298C47.6815 36.2743 47.6633 36.2313 47.6265 36.2008C47.5842 36.1656 47.5159 36.1464 47.4293 36.1464H47.2332V36.8334H47.3318V36.5447H47.3933C47.4353 36.5447 47.4777 36.587 47.5159 36.6673L47.589 36.833H47.706L47.6145 36.6482C47.5827 36.5679 47.5459 36.5312 47.5088 36.5192L47.5103 36.521ZM47.4424 36.4592H47.3367V36.2267H47.4233C47.4848 36.2267 47.5275 36.2379 47.5523 36.2567C47.577 36.2754 47.5823 36.299 47.5823 36.3429C47.5823 36.4224 47.5335 36.4592 47.4417 36.4592H47.4424ZM30.3109 31.1053H30.3964V30.4172H30.624V30.3309H30.0833V30.4172H30.3109V31.1053ZM30.8318 30.5878C30.8318 30.5214 30.8318 30.4667 30.8269 30.4356C30.8325 30.4719 30.8453 30.4967 30.8509 30.515L31.1149 31.1053H31.1569L31.422 30.5091C31.4292 30.4911 31.4348 30.4671 31.4464 30.4356C31.4408 30.4967 31.4408 30.5458 31.4408 30.5833V31.1045H31.5323V30.3309H31.422L31.1824 30.8649C31.1768 30.8837 31.1577 30.9212 31.146 30.9635H31.1385C31.134 30.9388 31.1213 30.914 31.1037 30.872L30.864 30.3313H30.7403V31.1057H30.8265V30.5889L30.8318 30.5878Z" fill="#231F1F"/>
<defs>
<linearGradient id="paint0_linear_477_813" x1="21.2645" y1="28.4485" x2="23.1805" y2="27.3163" gradientUnits="userSpaceOnUse">
<stop stop-color="#909CA9"/>
<stop offset="1" stop-color="#EDEDEE"/>
</linearGradient>
<linearGradient id="paint1_linear_477_813" x1="21.3082" y1="7.10398" x2="22.8499" y2="7.10398" gradientUnits="userSpaceOnUse">
<stop stop-color="#939FAB"/>
<stop offset="1" stop-color="#DCDEE1"/>
</linearGradient>
<radialGradient id="paint2_radial_477_813" cx="0" cy="0" r="1" gradientUnits="userSpaceOnUse" gradientTransform="translate(29.09 14.1722) rotate(-171.461) scale(1.98877 3.97863)">
<stop stop-color="#EE352C"/>
<stop offset="1" stop-color="#A91D22"/>
</radialGradient>
</defs>
</svg>
