<svg width="48" height="48" viewBox="0 0 48 48" fill="none" xmlns="http://www.w3.org/2000/svg">
<path d="M28.2461 0.149789C27.9094 0.149789 27.5726 0.224414 27.2734 0.336539C27.9094 0.748289 28.2461 1.30929 28.4332 1.94529C28.4332 2.02029 28.4707 2.09529 28.4707 2.16991C28.4707 2.24491 28.5083 2.31954 28.5083 2.39416C28.5458 3.47941 28.2086 3.62904 27.9844 4.26504C27.6101 5.08779 27.7226 5.98591 28.1715 6.69654C28.209 6.77154 28.2465 6.88404 28.3211 6.95866C27.8348 3.81616 30.4534 3.36691 30.9397 2.39416C30.9772 1.53391 30.2666 0.972914 29.7052 0.561164C29.1442 0.224414 28.695 0.149414 28.2465 0.149414L28.2461 0.149789ZM32.175 0.822539C32.1375 1.12179 32.175 1.04716 32.1375 1.19679C32.1375 1.30891 32.1375 1.42104 32.1 1.53354C32.0625 1.64566 32.0625 1.72066 32.025 1.83279C31.9875 1.94491 31.9504 2.01991 31.9129 2.13204C31.8754 2.20704 31.8379 2.28166 31.8004 2.39379C31.7633 2.43129 31.7257 2.50629 31.6886 2.54379C31.6511 2.58129 31.6511 2.61841 31.6136 2.65591C31.5386 2.73091 31.5011 2.84266 31.4265 2.91766L31.2023 3.14229C31.1273 3.21729 31.0523 3.29191 30.9776 3.32904C30.7159 3.51654 30.4166 3.66579 30.1545 3.85291C30.0795 3.92791 29.9674 3.96541 29.8927 4.04004C29.8177 4.11504 29.7427 4.15254 29.6681 4.22716L29.4439 4.45141C29.3689 4.52641 29.2939 4.60141 29.2564 4.71354C29.1817 4.78854 29.1442 4.90066 29.0696 4.97529C29.0321 5.08779 28.9946 5.16241 28.92 5.27454C28.8825 5.38704 28.845 5.46204 28.8075 5.57379C28.77 5.68629 28.7329 5.79841 28.7329 5.87304C28.7329 5.91054 28.7329 5.98554 28.6954 6.02304C28.6954 6.06054 28.6954 6.13516 28.6579 6.17266V6.69616C28.6579 6.80866 28.6579 6.88366 28.6954 6.99541C28.6954 7.10791 28.7329 7.18291 28.7704 7.29504C28.8079 7.40716 28.8454 7.48179 28.8829 7.59429C28.92 7.66929 28.9575 7.70641 28.9575 7.78141L26.1139 6.69616C25.6449 6.55406 25.1708 6.42935 24.6926 6.32229C24.4305 6.24729 24.1687 6.20979 23.9066 6.13479C23.1643 5.98618 22.4152 5.87393 21.6619 5.79841H21.5869C20.8387 5.72341 20.1281 5.68591 19.38 5.68591C18.8186 5.68591 18.2947 5.72341 17.7712 5.76091C17.0227 5.79841 16.275 5.91091 15.5265 6.02304L14.9651 6.13516C14.5913 6.21016 14.217 6.28479 13.8428 6.39691C13.6556 6.43441 13.4689 6.50941 13.2817 6.54691C13.0946 6.62154 12.9075 6.69616 12.7579 6.77116C12.6082 6.84616 12.4961 6.88366 12.3465 6.95829C12.309 6.95829 12.309 6.95829 12.2715 6.99579C12.159 7.07041 12.0473 7.10791 11.9348 7.18254C11.8973 7.18254 11.8597 7.22004 11.8597 7.22004C11.7105 7.29504 11.598 7.37004 11.4859 7.40716C11.4109 7.44466 11.2987 7.48216 11.2241 7.51966C11.1866 7.55679 11.1491 7.55679 11.1116 7.59429C10.9995 7.66929 10.8874 7.70641 10.7749 7.78104C10.6627 7.85604 10.5506 7.89354 10.4756 7.96854C10.4006 8.04316 10.2885 8.08066 10.2139 8.15529C10.2139 8.15529 10.1764 8.15529 10.1764 8.19279C10.1014 8.23029 10.0267 8.30529 9.95212 8.37991L9.91462 8.41741C9.83962 8.45491 9.80213 8.52954 9.7275 8.56704C9.69 8.56704 9.69 8.60454 9.6525 8.60454C9.57787 8.64204 9.54038 8.71666 9.46575 8.75379C9.46575 8.79129 9.42825 8.79129 9.42825 8.79129L9.20362 9.01591L9.16613 9.05341L8.94187 9.27766C8.94187 9.27766 8.94188 9.31516 8.90438 9.31516L8.71725 9.50229C8.67975 9.53979 8.64225 9.53979 8.64225 9.57729L8.418 9.80154C8.418 9.83904 8.3805 9.83904 8.3805 9.87654L8.08125 10.1754L8.04375 10.2129C7.857 10.4375 7.63237 10.6247 7.40812 10.8118C7.18387 10.9989 6.95887 11.1857 6.69712 11.3728C6.43537 11.5599 6.21075 11.7095 5.949 11.8592C5.68725 12.0088 5.42513 12.1209 5.16338 12.2334C4.90125 12.3455 4.6395 12.4577 4.37775 12.5327C3.85387 12.6452 3.33 12.8694 2.88113 12.9065C2.88113 12.7198 2.76863 12.7569 2.6565 12.7569C2.54438 12.7944 2.43225 12.7944 2.35725 12.8319C2.24475 12.8694 2.17012 12.9069 2.058 12.9444C1.95137 12.979 1.85051 13.0293 1.75875 13.0937C1.68375 13.1687 1.57163 13.2062 1.497 13.2812C1.422 13.3558 1.3095 13.4304 1.23487 13.5054C1.15987 13.5804 1.04775 13.655 0.973125 13.7297C0.898125 13.8047 0.823125 13.8797 0.7485 13.9918C0.6735 14.1039 0.598875 14.1785 0.561375 14.291C0.48675 14.366 0.44925 14.4782 0.374625 14.5903C0.337125 14.7028 0.262125 14.8145 0.224625 14.927L0.1125 15.2638C0.075 15.3759 0.075 15.4505 0.0375 15.563V15.6005C0 15.713 0 15.8623 0 15.9373C0.0375 15.8998 0.0375 15.9748 0.0375 16.0494V16.199C0.0375 16.274 0.075 16.3487 0.075 16.4233C0.1125 16.4983 0.1125 16.5733 0.15 16.6479C0.187125 16.7229 0.224625 16.7975 0.29925 16.8725C0.33675 16.9475 0.41175 17.0222 0.44925 17.0968C0.523875 17.1718 0.5985 17.2468 0.6735 17.2839C0.7485 17.3589 0.823125 17.4339 0.89775 17.471C1.197 17.7328 1.272 17.8078 1.64625 18.032C1.72125 18.0695 1.75837 18.107 1.83337 18.1445H1.87087V18.2195C1.87087 18.3313 1.90838 18.4063 1.9455 18.5184C1.983 18.6309 2.0205 18.743 2.058 18.8177L2.16975 19.0423C2.16975 19.0798 2.20725 19.0798 2.20725 19.1173C2.24475 19.2294 2.31975 19.304 2.35725 19.379C2.43187 19.454 2.46937 19.5662 2.544 19.6408L2.76862 19.8654L2.99287 20.0897H3.03038C3.10538 20.1647 3.18 20.2022 3.255 20.2772C3.33 20.3522 3.44213 20.3893 3.51675 20.4264C3.59175 20.4639 3.70387 20.5389 3.816 20.5764C3.891 20.6139 3.966 20.651 4.07775 20.651C4.07775 20.651 4.11525 20.651 4.11525 20.6885C4.15275 20.6885 4.22775 20.726 4.26525 20.726C4.22775 21.3992 4.22775 22.0352 4.30275 22.2598C4.4145 22.5215 4.97588 21.7359 5.49975 20.8757C5.42475 21.7359 5.38725 22.7462 5.49975 23.0454C5.64938 23.3447 6.36 22.3719 7.0335 21.3242C15.7879 19.304 23.7941 25.3648 24.6548 33.9324C24.5048 32.5854 22.8585 31.8373 22.0732 32.0244C21.699 32.9222 21.063 34.1195 20.0531 34.8302C20.1281 34.0069 20.0906 33.1839 19.9406 32.3612C19.6789 33.4835 19.155 34.5684 18.4069 35.4662C17.247 35.5412 16.05 34.9798 15.4511 34.1195C15.4136 34.082 15.3761 34.007 15.339 33.9695C15.3015 33.8949 15.264 33.7828 15.2265 33.7078C15.189 33.6328 15.1519 33.5207 15.1519 33.446V32.9972C15.1519 32.9222 15.1894 32.8097 15.2269 32.735C15.2644 32.6604 15.2644 32.5479 15.3019 32.4733C15.339 32.3983 15.3765 32.2862 15.4511 32.2115C15.6757 31.6127 15.6757 31.1263 15.264 30.8645L15.0397 30.752C15.0022 30.752 14.9273 30.7149 14.8898 30.7149C14.8523 30.7149 14.8151 30.6774 14.7776 30.6774C14.703 30.6399 14.5909 30.6399 14.5159 30.6024C14.4409 30.5649 14.3288 30.5649 14.2541 30.5649C14.1791 30.5649 14.0666 30.5278 13.992 30.5278H13.8052C13.6927 30.5278 13.6178 30.5278 13.5431 30.5653C13.4681 30.5653 13.356 30.6028 13.2814 30.6028C13.2064 30.6403 13.0942 30.6403 13.0192 30.6778C12.9446 30.7149 12.8696 30.7524 12.7575 30.7895L12.5329 30.902C9.65213 32.7725 11.3734 37.187 13.3189 38.459C12.5704 38.609 11.8223 38.7583 11.5976 38.9083L11.5601 38.9458C12.084 39.2822 12.6454 39.5443 13.2439 39.7685C14.0295 40.0307 14.8901 40.2549 15.264 40.3674C16.2742 40.5917 17.322 40.6667 18.3694 40.5917C23.8316 40.2174 28.3211 36.0275 29.1439 30.5653C29.1814 30.6778 29.1814 30.7895 29.2189 30.902C29.2564 31.1263 29.2939 31.3509 29.3314 31.6127C29.3689 31.7252 29.3689 31.8373 29.3689 31.9494V31.9869C29.3689 32.0994 29.406 32.2115 29.406 32.3237C29.406 32.4733 29.4435 32.5854 29.4435 32.735V34.3063C29.4435 34.4188 29.406 34.4938 29.406 34.6059V34.718C29.406 34.8305 29.3685 34.9427 29.3685 35.0923C29.331 35.2044 29.331 35.3165 29.2935 35.429V35.4665C29.256 35.5787 29.256 35.6908 29.2189 35.8029V35.8404C29.1814 35.9529 29.1814 36.065 29.1439 36.1772V36.2147L29.0317 36.5514V36.5889C28.9942 36.701 28.9568 36.8507 28.9196 36.9628C28.8821 37.0753 28.8446 37.1874 28.7696 37.337C28.7325 37.4492 28.695 37.5988 28.6204 37.7109C28.5829 37.8234 28.5079 37.9355 28.4704 38.0852C28.4332 38.1977 28.3583 38.3098 28.3211 38.4219C28.3211 38.4594 28.2836 38.4969 28.2836 38.4969C28.2836 38.4969 28.2836 38.5344 28.2461 38.5344C27.4605 40.1428 26.2635 41.5644 24.7669 42.6868C24.6544 42.7618 24.5798 42.8368 24.4676 42.9114C24.4301 42.9489 24.3926 42.9489 24.3926 42.9864C24.3176 43.061 24.2055 43.0985 24.1309 43.1732L24.1684 43.2482C24.3551 43.2107 24.5051 43.2107 24.6919 43.1732C25.0286 43.1357 25.3279 43.0607 25.6646 42.986C25.7396 42.986 25.8521 42.9485 25.9268 42.911C26.0018 42.911 26.0389 42.8735 26.1135 42.8735C26.1881 42.8735 26.301 42.8364 26.3756 42.8364C26.4506 42.7989 26.5252 42.7989 26.5999 42.7614C27.8347 42.4625 29.0318 42.0508 30.1916 41.5644C28.2086 44.258 25.59 46.4282 22.5221 47.8494C23.9437 47.7373 25.3654 47.513 26.7495 47.1013C31.7199 45.6418 35.9141 42.281 38.4221 37.7484C37.8986 40.5917 36.7759 43.3228 35.0925 45.7172C36.2899 44.9315 37.3748 43.9959 38.385 42.986C41.1533 40.1053 42.9862 36.4014 43.5851 32.4733C43.9969 34.4188 44.1465 36.4389 43.9594 38.4219C52.9009 25.9637 44.7075 13.0565 41.2657 9.65191C41.2657 9.61441 41.2283 9.61441 41.2283 9.57691C41.2283 9.72691 41.2283 9.87616 41.1908 10.0262C41.1533 10.3254 41.1157 10.5872 41.0782 10.8489C41.0036 11.111 40.929 11.4103 40.854 11.672C40.779 11.9342 40.6669 12.1959 40.5548 12.4577C40.4426 12.7194 40.3301 12.9815 40.1805 13.2062C40.0309 13.4308 39.8812 13.6925 39.7316 13.9168C39.582 14.141 39.3949 14.3657 39.2078 14.5903C39.021 14.8149 38.8339 15.0017 38.6093 15.2263C38.4968 15.3388 38.385 15.4509 38.2354 15.5255C38.1229 15.6005 38.0479 15.6755 37.9358 15.7873C37.7115 15.9748 37.4869 16.124 37.2251 16.2737C37.0005 16.4237 36.7388 16.5733 36.477 16.6854L35.691 17.0222C35.4293 17.1343 35.1675 17.2093 34.9054 17.2839C34.6436 17.3589 34.3444 17.4339 34.0823 17.471C33.783 17.5085 33.5213 17.546 33.2595 17.5835C33.072 17.5835 32.8478 17.6207 32.6606 17.6207C32.3614 17.6207 32.0996 17.5832 31.8379 17.5832C31.5383 17.5457 31.2765 17.5082 31.0148 17.4707C30.731 17.436 30.4537 17.3605 30.1916 17.2464C30.4534 17.2089 30.7526 17.2089 31.0148 17.1343C31.314 17.0968 31.5758 17.0218 31.8379 16.9472C32.0996 16.8722 32.3989 16.7975 32.6235 16.6854L33.4091 16.3487C33.6709 16.2362 33.8955 16.0869 34.1572 15.9373C34.3819 15.7873 34.6436 15.6005 34.8683 15.4509C35.0925 15.2634 35.3171 15.0767 35.5043 14.8895C35.7285 14.7024 35.9156 14.4782 36.1028 14.291C36.2899 14.0664 36.477 13.8422 36.6266 13.6175C36.6641 13.58 36.6641 13.5425 36.7016 13.505C36.8134 13.3183 36.963 13.0937 37.0755 12.9069C37.2147 12.665 37.3395 12.415 37.4494 12.1584C37.5619 11.8967 37.6744 11.6345 37.749 11.3728L37.9733 10.5872C38.0108 10.2879 38.0857 10.0262 38.0857 9.76404C38.1232 9.46479 38.1233 9.20304 38.1233 8.94091C38.1233 8.75416 38.1232 8.52954 38.0857 8.34241C38.0482 8.04316 38.0108 7.78141 37.9733 7.51929C37.9358 7.22004 37.8608 6.95829 37.7861 6.69616C37.7111 6.43441 37.599 6.17266 37.5244 5.91054C37.4119 5.64879 37.2997 5.38704 37.1876 5.16241C37.038 4.90066 36.9259 4.67604 36.7762 4.41429C36.6262 4.18966 36.4395 3.96504 36.2899 3.74079C36.1028 3.51616 35.9156 3.32904 35.7285 3.10479C35.6164 2.99229 35.5042 2.88016 35.3917 2.80554C34.8307 2.35666 34.2694 1.98241 33.6709 1.60816C33.5959 1.57066 33.5213 1.53316 33.4091 1.49566C32.9228 1.08466 32.5489 0.972164 32.175 0.822539Z" fill="#DF234F"/>
</svg>
