<svg width="48" height="20" viewBox="0 0 48 20" fill="none" xmlns="http://www.w3.org/2000/svg">
<g clip-path="url(#clip0_483_655)">
<path d="M8.9976 0V19.6642H7.97088L1.14528 3.19771H1.05504V19.6642H0V0H1.02096L7.86912 16.4861H7.95936V0H8.9976ZM15.3605 19.9714C14.6209 20.0035 13.8919 19.6682 13.2624 19.0065C12.6664 18.3524 12.1919 17.4233 11.8944 16.3276C11.5616 15.089 11.3976 13.7383 11.4144 12.3766C11.3988 11.012 11.5628 9.65865 11.8944 8.41585C12.1866 7.32005 12.6487 6.38058 13.2312 5.69853C13.8161 5.03617 14.506 4.69407 15.2083 4.71814C15.6736 4.7167 16.1348 4.865 16.5677 5.15523C17.0106 5.45417 17.4113 5.90911 17.7437 6.4902C18.1086 7.13418 18.3902 7.90122 18.5702 8.74183C18.7856 9.77196 18.8889 10.8603 18.875 11.9534V12.7982H13.067V11.2909H17.8493C17.8573 10.4048 17.7422 9.52798 17.5133 8.73203C17.3033 8.0017 16.9819 7.3809 16.5826 6.93464C16.1734 6.48679 15.6952 6.25615 15.2088 6.27206C14.6913 6.2558 14.184 6.51798 13.7592 7.02124C13.3387 7.52672 13.0016 8.20787 12.7805 8.99918C12.5429 9.83762 12.4204 10.757 12.4224 11.6879V12.5866C12.4084 13.6415 12.5306 14.6887 12.7805 15.6544C12.9976 16.4854 13.3518 17.1912 13.8 17.6863C14.2686 18.1798 14.8116 18.4299 15.3624 18.406C15.7317 18.4186 16.0988 18.3076 16.4429 18.0792C16.7367 17.8803 17.0036 17.5815 17.2272 17.201C17.4312 16.8518 17.5942 16.4394 17.7072 15.9861L18.6605 16.5139C18.5196 17.1578 18.2993 17.7428 18.0144 18.2296C17.6966 18.7757 17.3165 19.2053 16.8974 19.4918C16.4089 19.8238 15.8864 19.9869 15.3605 19.9714ZM21.4757 4.91585L23.7096 11.2067L25.9435 4.91585H27.1114L24.3245 12.29L27.1114 19.6642H25.944L23.7101 13.5768L21.4757 19.6642H20.3136L23.0664 12.29L20.3136 4.91585H21.4757ZM32.6338 4.91585V6.40441H28.4986V4.91585H32.6338ZM29.7907 1.38235H30.7987V15.8137C30.7832 16.3152 30.8476 16.8146 30.985 17.259C31.0962 17.5863 31.2664 17.8441 31.4702 17.9943C31.6719 18.139 31.8888 18.2124 32.1077 18.21C32.221 18.2124 32.3342 18.1979 32.4461 18.1667C32.5402 18.1378 32.6229 18.1073 32.6942 18.0752L32.9088 19.6209C32.7911 19.6947 32.6705 19.754 32.5478 19.7982C32.3741 19.8575 32.197 19.8849 32.0198 19.8799C31.6517 19.8802 31.2883 19.7392 30.9566 19.4673C30.6181 19.1946 30.3291 18.7715 30.12 18.2426C29.892 17.6399 29.7778 16.9329 29.7926 16.2165L29.7907 1.38235ZM42.8213 0H43.8773V13.0196C43.8894 14.2785 43.6982 15.5189 43.3243 16.6054C42.956 17.6584 42.4246 18.5187 41.7883 19.0923C41.0822 19.718 40.2946 20.0302 39.4987 20C38.7041 20.0288 37.9182 19.7152 37.2139 19.0882C36.5769 18.5141 36.0443 17.654 35.6741 16.6013C35.2999 15.5166 35.1086 14.2773 35.1211 13.0196V0H36.1771V12.8946C36.167 13.87 36.3091 14.8325 36.589 15.6838C36.862 16.4974 37.2636 17.1642 37.7482 17.6087C38.2873 18.0928 38.8903 18.3341 39.4997 18.3096C40.11 18.3337 40.7138 18.0924 41.2541 17.6087C41.7389 17.1664 42.1404 16.5 42.4123 15.6863C42.6904 14.8339 42.8315 13.8718 42.8213 12.8971V0ZM48 0V19.6642H46.944V0H48Z" fill="black"/>
</g>
<defs>
<clipPath id="clip0_483_655">
<rect width="48" height="20" fill="white"/>
</clipPath>
</defs>
</svg>
