<svg width="48" height="48" viewBox="0 0 48 48" fill="none" xmlns="http://www.w3.org/2000/svg">
<path d="M9.1875 18.9375C8.625 18.9375 8.25 19.3875 8.25 19.95V25.2375L2.2875 19.2375C1.9875 18.9375 1.4625 18.8625 1.0875 19.0125C0.7125 19.1625 0.375 19.5375 0.375 19.95V27.7125C0.375 28.275 0.9375 28.725 1.5 28.725C2.0625 28.725 2.625 28.275 2.625 27.7125V22.425L8.6625 28.425C8.85 28.6125 9.1125 28.725 9.375 28.725C9.4875 28.725 9.525 28.6875 9.6375 28.65C10.0125 28.5 10.125 28.125 10.125 27.7125V19.9875C10.125 19.425 9.75 18.9375 9.1875 18.9375ZM16.575 23.3625C16.05 23.3625 15.5625 23.8875 15.5625 24.4125C15.5625 24.9375 16.05 25.4625 16.575 25.4625L19.05 25.6125L18.4875 27H15.3L13.725 24.0375L15.3375 21H18.75L19.5375 22.5H21.6L20.25 19.5375L19.95 19.125H14.1L13.8375 19.575L11.625 23.4375L11.3625 23.925L11.625 24.4125L13.8 28.275L14.1 28.875H19.7625L20.025 28.2375L21.6375 24.8625L22.35 23.25H20.7L16.575 23.3625ZM24.375 18.9375C23.85 18.9375 23.25 19.425 23.25 19.95V22.5H25.5V19.9875C25.5 19.425 24.9 18.9375 24.375 18.9375ZM35.775 19.05C35.4 18.9 34.875 18.975 34.6125 19.275L28.5 25.275V19.9875C28.5 19.425 28.125 18.975 27.5625 18.975C27 18.975 26.625 19.425 26.625 19.9875V27.75C26.625 28.1625 26.8875 28.5375 27.2625 28.6875C27.375 28.725 27.525 28.7625 27.6375 28.7625C27.9 28.7625 28.2375 28.65 28.425 28.4625L34.5 22.4625V27.75C34.5 28.3125 34.875 28.7625 35.4375 28.7625C36 28.7625 36.375 28.3125 36.375 27.75V19.9875C36.375 19.575 36.15 19.2 35.775 19.05ZM43.95 23.85L47.1 20.7C47.5125 20.2875 47.5125 19.65 47.1 19.275C46.6875 18.8625 46.05 18.8625 45.675 19.275L42.525 22.425L39.375 19.275C38.9625 18.8625 38.325 18.8625 37.95 19.275C37.5375 19.6875 37.5375 20.325 37.95 20.7L41.1 23.85L37.95 27C37.5375 27.4125 37.5375 28.05 37.95 28.425C38.1375 28.6125 38.4 28.725 38.6625 28.725C38.925 28.725 39.1875 28.6125 39.375 28.425L42.525 25.275L45.675 28.425C45.8625 28.6125 46.125 28.725 46.3875 28.725C46.65 28.725 46.9125 28.6125 47.1 28.425C47.5125 28.0125 47.5125 27.375 47.1 27L43.95 23.85ZM23.25 27.7125C23.25 28.2375 23.8125 28.725 24.375 28.725C24.9 28.725 25.5 28.2375 25.5 27.7125V23.25H23.25V27.7125Z" fill="#009900"/>
</svg>
