<svg width="48" height="48" viewBox="0 0 48 48" fill="none" xmlns="http://www.w3.org/2000/svg">
<path d="M42.8676 20.7202C42.8482 20.7202 42.8293 20.7259 42.8132 20.7367L41.9334 21.2505C41.9169 21.2607 41.9033 21.2751 41.8939 21.2922C41.8846 21.3093 41.8799 21.3285 41.8802 21.348V22.3755C41.8802 22.419 41.9008 22.452 41.9334 22.4737L42.8132 22.9867C42.8293 22.9975 42.8482 23.0033 42.8676 23.0033C42.8869 23.0033 42.9059 22.9975 42.9219 22.9867L43.8002 22.4737C43.8169 22.4632 43.8306 22.4487 43.8401 22.4314C43.8496 22.4142 43.8546 22.3948 43.8546 22.3751V21.3487C43.8548 21.3291 43.8499 21.3098 43.8403 21.2927C43.8308 21.2756 43.817 21.2613 43.8002 21.2512L42.9216 20.7371C42.9056 20.7264 42.8868 20.7203 42.8676 20.7202ZM23.7077 26.8642C23.5476 26.8642 23.3882 26.9032 23.2524 26.9797L18.9216 29.5023C18.7828 29.5839 18.6678 29.7003 18.5879 29.84C18.508 29.9797 18.4661 30.1379 18.4663 30.2988V35.3325C18.4663 35.6602 18.6396 35.9662 18.9216 36.1305L20.0616 36.7852C20.6151 37.0582 20.8104 37.0575 21.0598 37.0575C21.8736 37.0575 22.3404 36.5553 22.3404 35.6925V30.7256C22.34 30.691 22.3261 30.658 22.3017 30.6334C22.2774 30.6089 22.2445 30.5947 22.2099 30.594H21.6572C21.6225 30.5945 21.5894 30.6086 21.5649 30.6332C21.5404 30.6578 21.5264 30.6909 21.5259 30.7256V35.6936C21.5259 36.0757 21.1251 36.4586 20.4849 36.1312L19.3018 35.4431C19.2583 35.4213 19.2362 35.3658 19.2362 35.3223V30.2876C19.2362 30.2441 19.2583 30.1901 19.3018 30.168L23.6312 27.6566C23.6638 27.6348 23.7186 27.6348 23.7621 27.6566L28.0926 30.168C28.1357 30.1901 28.1571 30.2332 28.1571 30.288V35.322C28.1571 35.3763 28.1357 35.421 28.0926 35.4427L23.7621 37.9653C23.7294 37.9871 23.6747 37.9871 23.6312 37.9653L22.5246 37.2982C22.4919 37.2765 22.4484 37.2656 22.4158 37.2873C22.1121 37.4621 22.0588 37.485 21.7656 37.5832C21.7003 37.605 21.5919 37.6481 21.8087 37.7681L23.2524 38.6313C23.3934 38.7075 23.5449 38.751 23.7077 38.751C23.8704 38.751 24.0328 38.7078 24.1629 38.6535L28.4938 36.1308C28.6328 36.0492 28.748 35.9326 28.8278 35.7925C28.9077 35.6525 28.9495 35.494 28.9491 35.3328V30.2988C28.9491 29.9711 28.7758 29.6662 28.4938 29.5023L24.1629 26.9797C24.0234 26.9032 23.8668 26.8635 23.7077 26.8642ZM30.4689 29.163C30.2467 29.1639 30.0339 29.253 29.8773 29.4107C29.7207 29.5684 29.6331 29.7818 29.6338 30.0041C29.6332 30.2263 29.7208 30.4396 29.8774 30.5973C30.034 30.7549 30.2467 30.8439 30.4689 30.8448C30.9253 30.8448 31.3044 30.4627 31.3044 30.0041C31.3033 29.7824 31.215 29.57 31.0587 29.4127C30.9025 29.2555 30.6906 29.1655 30.4689 29.163ZM30.4577 29.3051C30.5501 29.3039 30.6419 29.3212 30.7276 29.3558C30.8133 29.3905 30.8913 29.4418 30.957 29.5068C31.0227 29.5719 31.0748 29.6493 31.1103 29.7347C31.1458 29.8201 31.164 29.9116 31.1638 30.0041C31.1638 30.3866 30.8488 30.7143 30.4581 30.7143C30.0786 30.7143 29.7636 30.3971 29.7636 30.0041C29.7636 29.6111 30.0891 29.3051 30.4577 29.3051ZM30.1543 29.5342V30.495H30.3396V30.114H30.5023C30.5676 30.114 30.5889 30.1357 30.5998 30.1901C30.5998 30.2013 30.6321 30.4413 30.6321 30.4848H30.8271C30.8053 30.4413 30.7944 30.3101 30.7836 30.2336C30.7731 30.1136 30.7626 30.0262 30.6321 30.0153C30.6973 29.9932 30.8057 29.9606 30.8057 29.7858C30.8057 29.5346 30.5882 29.5346 30.4802 29.5346L30.1543 29.5342ZM30.3174 29.6872H30.4689C30.5237 29.6872 30.6099 29.6872 30.6099 29.8181C30.6099 29.8616 30.5889 29.9497 30.4689 29.9497H30.3171L30.3174 29.6872ZM24.8912 30.441C23.6537 30.441 22.9157 30.9652 22.9157 31.8498C22.9157 32.8001 23.6537 33.0611 24.8368 33.1815C26.2581 33.3236 26.3668 33.5313 26.3668 33.8152C26.3668 34.3065 25.9753 34.5142 25.0637 34.5142C23.9132 34.5142 23.6638 34.23 23.5768 33.6513C23.5768 33.5857 23.5236 33.5426 23.4583 33.5426H22.8939C22.8594 33.543 22.8265 33.5569 22.8022 33.5814C22.7779 33.6059 22.7643 33.639 22.7642 33.6735C22.7642 34.416 23.1546 35.2897 25.0543 35.2897C26.4212 35.2897 27.2136 34.743 27.2136 33.7822C27.2136 32.8428 26.5836 32.592 25.2493 32.4172C23.9031 32.2425 23.7624 32.1442 23.7624 31.8277C23.7624 31.5656 23.8817 31.2165 24.8799 31.2165C25.7698 31.2165 26.1058 31.4133 26.2363 32.0137C26.2429 32.0408 26.2581 32.065 26.2797 32.0826C26.3013 32.1002 26.3281 32.1103 26.3559 32.1112H26.9308C26.9638 32.1112 26.9964 32.0898 27.0186 32.0681C27.0382 32.0389 27.0493 32.0047 27.0504 31.9695C26.9638 30.9213 26.2806 30.441 24.8912 30.441Z" fill="#5FA04E"/>
<path d="M32.277 9.24905C32.2308 9.24837 32.1853 9.25989 32.145 9.28243C32.1031 9.30702 32.0682 9.34191 32.0436 9.38378C32.019 9.42565 32.0055 9.47312 32.0044 9.52168V16.6201C32.0044 16.6853 31.9706 16.7513 31.9058 16.7948C31.8758 16.8109 31.8423 16.8193 31.8083 16.8193C31.7742 16.8193 31.7408 16.8109 31.7108 16.7948L30.561 16.1292C30.4766 16.081 30.3811 16.0556 30.2839 16.0556C30.1867 16.0556 30.0912 16.081 30.0068 16.1292L25.4063 18.8048C25.3211 18.8528 25.2502 18.9224 25.2006 19.0067C25.151 19.0909 25.1246 19.1867 25.1239 19.2844V24.6244C25.1239 24.8209 25.2326 25.0069 25.4063 25.1052L30.0075 27.7808C30.0919 27.8289 30.1873 27.8543 30.2845 27.8543C30.3816 27.8543 30.477 27.8289 30.5614 27.7808L35.1623 25.1052C35.3359 25.0069 35.4446 24.8209 35.4446 24.6244V11.3131C35.4446 11.1057 35.3359 10.9193 35.1623 10.8214L32.4173 9.28243C32.3738 9.26067 32.3256 9.24924 32.277 9.24905ZM5.13265 15.9113C5.04602 15.9113 4.9594 15.9428 4.88365 15.9863L0.282396 18.6522C0.195919 18.7014 0.124152 18.7728 0.0745102 18.859C0.0248683 18.9453 -0.000847091 19.0432 2.12862e-05 19.1427L0.0112713 26.3059C0.0112713 26.4046 0.0648963 26.5028 0.151896 26.5467C0.192228 26.5731 0.239412 26.5872 0.287646 26.5872C0.335881 26.5872 0.383064 26.5731 0.423396 26.5467L3.15865 24.9743C3.33227 24.8761 3.4399 24.6901 3.4399 24.4936V21.1411C3.4399 20.9446 3.54865 20.7586 3.72265 20.6603L4.88365 19.9834C4.97027 19.9287 5.06852 19.9069 5.16602 19.9069C5.26352 19.9069 5.3614 19.9287 5.43752 19.9834L6.59852 20.6603C6.77215 20.7586 6.8809 20.9446 6.8809 21.1411V24.4936C6.8809 24.6901 6.9889 24.8761 7.16215 24.9743L9.87565 26.5467C9.91782 26.5736 9.96681 26.5879 10.0168 26.5879C10.0669 26.5879 10.1158 26.5736 10.158 26.5467C10.2012 26.5232 10.2372 26.4884 10.262 26.4459C10.2869 26.4035 10.2997 26.3551 10.299 26.3059V19.1427C10.299 18.9462 10.1903 18.7602 10.0163 18.6616L5.42627 15.9863C5.34894 15.9453 5.26437 15.9197 5.17727 15.9109L5.13265 15.9113ZM42.8828 15.9901C42.7879 15.9901 42.6938 16.0148 42.6068 16.0643L38.0048 18.7384C37.8311 18.8367 37.7235 19.0227 37.7235 19.2196V24.5596C37.7235 24.7561 37.8311 24.9421 38.0048 25.0403L42.5738 27.6604C42.656 27.7087 42.7497 27.7341 42.8451 27.7341C42.9405 27.7341 43.0341 27.7087 43.1164 27.6604L45.8839 26.1106C45.927 26.087 45.9629 26.0522 45.9877 26.0097C46.0125 25.9673 46.0252 25.9189 46.0245 25.8698C46.0251 25.8208 46.0123 25.7726 45.9875 25.7303C45.9627 25.688 45.9269 25.6533 45.8839 25.6298L41.2613 22.9538C41.2192 22.9291 41.1842 22.894 41.1596 22.852C41.135 22.8099 41.1216 22.7622 41.1206 22.7134V21.0424C41.1201 20.9934 41.1329 20.9452 41.1577 20.9029C41.1824 20.8606 41.2183 20.8259 41.2613 20.8024L42.705 19.9722C42.7472 19.9453 42.7962 19.931 42.8462 19.931C42.8962 19.931 42.9452 19.9453 42.9874 19.9722L44.4296 20.8021C44.4719 20.8266 44.5071 20.8616 44.532 20.9037C44.5568 20.9458 44.5704 20.9936 44.5714 21.0424V22.3531C44.5714 22.4517 44.6254 22.5499 44.712 22.5934C44.7542 22.6204 44.8033 22.6347 44.8534 22.6347C44.9035 22.6347 44.9526 22.6204 44.9948 22.5934L47.7289 20.9884C47.8127 20.9395 47.8821 20.8692 47.9298 20.7846C47.9775 20.7001 48.0019 20.6044 48.0004 20.5073V19.2079C48.0004 19.0114 47.8916 18.8266 47.7289 18.7279L43.1599 16.0639C43.0756 16.0157 42.9803 15.9901 42.8831 15.9897L42.8828 15.9901ZM30.2839 19.9778C30.3083 19.9778 30.333 19.9834 30.3551 19.9947L31.9279 20.9119C31.9714 20.9337 31.9935 20.9877 31.9935 21.0316V22.8661C31.9935 22.9208 31.9714 22.9651 31.9279 22.9868L30.3548 23.9041C30.3327 23.9148 30.3085 23.9205 30.2839 23.9205C30.2593 23.9205 30.2351 23.9148 30.213 23.9041L28.6399 22.9868C28.5964 22.9651 28.5743 22.9099 28.5743 22.8661V21.0316C28.5743 20.9768 28.5968 20.9337 28.6399 20.9116L30.213 19.9947C30.235 19.9833 30.2591 19.9775 30.2839 19.9778Z" fill="#333333"/>
<path d="M17.9932 16.0847C17.909 16.0362 17.8136 16.0107 17.7164 16.0107C17.6193 16.0107 17.5239 16.0362 17.4397 16.0847L12.8707 18.7385C12.7869 18.7874 12.7177 18.8576 12.67 18.942C12.6223 19.0264 12.5978 19.122 12.5992 19.2189V24.5368C12.5992 24.7337 12.7079 24.9193 12.8707 25.0175L17.4397 27.671C17.5239 27.7195 17.6193 27.745 17.7164 27.745C17.8136 27.745 17.909 27.7195 17.9932 27.671L22.5618 25.0175C22.7354 24.9193 22.8333 24.7337 22.8333 24.5368V19.2189C22.8333 19.0224 22.7245 18.8364 22.5618 18.7385L17.9932 16.0847Z" fill="url(#paint0_linear_477_713)"/>
<path d="M22.5729 18.7385L17.9825 16.0846C17.9375 16.0618 17.8902 16.0436 17.8415 16.0303L12.6973 24.8863C12.7408 24.941 12.7948 24.9845 12.8491 25.0175L17.4399 27.671C17.57 27.7475 17.7219 27.7693 17.8629 27.7254L22.6925 18.8368C22.6608 18.7952 22.6198 18.7616 22.5729 18.7385Z" fill="url(#paint1_linear_477_713)"/>
<path d="M22.5726 25.0173C22.7031 24.9408 22.8006 24.8099 22.8441 24.6678L17.8191 16.0192C17.6894 15.9974 17.548 16.0083 17.4287 16.0848L12.8706 18.7274L17.7869 27.7473C17.8517 27.7364 17.9279 27.7147 17.9931 27.6817L22.5726 25.0173Z" fill="url(#paint2_linear_477_713)"/>
<defs>
<linearGradient id="paint0_linear_477_713" x1="19.5769" y1="18.0608" x2="15.4044" y2="26.52" gradientUnits="userSpaceOnUse">
<stop stop-color="#3F873F"/>
<stop offset="0.33" stop-color="#3F8B3D"/>
<stop offset="0.637" stop-color="#3E9638"/>
<stop offset="0.934" stop-color="#3DA92E"/>
<stop offset="1" stop-color="#3DAE2B"/>
</linearGradient>
<linearGradient id="paint1_linear_477_713" x1="17.0223" y1="22.4988" x2="28.6643" y2="13.95" gradientUnits="userSpaceOnUse">
<stop offset="0.138" stop-color="#3F873F"/>
<stop offset="0.402" stop-color="#52A044"/>
<stop offset="0.713" stop-color="#64B749"/>
<stop offset="0.908" stop-color="#6ABF4B"/>
</linearGradient>
<linearGradient id="paint2_linear_477_713" x1="12.432" y1="21.8762" x2="23.0041" y2="21.8762" gradientUnits="userSpaceOnUse">
<stop offset="0.092" stop-color="#6ABF4B"/>
<stop offset="0.287" stop-color="#64B749"/>
<stop offset="0.598" stop-color="#52A044"/>
<stop offset="0.862" stop-color="#3F873F"/>
</linearGradient>
</defs>
</svg>
