<svg width="28" height="28" viewBox="0 0 28 28" fill="none" xmlns="http://www.w3.org/2000/svg">
<g id="heroicons-solid/camera">
<g id="Subtract">
<path d="M14 10.5C11.5838 10.5 9.625 12.4588 9.625 14.875C9.625 17.2912 11.5838 19.25 14 19.25C16.4162 19.25 18.375 17.2912 18.375 14.875C18.375 12.4588 16.4162 10.5 14 10.5Z" fill="#0F172A"/>
<path fill-rule="evenodd" clip-rule="evenodd" d="M10.9017 3.58298C11.9275 3.52789 12.9606 3.5 14 3.5C15.0394 3.5 16.0725 3.52789 17.0983 3.58298C18.2272 3.6436 19.233 4.26547 19.8196 5.20548L20.7776 6.74083C21.0566 7.18783 21.5302 7.49153 22.0728 7.56864C22.5224 7.63254 22.9703 7.70169 23.4165 7.77604C25.087 8.05441 26.25 9.51749 26.25 11.1697V21C26.25 22.933 24.683 24.5 22.75 24.5H5.25C3.317 24.5 1.75 22.933 1.75 21V11.1697C1.75 9.51748 2.913 8.0544 4.5835 7.77603C5.02968 7.70168 5.47761 7.63253 5.92723 7.56863C6.46982 7.49153 6.94344 7.18782 7.22237 6.74082L8.18045 5.20548C8.76703 4.26547 9.77278 3.6436 10.9017 3.58298ZM7.875 14.875C7.875 11.4923 10.6173 8.75 14 8.75C17.3827 8.75 20.125 11.4923 20.125 14.875C20.125 18.2577 17.3827 21 14 21C10.6173 21 7.875 18.2577 7.875 14.875ZM21.875 13.125C22.3582 13.125 22.75 12.7332 22.75 12.25C22.75 11.7668 22.3582 11.375 21.875 11.375C21.3918 11.375 21 11.7668 21 12.25C21 12.7332 21.3918 13.125 21.875 13.125Z" fill="#0F172A"/>
</g>
</g>
</svg>
