<svg width="48" height="48" viewBox="0 0 48 48" fill="none" xmlns="http://www.w3.org/2000/svg">
<path d="M24.9213 0.00510975C24.4888 -0.023353 24.0569 0.0674891 23.6725 0.267726C23.2882 0.467963 22.9662 0.769904 22.7418 1.14061L4.7905 30.4176C4.55665 30.7989 4.43438 31.2381 4.43756 31.6854C4.44074 32.1327 4.56925 32.5702 4.80851 32.9481L13.6465 46.8929C13.927 47.3322 14.343 47.6681 14.8316 47.8497C15.3202 48.0313 15.8547 48.0486 16.354 47.899L41.8585 40.2464C42.1861 40.1483 42.4888 39.9811 42.7461 39.7559C43.0035 39.5308 43.2095 39.2531 43.3503 38.9415C43.4911 38.6299 43.5633 38.2917 43.5622 37.9497C43.561 37.6078 43.4864 37.2701 43.3435 36.9595L26.9485 1.39073C26.7701 0.996318 26.4868 0.658489 26.1295 0.414132C25.7722 0.169775 25.3546 0.0282853 24.9224 0.00510975H24.9213ZM25.5944 8.98636C25.785 8.96369 25.9779 9.00392 26.1436 9.10092C26.3093 9.19792 26.4388 9.34638 26.5124 9.52373L37.8224 35.6927C37.8728 35.809 37.8979 35.9347 37.8962 36.0614C37.8944 36.1882 37.8658 36.3131 37.8122 36.4279C37.7586 36.5428 37.6813 36.645 37.5853 36.7277C37.4893 36.8105 37.3769 36.872 37.2554 36.9081L19.6319 42.1671C19.4838 42.2111 19.3268 42.2161 19.1763 42.1815C19.0257 42.147 18.8866 42.0741 18.7725 41.9699C18.6584 41.8658 18.5732 41.7339 18.5251 41.5871C18.4769 41.4403 18.4676 41.2836 18.4979 41.1321L24.8091 9.70261C24.8443 9.51374 24.9403 9.34155 25.0824 9.21225C25.2245 9.08295 25.4049 9.00363 25.5963 8.98636H25.5944Z" fill="#2D3748"/>
</svg>
