<svg width="48" height="48" viewBox="0 0 48 48" fill="none" xmlns="http://www.w3.org/2000/svg">
<path d="M45.6748 34.9126C43.1623 36.2251 30.1498 41.5501 27.3748 43.0126C24.5998 44.4751 23.0623 44.4376 20.8873 43.3876C18.7123 42.3376 4.8748 36.7876 2.3623 35.5876C1.1248 34.9876 0.487305 34.5001 0.487305 34.0126V29.2501C0.487305 29.2501 18.4873 25.3126 21.4123 24.3001C24.3373 23.2501 25.3123 23.2126 27.7873 24.1126C30.2623 25.0126 45.0748 27.6751 47.5123 28.5751V33.2626C47.5123 33.7501 46.9498 34.2751 45.6748 34.9126Z" fill="#A41E11"/>
<path d="M45.675 30.1874C43.1625 31.4999 30.15 36.8249 27.375 38.2874C24.6 39.7499 23.0625 39.7124 20.8875 38.6624C18.7125 37.6124 4.87499 32.0249 2.36249 30.8249C-0.112513 29.6249 -0.187513 28.7999 2.24999 27.8624C4.68749 26.8874 18.45 21.4874 21.375 20.4749C24.3 19.4249 25.275 19.3874 27.75 20.2874C30.225 21.1874 43.1625 26.3249 45.6 27.2249C48.1125 28.1249 48.1875 28.8749 45.675 30.1874Z" fill="#D82C20"/>
<path d="M45.6748 27.1874C43.1623 28.4999 30.1498 33.8249 27.3748 35.2874C24.5998 36.7124 23.0623 36.7124 20.8873 35.6624C18.7123 34.6124 4.8748 29.0249 2.3623 27.8249C1.1248 27.2249 0.487305 26.7374 0.487305 26.2499V21.4874C0.487305 21.4874 18.4873 17.5499 21.4123 16.5374C24.3373 15.4874 25.3123 15.4499 27.7873 16.3499C30.2623 17.2499 45.0748 19.9124 47.5123 20.8124V25.4999C47.5123 25.9874 46.9498 26.5124 45.6748 27.1874Z" fill="#A41E11"/>
<path d="M45.6751 22.4252C43.1626 23.7377 30.1501 29.0627 27.3751 30.5252C24.6001 31.9502 23.0626 31.9502 20.8876 30.9002C18.7126 29.8502 4.87513 24.2627 2.36263 23.0627C-0.149867 21.8627 -0.187367 21.0377 2.25013 20.1002C4.68763 19.1252 18.4501 13.7252 21.3751 12.7127C24.3001 11.6627 25.2751 11.6252 27.7501 12.5252C30.2251 13.4252 43.1626 18.5627 45.6001 19.4627C48.1126 20.3627 48.1876 21.1127 45.6751 22.4252Z" fill="#D82C20"/>
<path d="M45.6752 19.125C43.1627 20.4375 30.1502 25.7625 27.3752 27.225C24.6002 28.65 23.0627 28.65 20.8877 27.6C18.7127 26.5875 4.8752 21 2.3627 19.8C1.1252 19.2 0.450195 18.7125 0.450195 18.225V13.4625C0.450195 13.4625 18.4502 9.52499 21.3752 8.51249C24.3002 7.46249 25.2752 7.42499 27.7502 8.32499C30.2252 9.22499 45.0377 11.8875 47.4752 12.7875V17.475C47.5127 17.9625 46.9502 18.45 45.6752 19.125Z" fill="#A41E11"/>
<path d="M45.6751 14.3623C43.1626 15.6748 30.1501 20.9998 27.3751 22.4623C24.6001 23.8873 23.0626 23.8873 20.8876 22.8373C18.7126 21.7873 4.87513 16.2373 2.36263 15.0373C-0.149867 13.8373 -0.187367 13.0123 2.25013 12.0748C4.68763 11.0998 18.4501 5.6998 21.3751 4.6873C24.3001 3.6373 25.2751 3.5998 27.7501 4.4998C30.2251 5.3998 43.1626 10.5373 45.6001 11.4373C48.1126 12.3373 48.1876 13.0873 45.6751 14.3623Z" fill="#D82C20"/>
<path d="M30.1502 9.7874L26.1002 10.2374L25.1627 12.4124L23.7002 9.9749L19.0127 9.5624L22.5002 8.2874L21.4502 6.3374L24.7502 7.6124L27.8252 6.5999L27.0002 8.6249L30.1502 9.7874ZM24.9377 20.4374L17.3252 17.2874L28.2377 15.6374L24.9377 20.4374Z" fill="white"/>
<path d="M14.3999 15.5249C17.6101 15.5249 20.2124 14.5175 20.2124 13.2749C20.2124 12.0323 17.6101 11.0249 14.3999 11.0249C11.1897 11.0249 8.5874 12.0323 8.5874 13.2749C8.5874 14.5175 11.1897 15.5249 14.3999 15.5249Z" fill="white"/>
<path d="M34.9873 10.3877L41.4373 12.9377L34.9873 15.4877V10.3877Z" fill="#7A0C00"/>
<path d="M27.8623 13.2377L34.9873 10.3877V15.4877L34.2748 15.7877L27.8623 13.2377Z" fill="#AD2115"/>
</svg>
