<svg width="48" height="30" viewBox="0 0 48 30" fill="none" xmlns="http://www.w3.org/2000/svg">
<path d="M24.3781 18.0441C24.3781 19.0325 23.643 19.8487 22.6897 19.9768C21.5595 22.6112 19.2577 25.1813 16.1041 27.0021C13.4573 28.5304 10.6524 29.2759 8.13655 29.2759C4.93696 29.2759 2.20429 28.0702 0.856053 25.7351C-1.33357 21.9427 0.799798 16.651 5.85654 13.0753C5.85673 13.8921 5.92067 14.6411 6.06375 15.3056C5.65571 15.6497 5.28499 15.9443 4.92309 16.3238C3.99188 17.2998 3.24744 18.3113 2.73815 19.3912C1.78819 21.4055 1.72388 23.3095 2.5572 24.7529C3.49609 26.379 5.5297 27.3115 8.13655 27.3115C10.3955 27.3115 12.8762 26.5974 15.1219 25.301C16.4296 24.546 17.5924 23.6394 18.5778 22.606C19.5092 21.6298 20.2396 20.5872 20.7489 19.5073C20.7931 19.4131 20.8353 19.3194 20.8754 19.226C20.6162 18.8866 20.476 18.4712 20.4766 18.0441C20.4766 16.9668 21.3499 16.0934 22.4273 16.0934C23.5048 16.0934 24.3781 16.9668 24.3781 18.0441ZM15.6722 0C20.0277 0 23.6376 4.6022 24.2886 10.6172C23.6117 10.2093 22.8965 9.86862 22.1534 9.59988C22.0654 9.13868 21.9552 8.68199 21.8233 8.23139C21.4434 6.93678 20.9058 5.78299 20.2251 4.80172C18.9557 2.97213 17.3387 1.96442 15.6722 1.96442C14.0058 1.96442 12.3888 2.97213 11.1194 4.80191C10.4387 5.78299 9.90107 6.93678 9.52116 8.23139C9.11913 9.60157 8.9153 11.0619 8.9153 12.5718C8.9153 14.0817 9.11913 15.5421 9.52098 16.9121C9.90107 18.2067 10.4387 19.3605 11.1194 20.3417C11.1899 20.4432 11.2614 20.5422 11.3341 20.6388C11.4523 20.6167 11.5723 20.6055 11.6926 20.6054C12.7701 20.6054 13.6433 21.4788 13.6433 22.5561C13.6433 23.6334 12.7701 24.5068 11.6926 24.5068C10.6151 24.5068 9.74187 23.6334 9.74187 22.5561C9.74187 22.3356 9.779 22.1237 9.8465 21.9261C8.06923 19.6245 6.95088 16.2867 6.95088 12.5718C6.95088 5.62848 10.8555 0 15.6722 0ZM23.1892 27.3111C25.5813 27.3111 27.4908 26.5258 28.5145 25.1401C29.1096 25.4547 29.7712 25.646 30.4695 25.7431C29.1136 28.0524 26.3704 29.2755 23.1892 29.2755C21.222 29.2755 19.0785 28.8199 16.9717 27.8906C17.7916 27.4377 18.5178 27.0002 19.0558 26.5935C20.4483 27.0629 21.8573 27.3111 23.1892 27.3111ZM26.4167 16.2921C25.4311 15.2587 24.2684 14.3521 22.9608 13.5972C20.7151 12.3005 18.2345 11.5864 15.9758 11.5864C15.4821 11.5864 15.009 11.62 14.5601 11.6852L14.5263 11.6909C14.3223 12.5501 13.5505 13.1897 12.6287 13.1897C11.5514 13.1897 10.6779 12.3162 10.6779 11.239C10.6779 10.1615 11.5514 9.28804 12.6287 9.28804C13.1147 9.28731 13.5833 9.46876 13.942 9.79658L13.9499 9.79489C14.5963 9.68013 15.2747 9.62219 15.9753 9.62219C18.4916 9.622 21.2957 10.3676 23.9428 11.896C28.2981 14.4106 31.0319 18.3541 31.2931 21.9225C30.5021 21.8334 29.8327 21.5711 29.2173 21.2317C29.0937 20.6358 28.8835 20.0186 28.5876 19.3908C28.0783 18.3107 27.3479 17.2682 26.4167 16.2921Z" fill="#999999"/>
<path d="M46.3183 13.3288C47.1824 14.6301 45.4225 15.6482 44.6344 14.3395C44.1542 13.5195 43.4174 12.7525 42.4513 12.0825C41.4703 11.4019 40.3163 10.8643 39.0219 10.4843C37.6517 10.0823 36.1913 9.87848 34.6814 9.87848C33.1716 9.87848 31.7112 10.0823 30.341 10.4843C30.1082 10.5528 29.8773 10.6275 29.6485 10.7082C29.6204 11.7611 28.7587 12.6063 27.6989 12.6063C26.6216 12.6063 25.7482 11.7328 25.7482 10.6555C25.7482 9.57808 26.6216 8.70463 27.6989 8.70463C28.0574 8.70463 28.3931 8.80176 28.6817 8.97053C30.465 8.29734 32.5085 7.91406 34.6814 7.91406C39.9375 7.91406 44.4405 10.1519 46.3183 13.3288ZM47.9581 18.0439C47.9581 19.0221 47.2381 19.832 46.2994 19.9728C44.4105 23.1334 39.9203 25.3568 34.6813 25.3568C30.59 25.3568 26.9554 24.0011 24.6596 21.902C23.5492 20.7857 24.8858 19.4887 25.9216 20.3947C26.232 20.6827 26.5628 20.9479 26.9113 21.1883C27.8926 21.869 29.0464 22.4066 30.341 22.7865C31.711 23.1885 33.1714 23.3924 34.6813 23.3924C36.1911 23.3924 37.6515 23.1885 39.0217 22.7867C40.3161 22.4066 41.4701 21.869 42.4512 21.1883C43.3025 20.5976 43.9751 19.932 44.452 19.2209C44.1949 18.8824 44.0559 18.4689 44.0563 18.0439C44.0563 16.9666 44.9299 16.0931 46.0074 16.0931C47.0849 16.0931 47.9581 16.9666 47.9581 18.0439Z" fill="#89D96D"/>
</svg>
