<svg width="48" height="48" viewBox="0 0 48 48" fill="none" xmlns="http://www.w3.org/2000/svg">
<path d="M21.55 34.6959H11.612C11.5353 34.6914 11.4584 34.7025 11.3861 34.7288C11.3138 34.755 11.2477 34.7957 11.1917 34.8484C11.1357 34.9012 11.0912 34.9648 11.0607 35.0354C11.0302 35.106 11.0145 35.182 11.0145 35.2589C11.0145 35.3358 11.0302 35.4119 11.0607 35.4825C11.0912 35.5531 11.1357 35.6167 11.1917 35.6694C11.2477 35.7222 11.3138 35.7629 11.3861 35.7891C11.4584 35.8153 11.5353 35.8265 11.612 35.8219H21.552C21.6288 35.8265 21.7057 35.8153 21.778 35.7891C21.8502 35.7629 21.9164 35.7222 21.9724 35.6694C22.0283 35.6167 22.0729 35.5531 22.1034 35.4825C22.1339 35.4119 22.1496 35.3358 22.1496 35.2589C22.1496 35.182 22.1339 35.106 22.1034 35.0354C22.0729 34.9648 22.0283 34.9012 21.9724 34.8484C21.9164 34.7957 21.8502 34.755 21.778 34.7288C21.7057 34.7025 21.6288 34.6914 21.552 34.6959M36.192 34.6959H26.254C26.1773 34.6914 26.1004 34.7025 26.0281 34.7288C25.9558 34.755 25.8897 34.7957 25.8337 34.8484C25.7777 34.9012 25.7332 34.9648 25.7027 35.0354C25.6722 35.106 25.6565 35.182 25.6565 35.2589C25.6565 35.3358 25.6722 35.4119 25.7027 35.4825C25.7332 35.5531 25.7777 35.6167 25.8337 35.6694C25.8897 35.7222 25.9558 35.7629 26.0281 35.7891C26.1004 35.8153 26.1773 35.8265 26.254 35.8219H36.192C36.3356 35.8134 36.4704 35.7503 36.569 35.6457C36.6676 35.5411 36.7225 35.4027 36.7225 35.2589C36.7225 35.1152 36.6676 34.9768 36.569 34.8722C36.4704 34.7675 36.3356 34.7045 36.192 34.6959ZM21.524 21.7459H11.614C11.5373 21.7414 11.4604 21.7525 11.3881 21.7788C11.3158 21.805 11.2497 21.8457 11.1937 21.8984C11.1377 21.9512 11.0932 22.0148 11.0627 22.0854C11.0322 22.156 11.0165 22.2321 11.0165 22.3089C11.0165 22.3858 11.0322 22.4619 11.0627 22.5325C11.0932 22.6031 11.1377 22.6667 11.1937 22.7194C11.2497 22.7722 11.3158 22.8129 11.3881 22.8391C11.4604 22.8654 11.5373 22.8765 11.614 22.8719H21.522C21.5988 22.8765 21.6757 22.8654 21.748 22.8391C21.8202 22.8129 21.8864 22.7722 21.9424 22.7194C21.9983 22.6667 22.0429 22.6031 22.0734 22.5325C22.1039 22.4619 22.1196 22.3858 22.1196 22.3089C22.1196 22.2321 22.1039 22.156 22.0734 22.0854C22.0429 22.0148 21.9983 21.9512 21.9424 21.8984C21.8864 21.8457 21.8202 21.805 21.748 21.7788C21.6757 21.7525 21.5988 21.7414 21.522 21.7459M36.162 21.7459H26.252C26.1753 21.7414 26.0984 21.7525 26.0261 21.7788C25.9538 21.805 25.8877 21.8457 25.8317 21.8984C25.7757 21.9512 25.7312 22.0148 25.7007 22.0854C25.6702 22.156 25.6545 22.2321 25.6545 22.3089C25.6545 22.3858 25.6702 22.4619 25.7007 22.5325C25.7312 22.6031 25.7757 22.6667 25.8317 22.7194C25.8877 22.7722 25.9538 22.8129 26.0261 22.8391C26.0984 22.8654 26.1753 22.8765 26.252 22.8719H36.162C36.3056 22.8634 36.4404 22.8003 36.539 22.6957C36.6376 22.5911 36.6925 22.4527 36.6925 22.3089C36.6925 22.1652 36.6376 22.0268 36.539 21.9222C36.4404 21.8175 36.3056 21.7545 36.162 21.7459ZM37.266 3.34594H28.584C28.2738 2.37486 27.663 1.5275 26.8398 0.92625C26.0165 0.325 25.0235 0.000976562 24.004 0.000976562C22.9846 0.000976563 21.9916 0.325 21.1683 0.92625C20.3451 1.5275 19.7342 2.37486 19.424 3.34594H10.732C9.08998 3.34647 7.51533 3.99901 6.35422 5.16012C5.19311 6.32123 4.54057 7.89589 4.54004 9.53794V41.8059C4.54004 43.4487 5.19262 45.0242 6.35422 46.1858C7.51582 47.3474 9.09129 47.9999 10.734 47.9999H37.266C38.9084 47.9994 40.4834 47.3466 41.6446 46.1851C42.8057 45.0235 43.458 43.4483 43.458 41.8059V9.53994C43.4575 7.89789 42.805 6.32324 41.6439 5.16212C40.4827 4.00101 38.9081 3.34847 37.266 3.34794M19.856 4.47394C19.9871 4.47715 20.1151 4.43427 20.2178 4.35277C20.3205 4.27127 20.3914 4.15631 20.418 4.02794C20.5966 3.20644 21.0509 2.47076 21.7054 1.9432C22.36 1.41563 23.1754 1.12794 24.016 1.12794C24.8567 1.12794 25.6721 1.41563 26.3266 1.9432C26.9812 2.47076 27.4355 3.20644 27.614 4.02794C27.6408 4.15666 27.7119 4.27188 27.815 4.35342C27.9181 4.43496 28.0466 4.47763 28.178 4.47394H31.206V8.15994C31.2055 8.60747 31.0275 9.03651 30.7111 9.35296C30.3946 9.6694 29.9656 9.84741 29.518 9.84794H18.51C18.0625 9.84741 17.6335 9.6694 17.317 9.35296C17.0006 9.03651 16.8226 8.60747 16.822 8.15994V4.47194L19.856 4.47394ZM42.332 41.8079C42.332 44.6079 40.064 46.8759 37.266 46.8759H10.734C9.39027 46.8754 8.10172 46.3412 7.15171 45.3909C6.20171 44.4405 5.66804 43.1517 5.66804 41.8079V9.53994C5.66804 8.19636 6.20178 6.9078 7.15184 5.95774C8.1019 5.00768 9.39045 4.47394 10.734 4.47394H15.694V8.15994C15.694 9.71394 16.954 10.9739 18.51 10.9739H29.49C31.044 10.9739 32.304 9.71394 32.304 8.15994V4.47194H37.264C40.064 4.47194 42.332 6.73994 42.332 9.53794V41.8079Z" fill="black"/>
</svg>
