<svg width="48" height="48" viewBox="0 0 48 48" fill="none" xmlns="http://www.w3.org/2000/svg">
<path d="M37.14 18.8679C35.7728 18.4374 35.067 18.5825 33.6334 18.4254C31.4172 18.1835 30.534 17.3158 30.1594 15.083C29.9498 13.8365 30.1973 12.0114 29.6622 10.8815C28.6388 8.7268 26.244 7.76042 23.8384 8.31205C21.807 8.77855 20.1169 10.8118 20.0232 12.899C19.9163 15.2822 21.2719 17.3158 23.5995 18.0178C24.7058 18.3515 25.8807 18.5195 27.0357 18.6047C29.154 18.7595 29.3168 19.9389 29.8894 20.9098C30.2509 21.5218 30.6008 22.1248 30.6008 23.9499C30.6008 25.775 30.2487 26.3777 29.8898 26.9897C29.3168 27.9583 28.6099 28.5928 26.4915 28.7495C25.3365 28.835 24.159 29.003 23.0558 29.3372C20.7278 30.041 19.3722 32.072 19.479 34.4555C19.5728 36.5428 21.2629 38.576 23.2943 39.0425C25.6999 39.596 28.0947 38.6278 29.118 36.473C29.6554 35.3432 29.9498 34.0629 30.1594 32.8168C30.5363 30.5837 31.4194 29.7159 33.6334 29.4737C35.067 29.3169 36.5509 29.4737 37.8945 28.7094C39.3139 27.6707 40.5825 26.1107 40.5825 23.9499C40.5825 21.7884 39.2157 19.5227 37.14 18.8679Z" fill="#F44250"/>
<path d="M14.4 29.0149C11.6063 29.0149 9.32701 26.7281 9.32701 23.9242C9.32701 21.1204 11.6059 18.834 14.3996 18.834C17.1934 18.834 19.4726 21.1207 19.4726 23.9242C19.4726 26.7255 17.1915 29.0149 14.3996 29.0149H14.4ZM5.05501 39.36C2.26501 39.3532 -0.006735 37.0575 1.50033e-05 34.2514C0.006765 31.4501 2.29464 29.1701 5.09064 29.1791C7.88214 29.1859 10.1543 31.4816 10.1456 34.2874C10.1389 37.0864 7.85064 39.3667 5.05501 39.36ZM42.747 39.36C39.9488 39.3754 37.6523 37.1044 37.6361 34.3076C37.6208 31.4996 39.8839 29.1949 42.6709 29.1791C45.4691 29.1634 47.766 31.4344 47.7818 34.2311C47.7971 37.0369 45.534 39.3442 42.747 39.36Z" fill="#121212"/>
</svg>
