<svg width="48" height="48" viewBox="0 0 48 48" fill="none" xmlns="http://www.w3.org/2000/svg">
<path d="M24.0015 9.60059C17.6013 9.60059 13.6027 12.7993 12.0015 19.1995C14.4007 16.0003 17.2016 14.8007 20.4007 15.6006C22.2273 16.0558 23.5327 17.3803 24.9783 18.8481C27.3311 21.2357 30.0543 23.9998 36.0015 23.9998C42.4012 23.9998 46.4002 20.8007 48.0015 14.3991C45.6015 17.5998 42.8016 18.8001 39.6018 17.9998C37.7756 17.5442 36.4717 16.2201 35.0242 14.7523C32.673 12.3647 29.9505 9.60059 24.0015 9.60059ZM12.0015 23.9998C5.60171 23.9998 1.60271 27.199 0.00146484 33.6006C2.40121 30.3998 5.20097 29.1996 8.40072 29.9998C10.2273 30.4555 11.5327 31.7796 12.9783 33.2473C15.3311 35.635 18.0543 38.3991 24.0015 38.3991C30.4012 38.3991 34.4002 35.2003 36.0015 28.8002C33.6015 31.9995 30.8016 33.1991 27.6018 32.3991C25.7756 31.9438 24.4717 30.6193 23.0242 29.1516C20.673 26.764 17.9505 23.9998 12.0015 23.9998Z" fill="#38BDF8"/>
</svg>
