<svg width="48" height="44" viewBox="0 0 48 44" fill="none" xmlns="http://www.w3.org/2000/svg">
<path d="M29.6212 26.7162L28.7006 28.315C28.5642 28.5516 28.368 28.7481 28.1316 28.8847C27.8952 29.0213 27.627 29.0933 27.3539 29.0933H20.3006C20.0275 29.0933 19.7593 29.0213 19.5229 28.8847C19.2865 28.7481 19.0903 28.5516 18.9539 28.315L18.0331 26.7162H29.6212ZM32.1988 22.2406L30.5754 25.0594H17.0791L15.4557 22.2406H32.1988ZM30.635 17.8639L32.2014 20.5838H15.4531L17.0195 17.8639H30.635ZM27.3537 13.7266C27.6268 13.7266 27.8951 13.7985 28.1315 13.9351C28.368 14.0718 28.5642 14.2683 28.7006 14.5049L29.6808 16.2072H17.9737L18.9541 14.5049C19.0904 14.2683 19.2867 14.0718 19.5231 13.9352C19.7595 13.7985 20.0277 13.7266 20.3008 13.7266H27.3537Z" fill="#00435B"/>
<path d="M10.0356 12.9843C9.25426 9.19568 9.08645 6.28981 9.59157 4.17987C9.89195 2.92493 10.4409 1.90118 11.2761 1.16243C12.1577 0.38262 13.2722 -6.72272e-05 14.5247 -6.72272e-05C16.5906 -6.72272e-05 18.7626 0.94212 21.0834 2.73181C22.0303 3.46193 23.0128 4.34187 24.0332 5.37218C24.1146 5.26775 24.2063 5.16912 24.3086 5.07781C27.1935 2.50718 29.6224 0.909683 31.6999 0.293933C32.9351 -0.0724422 34.0948 -0.107317 35.1508 0.248183C36.2657 0.623183 37.1539 1.39887 37.7807 2.48506C38.8149 4.27775 39.0876 6.63331 38.7021 9.542C38.5449 10.7276 38.2763 12.0189 37.8966 13.4182C38.0398 13.4354 38.1834 13.4673 38.3256 13.5144C41.9858 14.7275 44.5778 16.0317 46.1469 17.5226C47.0807 18.4094 47.6903 19.3968 47.9108 20.4899C48.1433 21.6436 47.9164 22.8007 47.2905 23.8861C46.2581 25.6764 44.3599 27.0881 41.6558 28.2063C40.5701 28.6554 39.3414 29.0621 37.9688 29.4279C38.0314 29.5692 38.0801 29.7194 38.1126 29.8769C38.8939 33.6656 39.0615 36.5714 38.5566 38.6814C38.2562 39.9363 37.707 40.9601 36.8719 41.6988C35.9904 42.4786 34.8758 42.8613 33.6234 42.8613C31.5574 42.8613 29.3856 41.9191 27.0647 40.1294C26.1077 39.3914 25.1143 38.5006 24.0821 37.4561C23.9735 37.6259 23.8421 37.78 23.6914 37.9139C20.8065 40.4849 18.3776 42.0821 16.3001 42.698C15.0649 43.0644 13.9052 43.0992 12.8492 42.7437C11.7343 42.3687 10.8461 41.5931 10.2193 40.5069C9.18507 38.7142 8.91245 36.3586 9.29795 33.4499C9.46088 32.2216 9.74345 30.8795 10.1451 29.4215C9.98498 29.4053 9.82715 29.3715 9.67445 29.3208C6.01426 28.1077 3.42226 26.8034 1.85307 25.3126C0.919321 24.4257 0.309759 23.4384 0.0892588 22.3452C-0.143241 21.1916 0.0836338 20.0343 0.709509 18.9489C1.74188 17.1588 3.64013 15.7469 6.34426 14.6289C7.46232 14.1663 8.73188 13.7489 10.1543 13.3747C10.103 13.2484 10.0632 13.1178 10.0356 12.9843Z" fill="#002B3B"/>
<path d="M35.559 30.2501C35.7337 30.2192 35.9136 30.2566 36.0615 30.3547C36.2093 30.4528 36.3137 30.604 36.3531 30.777L36.3574 30.798L36.3962 30.9996C37.6543 37.614 36.7681 40.9212 33.7375 40.9212C30.7725 40.9212 26.998 38.0991 22.414 32.455C22.3325 32.3546 22.2809 32.2335 22.2648 32.1053C22.2488 31.9771 22.2691 31.8469 22.3233 31.7297C22.3775 31.6124 22.4636 31.5127 22.5716 31.4419C22.6797 31.371 22.8055 31.3319 22.9347 31.329H22.956L23.1975 31.3307C25.1265 31.3412 27.0018 31.274 28.8233 31.129C30.9733 30.9577 33.2185 30.6648 35.559 30.2501ZM14.7463 25.2503L14.758 25.27L14.8791 25.4813C15.8497 27.1688 16.861 28.7705 17.9128 30.2863C19.1518 32.0713 20.545 33.8785 22.0922 35.7077C22.2071 35.8435 22.2651 36.0183 22.2543 36.1958C22.2435 36.3733 22.1647 36.5397 22.0343 36.6606L22.0168 36.6762L21.8612 36.8102C16.7412 41.1972 13.4135 42.073 11.878 39.4375C10.3748 36.858 10.9198 32.1675 13.5128 25.3662C13.5587 25.2457 13.6374 25.1404 13.7401 25.0624C13.8427 24.9843 13.9651 24.9365 14.0935 24.9245C14.2219 24.9124 14.3511 24.9365 14.4665 24.9941C14.5818 25.0517 14.6788 25.1404 14.7463 25.2503ZM38.157 15.4902L38.178 15.4971L38.3708 15.5635C44.6904 17.762 47.0914 20.1779 45.5738 22.8113C44.0895 25.3869 39.7745 27.2621 32.6286 28.437C32.4991 28.4583 32.3662 28.4423 32.2455 28.3908C32.1247 28.3393 32.0212 28.2545 31.9469 28.1462C31.8727 28.038 31.8308 27.9108 31.8263 27.7797C31.8217 27.6485 31.8546 27.5187 31.9212 27.4056C32.9447 25.6646 33.8665 23.9323 34.6866 22.2087C35.6166 20.2539 36.4894 18.1558 37.305 15.9143C37.3643 15.7514 37.4826 15.6167 37.6366 15.537C37.7905 15.4572 37.9688 15.4383 38.136 15.484L38.157 15.4902ZM15.8338 14.3833C15.9121 14.4293 15.9805 14.4902 16.0351 14.5625C16.0898 14.6349 16.1297 14.7174 16.1525 14.8051C16.1753 14.8929 16.1806 14.9844 16.1681 15.0742C16.1555 15.164 16.1254 15.2505 16.0795 15.3287C15.0557 17.0696 14.1338 18.8019 13.3138 20.5257C12.3838 22.4803 11.511 24.5784 10.6954 26.82C10.6348 26.9865 10.5127 27.1233 10.3541 27.2022C10.1955 27.2812 10.0127 27.2962 9.8434 27.2442L9.8224 27.2372L9.62965 27.1707C3.31003 24.9723 0.90903 22.5564 2.42665 19.923C3.9109 17.3474 8.22597 15.4721 15.3718 14.2971C15.5312 14.2708 15.6947 14.3014 15.8338 14.3833ZM36.1225 3.5554C37.6256 6.13503 37.0807 10.8255 34.4877 17.6269C34.4417 17.7474 34.363 17.8526 34.2604 17.9307C34.1577 18.0088 34.0353 18.0565 33.9069 18.0686C33.7785 18.0806 33.6493 18.0565 33.534 17.9989C33.4186 17.9414 33.3216 17.8526 33.2541 17.7428L33.2425 17.7231L33.1213 17.5118C32.1507 15.8243 31.1395 14.2226 30.0876 12.7067C28.8486 10.9217 27.4555 9.11459 25.9082 7.28534C25.7934 7.14959 25.7353 6.97477 25.7461 6.79728C25.7569 6.61979 25.8357 6.4533 25.9662 6.33246L25.9836 6.3169L26.1392 6.18284C31.2592 1.79596 34.587 0.920153 36.1225 3.5554ZM14.5221 1.98584C17.4872 1.98584 21.2617 4.80784 25.8456 10.4518C25.927 10.5522 25.9787 10.6733 25.9947 10.8015C26.0108 10.9297 25.9905 11.0599 25.9363 11.1771C25.882 11.2944 25.796 11.3941 25.6879 11.4649C25.5798 11.5358 25.4541 11.5749 25.3249 11.5778H25.3035L25.062 11.5763C23.1332 11.5658 21.258 11.633 19.4365 11.778C17.2862 11.9493 15.0409 12.2422 12.7005 12.6568C12.5259 12.6877 12.346 12.6503 12.1982 12.5522C12.0504 12.4541 11.946 12.3029 11.9067 12.13L11.9022 12.1088L11.8633 11.9074C10.6051 5.29303 11.4913 1.98584 14.5221 1.98584Z" fill="#FF4154"/>
<path d="M20.868 13.813H26.7885C27.2139 13.813 27.6317 13.9252 27.9998 14.1384C28.3679 14.3516 28.6733 14.6581 28.885 15.0271L31.8578 20.2069C32.068 20.5731 32.1786 20.9879 32.1786 21.4101C32.1786 21.8323 32.068 22.2471 31.8578 22.6133L28.885 27.7932C28.6733 28.1621 28.3679 28.4687 27.9998 28.6818C27.6317 28.895 27.2139 29.0073 26.7885 29.0072H20.868C20.0021 29.0072 19.2025 28.5441 18.7714 27.7932L15.799 22.6133C15.5888 22.2471 15.4782 21.8323 15.4782 21.4101C15.4782 20.9879 15.5888 20.5731 15.799 20.2069L18.7716 15.0271C18.9833 14.6581 19.2886 14.3515 19.6568 14.1383C20.0249 13.9252 20.4426 13.8129 20.868 13.813ZM25.8863 15.3764C26.7525 15.3764 27.5528 15.8401 27.9835 16.5916L30.0565 20.2081C30.2662 20.5739 30.3766 20.9884 30.3766 21.4101C30.3766 21.8319 30.2662 22.2463 30.0565 22.6122L27.9835 26.2287C27.7718 26.5979 27.4664 26.9047 27.0982 27.1181C26.7299 27.3314 26.3119 27.4437 25.8863 27.4437H21.7706C20.9044 27.4437 20.1041 26.9802 19.6735 26.2287L17.6005 22.6122C17.3907 22.2463 17.2803 21.8319 17.2803 21.4101C17.2803 20.9884 17.3907 20.5739 17.6005 20.2081L19.6735 16.5916C19.8851 16.2223 20.1904 15.9156 20.5587 15.7022C20.9269 15.4889 21.3449 15.3765 21.7705 15.3766L25.8863 15.3764ZM24.9137 17.0864H22.7432C22.318 17.0863 21.9003 17.1984 21.5323 17.4114C21.1642 17.6244 20.8589 17.9308 20.6471 18.2995L19.5518 20.2058C19.3412 20.5722 19.2303 20.9875 19.2303 21.4101C19.2303 21.8328 19.3412 22.248 19.5518 22.6144L20.6471 24.5209C20.8589 24.8897 21.1642 25.196 21.5323 25.409C21.9003 25.622 22.318 25.7341 22.7432 25.734H24.9137C25.7792 25.734 26.5787 25.2713 27.0098 24.5209L28.1051 22.6144C28.3157 22.248 28.4266 21.8328 28.4266 21.4101C28.4266 20.9875 28.3157 20.5722 28.1051 20.2058L27.0098 18.2993C26.798 17.9306 26.4927 17.6243 26.1247 17.4113C25.7566 17.1983 25.3389 17.0863 24.9137 17.0864ZM23.9773 18.7229C24.8421 18.7229 25.641 19.1849 26.0723 19.9341L26.2277 20.2041C26.4389 20.5709 26.55 20.9867 26.55 21.4099C26.55 21.8331 26.4389 22.249 26.2277 22.6157L26.0723 22.8857C25.8603 23.2539 25.5551 23.5598 25.1873 23.7724C24.8195 23.9851 24.4022 24.097 23.9773 24.097H23.6796C23.2547 24.097 22.8374 23.9851 22.4696 23.7724C22.1018 23.5598 21.7966 23.2539 21.5846 22.8857L21.4292 22.6157C21.2181 22.249 21.1069 21.8331 21.1069 21.4099C21.1069 20.9867 21.2181 20.5709 21.4292 20.2041L21.5846 19.9341C21.7966 19.5659 22.1018 19.2601 22.4696 19.0474C22.8374 18.8348 23.2547 18.7228 23.6796 18.7229H23.9773ZM23.8288 20.3352C23.64 20.3351 23.4545 20.3848 23.2909 20.4791C23.1274 20.5734 22.9915 20.7091 22.897 20.8726C22.8026 21.0359 22.7529 21.2213 22.7529 21.4099C22.7529 21.5986 22.8026 21.7839 22.897 21.9473C22.9914 22.1108 23.1272 22.2465 23.2907 22.3409C23.4543 22.4353 23.6397 22.485 23.8286 22.485C24.0174 22.485 24.2028 22.4353 24.3664 22.3409C24.5299 22.2465 24.6657 22.1108 24.7601 21.9473C24.8545 21.7839 24.9042 21.5986 24.9042 21.4099C24.9042 21.2213 24.8545 21.0359 24.7601 20.8726C24.6657 20.7092 24.5299 20.5735 24.3664 20.4792C24.2029 20.3849 24.0176 20.3352 23.8288 20.3352ZM15.1084 21.4099H17.0434H15.1084Z" fill="#FFD94C"/>
</svg>
