<svg width="28" height="28" viewBox="0 0 28 28" fill="none" xmlns="http://www.w3.org/2000/svg">
<g id="fim">
<path id="Vector" d="M14 28C21.732 28 28 26.1258 28 23.8138C28 21.5019 21.732 19.6277 14 19.6277C6.26801 19.6277 0 21.5019 0 23.8138C0 26.1258 6.26801 28 14 28Z" fill="#3B88C3"/>
<path id="Vector_2" d="M26.2982 22.2503C26.2982 23.5124 24.3537 24.2707 15.0344 24.2707C6.53715 24.2707 4.44727 23.5124 4.44727 22.2503C4.44727 20.9882 8.86738 19.9651 15.0344 19.9651C21.2014 19.9651 26.2982 20.9882 26.2982 22.2503Z" fill="#88C9F9"/>
<path id="Vector_3" d="M5.44434 22.0254C5.44434 21.2444 6.22211 18.1204 13.9999 18.1204C23.3332 18.1204 25.6666 21.2444 25.6666 22.0254C25.6666 22.8064 25.6666 23.5874 14.7777 23.5874C5.44434 23.5874 5.44434 22.8064 5.44434 22.0254Z" fill="#F4900C"/>
<path id="Vector_4" d="M5.44455 8.74824C7.59233 8.74824 9.33344 6.99991 9.33344 4.84323C9.33344 2.68656 7.59233 0.938232 5.44455 0.938232C3.29678 0.938232 1.55566 2.68656 1.55566 4.84323C1.55566 6.99991 3.29678 8.74824 5.44455 8.74824Z" fill="#FFCC4D"/>
<path id="Vector_5" d="M5.44412 7.96724C7.16234 7.96724 8.55523 6.56858 8.55523 4.84324C8.55523 3.1179 7.16234 1.71924 5.44412 1.71924C3.7259 1.71924 2.33301 3.1179 2.33301 4.84324C2.33301 6.56858 3.7259 7.96724 5.44412 7.96724Z" fill="#FFAC33"/>
<path id="Vector_6" d="M20.96 11.2608C20.9297 10.8117 20.8838 10.3775 20.8223 9.96275C20.7485 9.46604 20.6559 8.99822 20.5525 8.5593C20.4576 8.15552 20.3541 7.77908 20.2476 7.43309C20.0881 6.91295 19.9232 6.46231 19.7739 6.0929C19.4807 5.36735 19.2497 4.95264 19.2497 4.95264L17.2407 5.21271C17.2407 5.21271 17.4725 5.69849 17.7237 6.65053C17.8256 7.03713 17.9298 7.50182 18.0239 8.04384C18.0713 8.31797 18.1157 8.60928 18.1561 8.92246C18.2121 9.35826 18.258 9.83389 18.2907 10.3462C18.3093 10.6352 18.3226 10.9367 18.3319 11.2506C18.335 11.3647 18.3405 11.4748 18.342 11.5919C18.3475 11.9582 18.3218 12.3307 18.2767 12.7025C18.2355 13.0376 18.1756 13.371 18.1032 13.7014C17.9998 14.1747 17.873 14.6402 17.7307 15.0838C17.6148 15.443 17.4911 15.7875 17.3667 16.1116C17.1753 16.6091 16.9832 17.0558 16.8168 17.4291C16.5383 18.0524 16.333 18.4678 16.333 18.5545C16.333 18.8287 16.5275 19.341 17.8886 19.6823C20.0166 20.2165 20.2219 19.3355 20.2219 19.3355C20.2219 19.3355 20.3572 18.9232 20.5143 18.1117C20.5921 17.7111 20.6746 17.2159 20.75 16.6161C20.7951 16.2576 20.8371 15.8632 20.8729 15.4344C20.911 14.9877 20.9421 14.5035 20.9647 13.9794C20.981 13.5827 20.9911 13.1586 20.995 12.7181C20.9966 12.5807 20.9997 12.4479 20.9997 12.3065C20.9997 11.9481 20.9833 11.6013 20.96 11.2608Z" fill="#C1694F"/>
<path id="Vector_7" d="M18.9191 16.6459C18.139 16.5092 17.6412 16.2812 17.3682 16.1101C17.1769 16.6076 16.9848 17.0544 16.8184 17.4277C17.3278 17.7057 17.9749 17.9275 18.6765 18.0494C19.0817 18.1204 19.4838 18.1556 19.861 18.1556C20.0912 18.1556 20.3075 18.1376 20.5151 18.1111C20.5929 17.7104 20.6754 17.2152 20.7508 16.6154C20.5035 16.7037 19.8898 16.8162 18.9191 16.6459ZM19.5087 14.0358C18.9005 13.9757 18.433 13.8413 18.1048 13.7C18.0014 14.1732 17.8746 14.6387 17.7322 15.0823C18.2129 15.2643 18.7784 15.3955 19.3702 15.4541C19.609 15.4775 19.8455 15.4892 20.0765 15.4892C20.3557 15.4892 20.6209 15.4674 20.8745 15.4338C20.9126 14.987 20.9437 14.5028 20.9662 13.9788C20.6162 14.0553 20.1262 14.0975 19.5087 14.0358ZM19.6806 12.8455C20.1379 12.8455 20.5867 12.7995 20.9966 12.7182C20.9974 12.5808 21.0005 12.448 21.0005 12.3067C21.0005 11.949 20.9841 11.6022 20.9608 11.2609C20.6668 11.3382 20.246 11.4124 19.6526 11.421C19.0498 11.4187 18.6259 11.3343 18.3319 11.25C18.335 11.364 18.3405 11.4741 18.342 11.5913C18.3475 11.9575 18.3218 12.3301 18.2767 12.7018C18.7006 12.7917 19.1696 12.8432 19.6456 12.8455H19.6806ZM19.5421 10.2893C20.001 10.2229 20.4265 10.1035 20.8239 9.96287C20.75 9.46616 20.6575 8.99834 20.554 8.55942C20.2787 8.67344 19.8875 8.79996 19.3407 8.87885C18.8344 8.95226 18.4486 8.94757 18.1569 8.9218C18.2129 9.3576 18.2588 9.83323 18.2915 10.3456C18.3762 10.3487 18.4525 10.362 18.5396 10.362C18.8662 10.362 19.2061 10.3378 19.5421 10.2893ZM20.2491 7.43243C20.0889 6.91307 19.924 6.46243 19.7747 6.09302C19.5281 6.2172 19.2162 6.34762 18.8087 6.46087C18.3669 6.58427 18.0099 6.63347 17.7237 6.65065C17.8256 7.03725 17.9298 7.50194 18.0239 8.04396C18.4027 8.00569 18.7931 7.94399 19.1882 7.83387C19.5662 7.72843 19.917 7.58707 20.2491 7.43243Z" fill="#D99E82"/>
<path id="Vector_8" d="M26.8713 2.26057C26.8464 2.22777 24.3809 -1.08446 21.1835 0.368205C19.7469 1.02034 18.8206 2.08641 18.4853 3.46331C17.86 2.58468 16.9096 2.02705 15.6511 1.80212C12.2126 1.18669 10.1351 5.02219 10.1149 5.06046C10.0846 5.11669 10.0978 5.18542 10.1452 5.22759C10.1934 5.26898 10.2627 5.27211 10.314 5.2354C10.3296 5.22368 11.8983 4.12091 14.5109 4.58873C17.181 5.06592 19.0531 5.53452 19.0718 5.53921C19.0835 5.54155 19.0936 5.54311 19.1052 5.54311C19.1426 5.54311 19.1791 5.52749 19.2056 5.49938C19.2227 5.48063 20.9968 3.5664 22.6278 2.82601C25.042 1.72949 26.6886 2.45738 26.7033 2.46519C26.7593 2.49096 26.8262 2.47534 26.8659 2.42692C26.9056 2.37928 26.9079 2.31133 26.8713 2.26057Z" fill="#3E721D"/>
<path id="Vector_9" d="M24.2118 4.18031C21.7742 2.88775 19.8795 3.53129 18.7028 4.3162C17.2926 4.04207 14.6575 4.03738 12.4245 6.91225C9.68287 10.4408 12.0878 14.841 12.1119 14.8855C12.136 14.9292 12.1819 14.955 12.2309 14.955L12.2472 14.9542C12.3024 14.9472 12.3475 14.9073 12.3615 14.8542C12.3701 14.8238 13.2148 11.756 15.3505 9.17637C16.518 7.76666 17.9118 6.46317 18.8925 5.60485C19.8803 5.76964 21.3316 6.13437 22.7573 6.93411C25.5363 8.49455 26.8111 11.1351 26.8235 11.1617C26.8484 11.2132 26.9021 11.2491 26.9612 11.239C27.0188 11.2327 27.0662 11.1906 27.0786 11.1343C27.0895 11.0851 28.1613 6.27495 24.2118 4.18031Z" fill="#5C913B"/>
</g>
</svg>
