<svg width="48" height="44" viewBox="0 0 48 44" fill="none" xmlns="http://www.w3.org/2000/svg">
<path d="M25.993 6.04346C26.2701 6.04347 26.5361 6.1517 26.7345 6.34509C26.9329 6.53848 27.0478 6.80171 27.0549 7.07864L27.0552 7.10564V19.2641C27.0553 19.5411 26.9471 19.8073 26.7537 20.0057C26.5603 20.2041 26.297 20.319 26.02 20.3261L25.993 20.3265H16.0788C15.8017 20.3265 15.5356 20.2183 15.3372 20.0248C15.1387 19.8314 15.0238 19.5681 15.0168 19.2911L15.0166 19.2641V7.10564C15.0167 6.82861 15.1249 6.56256 15.3183 6.36418C15.5116 6.1658 15.7748 6.05078 16.0518 6.04365L16.0788 6.04346H25.993ZM25.993 6.51596H16.0788C15.926 6.516 15.7792 6.57524 15.6691 6.68125C15.5591 6.78726 15.4945 6.93178 15.4887 7.08446L15.4882 7.10564V19.2641C15.4884 19.417 15.5478 19.5639 15.654 19.6739C15.7602 19.784 15.9048 19.8486 16.0576 19.8543L16.0788 19.8547H25.993C26.1459 19.8544 26.2927 19.795 26.4027 19.6888C26.5127 19.5827 26.5774 19.438 26.5831 19.2853L26.5835 19.2641V7.10564C26.5832 6.94916 26.5209 6.79918 26.4102 6.68862C26.2994 6.57805 26.1493 6.51596 25.9929 6.51596M17.4948 17.3756V18.0832H16.7864V17.3756H17.4948ZM25.4035 17.3756V18.0832H17.8494V17.3756H25.4035ZM17.4948 14.3068V15.0144H16.7864V14.3068H17.4948ZM25.4035 14.3068V15.0144H17.8494V14.3068H25.4035ZM17.4948 11.3559V12.0633H16.7864V11.3559H17.4948ZM25.4035 11.3559V12.0633H17.8494V11.3559H25.4035ZM25.4035 8.64089V9.34927H16.7862V8.64071L25.4035 8.64089ZM25.993 22.8037V22.8112C26.2689 22.8112 26.5339 22.9184 26.7321 23.1103C26.9302 23.3022 27.046 23.5636 27.0549 23.8393L27.0552 23.8661V36.0245C27.0553 36.3016 26.9471 36.5677 26.7537 36.7661C26.5603 36.9645 26.297 37.0795 26.02 37.0865L25.993 37.0869H16.0788C15.8026 37.0869 15.5373 36.9794 15.3391 36.7871C15.1409 36.5949 15.0254 36.333 15.017 36.057L15.0166 36.0245V23.8661C15.0167 23.589 15.1249 23.323 15.3183 23.1246C15.5116 22.9262 15.7748 22.8112 16.0518 22.8041L16.0788 22.8039L25.993 22.8037ZM25.993 23.2764H16.0788C15.926 23.2764 15.7792 23.3357 15.6691 23.4417C15.5591 23.5477 15.4945 23.6922 15.4887 23.8449L15.4882 23.8661V36.0245C15.4884 36.1774 15.5478 36.3243 15.654 36.4343C15.7602 36.5444 15.9048 36.6091 16.0576 36.6148L16.0788 36.6151H25.993C26.1453 36.6149 26.2916 36.5559 26.4016 36.4505C26.5115 36.3451 26.5765 36.2014 26.5831 36.0493L26.5835 36.0283V23.8698C26.5832 23.7171 26.5238 23.5703 26.4177 23.4604C26.3115 23.3505 26.1669 23.286 26.0142 23.2805L25.993 23.2801V23.2764ZM17.4948 34.1386V34.8472H16.7864V34.1386H17.4948ZM25.4035 34.1443V34.8418H17.8494V34.1443H25.4035ZM17.4948 31.0698V31.7782H16.7864V31.0698H17.4948ZM25.4035 31.0753V31.7728H17.8494V31.0753H25.4035ZM17.4948 28.1197V28.8273H16.7864V28.1197H17.4948ZM25.4035 28.1253V28.8219H17.8494V28.125L25.4035 28.1253ZM25.4035 25.4047V26.1131H16.7862V25.4047H25.4035ZM28.8522 13.185V13.7745H32.3928V29.8115H28.8522V30.402H32.9832V13.185H32.3928H28.8522Z" fill="#8E8F8F"/>
<path d="M3.62475 2.77387C4.32281 1.62881 5.47294 0.960938 6.63469 0.573188L6.79312 0.522L6.95138 0.474188C7.0305 0.451063 7.10944 0.429188 7.18819 0.408563L7.34512 0.368625C7.37137 0.362125 7.39744 0.355875 7.42331 0.349875L7.57894 0.31425L7.656 0.297563L7.80938 0.26625L7.96106 0.23775L8.11069 0.2115L8.25825 0.187875L8.40319 0.166313L8.5455 0.147188L8.68481 0.130125L8.82094 0.114938L8.95369 0.101625L9.14569 0.08475L9.3285 0.071625L9.50137 0.061875L9.68925 0.0538125L9.86119 0.0489375L9.96619 0.04725L10.0629 0.0465H10.1512L10.2669 0.048L10.3322 0.0493125L10.4513 0.0534375L10.5038 0.0560625V2.88994C7.99725 2.65144 6.87881 3.40856 6.38569 4.21538L6.34125 4.29112C6.27979 4.4002 6.22682 4.51385 6.18281 4.63106L6.15619 4.70531C6.15181 4.71744 6.14769 4.72969 6.14381 4.74206L6.12112 4.81519L6.10087 4.887L6.08325 4.9575C6.08038 4.96913 6.07769 4.98069 6.07519 4.99219L6.06075 5.06062L6.05438 5.09438L6.04312 5.16L6.03338 5.22375L6.02569 5.28544L6.01688 5.37356L6.01106 5.45588L6.00825 5.52038L6.00694 5.58019V5.63456L6.00787 5.68331L6.00975 5.72644L6.01294 5.77894L6.01894 5.84081V6.882L6.01275 9.00769L6.00525 10.5396L5.99663 11.8281L5.98725 12.9169L5.97787 13.7743L5.967 14.6091L5.95575 15.3206L5.9415 16.0746L5.93269 16.4674L5.92313 16.8386L5.91075 17.2521L5.90644 17.3814L5.90606 17.6207L5.90475 17.7671L5.90306 17.8661L5.89931 18.0157L5.89331 18.1605L5.88844 18.2486L5.88281 18.3371L5.87569 18.426L5.86294 18.5595L5.85281 18.6487L5.841 18.7382L5.82769 18.8276L5.82037 18.8723L5.80444 18.9615L5.79581 19.0061L5.77706 19.0952L5.75644 19.1841L5.73375 19.2728C5.72575 19.3023 5.71737 19.3316 5.70862 19.3609L5.68125 19.449L5.65163 19.5362L5.61937 19.623C5.25637 20.5611 4.43438 21.3964 2.57344 21.7832C4.38394 22.1591 5.211 22.9588 5.58881 23.8644L5.62331 23.9511C5.65669 24.0381 5.68625 24.1257 5.712 24.2141L5.73694 24.3026C5.75269 24.3617 5.76706 24.4211 5.78006 24.4807L5.79844 24.57L5.80687 24.6148L5.82263 24.7042L5.83669 24.7939L5.84888 24.8835L5.85975 24.9731L5.86913 25.0626L5.877 25.1518L5.88375 25.2409L5.89181 25.3738L5.89594 25.4619L5.901 25.6097L5.90325 25.7072L5.90494 25.8041L5.90606 25.9476L5.90644 26.1857L5.91919 26.6008L5.93044 27.0392L5.94094 27.5091L5.95031 28.0067L5.96063 28.6168L5.9745 29.6246L5.98387 30.4787L5.98875 30.9591L5.99869 32.1864L6.00956 34.0074L6.01706 35.9782L6.01987 35.9766V37.7246L6.01706 37.7494L6.01369 37.7865L6.01163 37.8199L6.00881 37.8819L6.00787 37.9309V37.9852L6.00919 38.0451L6.012 38.1096L6.01763 38.1909L6.02306 38.2481L6.03394 38.3385L6.04331 38.4015L6.05438 38.4662L6.0675 38.5327L6.07462 38.5665L6.09075 38.6355L6.09975 38.6704L6.11925 38.7412L6.14138 38.8131C6.14513 38.8253 6.14913 38.8374 6.15338 38.8494L6.17944 38.9226C6.18856 38.9472 6.19813 38.9719 6.20813 38.9966L6.24 39.0709C6.63375 39.9536 7.67194 40.9071 10.3575 40.6884L10.5047 40.6753V43.5094L10.4295 43.5131L10.29 43.5171L10.1753 43.5189H10.0389L9.93675 43.518L9.82612 43.5157L9.70762 43.5124L9.5535 43.5062L9.44475 43.5007L9.33188 43.494L9.2145 43.4859L9.09338 43.4766L8.9685 43.4653L8.84006 43.4527L8.70825 43.4383L8.57344 43.422L8.43581 43.4038L8.36606 43.3939L8.22469 43.3725L8.15306 43.3612L8.00831 43.3365L7.93519 43.3234L7.78763 43.2949L7.71319 43.2799L7.56319 43.248L7.41225 43.2131C7.36163 43.2012 7.31094 43.1887 7.26019 43.1756L7.10719 43.1353C5.70281 42.7524 4.22719 41.9957 3.46837 40.5127C3.633 38.6899 4.38263 37.1359 5.72906 36.1686C5.79244 36.1238 5.85663 36.0805 5.92163 36.0386L5.99513 35.9919C5.90388 36.0482 5.81431 36.1077 5.72644 36.1704C4.38263 37.1359 3.633 38.6899 3.46837 40.5054C3.13071 39.8232 2.95369 39.0727 2.95087 38.3115L2.934 37.5302L2.91206 36.5829L2.88469 35.4744L2.84719 34.0614L2.81306 32.8359L2.76581 31.2315L2.71256 29.5129L2.62331 26.8084L2.60175 26.1812C2.54906 24.7614 1.97925 24.0699 1.38619 23.7362L1.31625 23.6985L1.28138 23.6809L1.21144 23.6479C1.18819 23.6374 1.165 23.6274 1.14188 23.6179L1.07269 23.5909C1.04981 23.5821 1.02694 23.574 1.00406 23.5665L0.936188 23.5444C0.913688 23.5376 0.891438 23.5312 0.869438 23.5251L0.816375 23.511L0.76425 23.4984L0.712875 23.4872L0.662625 23.4772L0.589312 23.4645L0.541875 23.4576L0.495937 23.4516L0.42975 23.4443L0.37125 23.4439L0.251813 23.4426C0.189441 23.4416 0.127059 23.4416 0.0646875 23.4426L0 23.4443V20.1231C0.155437 20.1287 0.294375 20.1259 0.42975 20.1186L0.495937 20.1111L0.541875 20.1052L0.589312 20.0981L0.662625 20.0854L0.712875 20.0754L0.76425 20.0642L0.816375 20.0516L0.869438 20.0378L0.936188 20.0182L1.00406 19.9963L1.07269 19.9719C1.76194 19.7141 2.53969 19.0517 2.60175 17.3814L2.68237 14.9796L2.74481 13.0176L2.77856 11.9042L2.83031 10.1181L2.86406 8.87569L2.88863 7.92938L2.91956 6.66244L2.93756 5.87494L2.95087 5.25038C2.9715 4.26619 3.21412 3.46725 3.59906 2.81887L3.62494 2.77594L3.62475 2.77387ZM37.4953 2.84325V0.0095625L37.5714 0.0058125L37.6772 0.002625L37.7458 0.0013125L37.8669 0H37.9594L38.0606 0.001125L38.2166 0.0043125L38.4159 0.0114375L38.5226 0.0165L38.6336 0.022875L38.8082 0.0346875L38.9295 0.0444375L39.0544 0.0556875L39.1828 0.0688125L39.3142 0.0834375L39.4489 0.0999375L39.5861 0.118313L39.726 0.138937L39.8683 0.161438L39.9401 0.173625L40.0854 0.199687L40.2324 0.228188L40.3809 0.258937L40.5309 0.292687L40.6817 0.328687C40.7576 0.347437 40.8336 0.367313 40.9097 0.388313L41.0623 0.431812C42.4892 0.850875 43.956 1.66781 44.6451 3.24937C44.9071 3.86767 45.0444 4.53162 45.0491 5.20312L45.066 5.98444L45.0879 6.93169L45.1033 7.56544L45.1277 8.51419L45.1613 9.7635L45.1869 10.6793L45.2342 12.2839L45.2874 14.0025L45.3767 16.707L45.3982 17.3342C45.4519 18.7776 46.0399 19.4679 46.6434 19.7951L46.7132 19.8313L46.7481 19.8482L46.8174 19.8801L46.8868 19.9086C46.8983 19.9132 46.9098 19.9176 46.9213 19.9219L46.9897 19.9466L47.0237 19.9579L47.091 19.9787L47.1242 19.9883L47.2228 20.0136L47.2871 20.028L47.3497 20.0402L47.4107 20.0507L47.4581 20.0578L47.5041 20.0638L47.5702 20.0711C47.6863 20.0773 47.8071 20.0803 47.9353 20.0775L48 20.0756V23.3978C47.8568 23.3927 47.7134 23.3943 47.5702 23.4024L47.5266 23.4069L47.4812 23.4126L47.4107 23.4227L47.3374 23.4354L47.2871 23.4454L47.2357 23.4566L47.1836 23.4692L47.1306 23.4831L47.0974 23.4924L47.0299 23.5131L46.9959 23.5243L46.9273 23.5489L46.8928 23.562L46.8234 23.5907C46.1621 23.8755 45.4571 24.5526 45.3984 26.1394L45.3174 28.5399L45.2552 30.5021L45.2214 31.6157L45.1697 33.402L45.1359 34.6444L45.1114 35.5907L45.0804 36.8576L45.0624 37.6451L45.0491 38.2695C45.0439 38.8535 44.9402 39.4324 44.7424 39.9819L44.7188 40.0462L44.7199 40.0522C44.0134 41.8776 42.3037 42.7357 40.7254 43.1351L40.5705 43.173L40.4936 43.1908L40.3404 43.2246L40.2645 43.2401L40.1138 43.2697L40.0389 43.2836L39.8908 43.3095L39.8177 43.3215L39.6729 43.344L39.5308 43.3641L39.3915 43.3821L39.255 43.398L39.1219 43.4122L38.9923 43.4246L38.8048 43.44L38.6848 43.4484L38.5133 43.4586L38.352 43.4657L38.1551 43.4717L38.043 43.4736L37.9399 43.4743H37.8465L37.7631 43.4734L37.6903 43.4721L37.6016 43.4694L37.5248 43.4662L37.4979 43.4647V40.6309C40.122 40.8806 41.2247 40.0391 41.6814 39.1918L41.7208 39.1159C41.7333 39.0906 41.7452 39.0654 41.7564 39.0401L41.7893 38.9647C41.7996 38.9397 41.8095 38.9147 41.8189 38.8897L41.8457 38.8157L41.8697 38.7422L41.8807 38.7058L41.901 38.634L41.9186 38.5633L41.9342 38.4941L41.9475 38.4266L41.9587 38.361L41.9683 38.2972L41.9762 38.2354L41.985 38.1472L41.9891 38.0917L41.9936 38.0004L41.9949 37.9408V37.8864L41.994 37.8373L41.9921 37.7944L41.9902 37.7578L41.9857 37.7047L41.9829 37.68V36.1258L41.9873 34.6789L41.9944 33.1858L42.0028 31.9275L42.0139 30.6429L42.0266 29.49L42.0356 28.8197L42.0441 28.2799L42.0553 27.6607L42.0632 27.2689L42.072 26.8961L42.0812 26.5446L42.0936 26.1384L42.0939 25.9003L42.0952 25.7552L42.0968 25.6573L42.0992 25.5587L42.1044 25.4094L42.1093 25.3093L42.1147 25.2201L42.1213 25.1306L42.1288 25.0408L42.1382 24.9508L42.1485 24.8608L42.1605 24.7704L42.1672 24.7254L42.1817 24.6353L42.198 24.5452L42.2162 24.4552L42.2364 24.3652C42.2611 24.2607 42.2903 24.1569 42.3242 24.0536L42.3547 23.9655C42.3969 23.8485 42.4464 23.7331 42.5034 23.6194L42.5477 23.5346C42.9763 22.7475 43.8088 22.0721 45.4266 21.7358C43.3862 21.3122 42.5949 20.3507 42.2878 19.3056L42.2631 19.2171C42.2474 19.1579 42.2331 19.0986 42.2199 19.0389L42.2016 18.9497L42.1931 18.9051L42.1774 18.8154L42.1633 18.7258L42.1511 18.6362L42.1403 18.5468L42.1309 18.4573L42.123 18.3681L42.1162 18.279L42.1082 18.1461L42.1041 18.0579L42.099 17.9102L42.0968 17.8127L42.0951 17.7159L42.0939 17.5723L42.0936 17.3342L42.0847 17.0573L42.0752 16.7051L42.0643 16.2519L42.0544 15.7693L42.045 15.2612L42.0341 14.5511L42.0212 13.53L42.0114 12.5758L42.0024 11.4705L41.9906 9.50494L41.9829 7.37494C42.1442 7.28594 42.3002 7.18844 42.4509 7.08244C43.2017 6.54469 43.7672 5.81981 44.1484 4.96706L44.1746 4.90744C43.7929 5.78606 43.2184 6.5325 42.4483 7.08356C42.3227 7.17169 42.1933 7.25412 42.0602 7.33087L41.9801 7.37588V5.7945L41.9829 5.76975L41.9863 5.73244L41.9884 5.69906L41.9912 5.63719L41.9921 5.58825V5.53387L41.9908 5.47388L41.988 5.40938L41.9846 5.35594L41.9771 5.27081L41.9661 5.18044L41.9567 5.11763L41.9456 5.05275L41.9325 4.98619L41.9254 4.95244L41.9093 4.88363L41.9003 4.84856L41.8807 4.77769L41.8586 4.70588C41.8549 4.69388 41.8509 4.68175 41.8466 4.6695L41.8206 4.59637C41.8114 4.57187 41.8019 4.54725 41.7919 4.5225L41.76 4.44806C41.3663 3.5655 40.3281 2.61206 37.6425 2.8305L37.4953 2.84325Z" fill="#FE0902"/>
<path d="M5.84426 6.76725C5.87251 6.78775 5.90139 6.80737 5.93089 6.82612L6.01882 6.88238V5.84119L6.01601 5.81644L6.01282 5.77913L6.01057 5.74575L6.00776 5.68369L6.00682 5.63494V5.58037L6.00814 5.52056L6.01095 5.45606L6.01451 5.40169L6.0192 5.34488L6.02557 5.28563L6.03326 5.22394L6.04282 5.16019L6.05407 5.09456L6.06757 5.02687L6.07507 4.99237L6.09157 4.92262L6.11051 4.85138L6.12101 4.81519L6.14351 4.74225L6.15607 4.7055L6.1827 4.63125C6.22507 4.51931 6.2772 4.40512 6.34114 4.29131L6.38557 4.21556C6.8787 3.40875 7.99714 2.65181 10.5038 2.89012V0.05625L10.4513 0.053625L10.3611 0.0504375L10.3008 0.04875L10.1511 0.046875H10.063L9.96607 0.0474375L9.80557 0.0504375L9.65895 0.055125L9.50126 0.0620625L9.32839 0.072L9.14557 0.085125L9.01845 0.0958125L8.82082 0.115125L8.6847 0.130125L8.54539 0.147375L8.40307 0.1665L8.25814 0.188063L8.11057 0.211687L7.96095 0.237938L7.80926 0.266438L7.65589 0.29775L7.57864 0.314625L7.4232 0.350062C7.39732 0.356062 7.37126 0.362313 7.34501 0.368813L7.18807 0.40875C7.10932 0.429375 7.03039 0.45125 6.95126 0.474375L6.79301 0.522188L6.63457 0.573375C5.47282 0.961125 4.3227 1.629 3.62464 2.77406C3.85039 4.446 4.58726 5.87137 5.84426 6.76725ZM10.5046 43.5098V40.6757C7.76314 40.9365 6.6822 40.0063 6.2637 39.1228L6.22939 39.0472C6.21327 39.0101 6.19802 38.9726 6.18364 38.9347L6.15701 38.8603L6.14464 38.8236L6.12195 38.7504L6.1017 38.6788L6.08389 38.6081L6.06851 38.5389L6.0552 38.4714L6.04376 38.4058L6.03439 38.3421L6.02651 38.2802L6.0177 38.1921L6.01189 38.1097L6.00907 38.0453L6.00776 37.9854V37.9311L6.0087 37.8823L6.01057 37.8392L6.01245 37.8026L6.01695 37.7496L6.01976 37.7233V35.9768C5.92101 36.0378 5.82414 36.1017 5.72914 36.1687C4.38251 37.1361 3.63289 38.6901 3.46826 40.5131C4.22726 41.9959 5.70251 42.7526 7.10707 43.1355L7.26007 43.1758C7.3107 43.1889 7.36139 43.2014 7.41214 43.2133L7.56326 43.248L7.71307 43.2801L7.86139 43.3095L7.93507 43.3234L8.08076 43.3492L8.15295 43.3612L8.29545 43.3838L8.36595 43.3941L8.50489 43.4134L8.57332 43.4222L8.70832 43.4385L8.83995 43.4529L8.96839 43.4655L9.09326 43.4768L9.21439 43.4861L9.33176 43.4942L9.44464 43.5009L9.60589 43.5088L9.70751 43.5126L9.8262 43.5159L9.93682 43.5182L10.0388 43.5191L10.1751 43.5189L10.2899 43.5172L10.3818 43.5148L10.5046 43.5098ZM44.6449 3.24937C43.9118 1.56712 42.2991 0.75 40.7905 0.356438L40.6399 0.318563L40.4903 0.283313L40.4161 0.266625L40.2683 0.235312L40.1948 0.220688L40.0493 0.193125L39.9057 0.167812L39.7639 0.14475L39.6244 0.12375L39.4874 0.105L39.3529 0.088125L39.2215 0.0729375L39.0931 0.059625L38.968 0.0478125L38.7871 0.0331875L38.6148 0.02175L38.452 0.0129375L38.2994 0.00675L38.2038 0.0039375L38.0884 0.0015L37.9818 0H37.8846L37.7971 0.0005625L37.7198 0.0016875L37.6238 0.004125L37.5533 0.00675L37.4952 0.0095625V2.84363C40.2366 2.58263 41.3176 3.51281 41.7361 4.39631L41.7704 4.47206C41.7866 4.50956 41.8019 4.54706 41.8161 4.58456L41.8428 4.65881C41.847 4.67106 41.8511 4.68338 41.8551 4.69575L41.8778 4.76869L41.8981 4.8405L41.9159 4.911L41.9313 4.98038L41.9446 5.04788L41.956 5.1135L41.9654 5.17725L41.9733 5.23912L41.9821 5.32725L41.9879 5.40938L41.9907 5.47406L41.992 5.53369V5.58806L41.9911 5.637L41.9892 5.68013L41.9862 5.73262L41.98 5.79488V7.37606C42.1413 7.28694 42.2973 7.18944 42.4482 7.08356C43.6668 6.21131 44.3963 4.85025 44.6449 3.24937ZM42.5688 36.4851C42.3818 36.3522 42.186 36.2322 41.9828 36.1258V37.68L41.9856 37.7047L41.9888 37.7419L41.9911 37.7753L41.9939 37.8373L41.9948 37.8862V37.9406L41.9935 38.0004L41.989 38.0918L41.9849 38.1472L41.9761 38.2354L41.9682 38.2972L41.9588 38.361L41.9474 38.4266L41.9341 38.4941L41.9185 38.5635L41.9009 38.634L41.8806 38.7058L41.8696 38.7422L41.8456 38.8157L41.8188 38.8899C41.8094 38.9147 41.7995 38.9397 41.7891 38.9649L41.7565 39.0401C41.7451 39.0655 41.7331 39.0907 41.7205 39.1159L41.6813 39.1918C41.2246 40.0393 40.1219 40.8806 37.4978 40.6309V43.4647L37.5398 43.467L37.6606 43.4713L37.8089 43.4739L37.8989 43.4745L38.0526 43.4736L38.1666 43.4715L38.2894 43.4679L38.4417 43.4619L38.6041 43.4535L38.7177 43.4462L38.8956 43.4331L39.0188 43.4222L39.1456 43.4098L39.2755 43.3958L39.4086 43.3798L39.5444 43.3622L39.6829 43.3423L39.8236 43.3206C39.8473 43.3168 39.8711 43.3129 39.8948 43.3087L40.0388 43.2836L40.1845 43.2561L40.258 43.2414L40.4061 43.2103L40.4806 43.1938L40.6306 43.1586C42.2348 42.7697 43.999 41.9141 44.7199 40.0522C44.4346 38.5648 43.7161 37.3069 42.5688 36.4851Z" fill="#FFAB00"/>
</svg>
